<svg width="156" height="48" viewBox="0 0 156 48" fill="none" xmlns="http://www.w3.org/2000/svg">
<path d="M20.208 3H22.208V0.999997H20.208V3ZM20.208 45V47H22.208V45H20.208ZM10.488 45H8.48797V47H10.488V45ZM10.488 10.8H12.488V8.8H10.488V10.8ZM2.08797 10.8H0.0879688V12.8H2.08797V10.8ZM2.08797 3V0.999997H0.0879688V3H2.08797ZM18.208 3V45H22.208V3H18.208ZM20.208 43H10.488V47H20.208V43ZM12.488 45V10.8H8.48797V45H12.488ZM10.488 8.8H2.08797V12.8H10.488V8.8ZM4.08797 10.8V3H0.0879688V10.8H4.08797ZM2.08797 5H20.208V0.999997H2.08797V5ZM39.2041 43.14L40.273 41.4496L39.2041 43.14ZM32.7841 35.7L30.9694 36.5409L30.9757 36.5543L30.9821 36.5676L32.7841 35.7ZM32.7841 12.36L30.9779 11.501L30.9734 11.5106L32.7841 12.36ZM39.2041 4.86L40.273 6.55039L39.2041 4.86ZM57.8041 4.86L56.7351 6.55039L57.8041 4.86ZM64.1641 12.36L62.3494 13.2009L62.3557 13.2143L62.3621 13.2276L64.1641 12.36ZM64.1641 35.7L62.3579 34.841L62.3534 34.8506L64.1641 35.7ZM57.8041 43.14L56.7351 41.4496L57.8041 43.14ZM54.5041 34.2L52.8446 33.0836L52.8376 33.0941L52.8307 33.1047L54.5041 34.2ZM54.5041 13.8L52.8307 14.8953L52.8376 14.9059L52.8446 14.9164L54.5041 13.8ZM42.5041 13.8L40.8446 12.6836L40.8376 12.6941L40.8307 12.7047L42.5041 13.8ZM42.5041 34.2L40.8307 35.2953L40.8376 35.3059L40.8446 35.3164L42.5041 34.2ZM48.5041 43.72C45.3704 43.72 42.6471 42.9509 40.273 41.4496L38.1351 44.8304C41.201 46.7691 44.6777 47.72 48.5041 47.72V43.72ZM40.273 41.4496C37.9058 39.9527 36.0032 37.7757 34.5861 34.8324L30.9821 36.5676C32.6849 40.1043 35.0623 42.8873 38.1351 44.8304L40.273 41.4496ZM34.5987 34.8591C33.2274 31.9 32.5041 28.3002 32.5041 24H28.5041C28.5041 28.7398 29.3007 32.94 30.9694 36.5409L34.5987 34.8591ZM32.5041 24C32.5041 19.6987 33.2277 16.1233 34.5947 13.2094L30.9734 11.5106C29.3004 15.0767 28.5041 19.2612 28.5041 24H32.5041ZM34.5902 13.219C36.0094 10.2351 37.9121 8.04332 40.273 6.55039L38.1351 3.16961C35.0561 5.11667 32.6788 7.9249 30.9779 11.501L34.5902 13.219ZM40.273 6.55039C42.6471 5.04911 45.3704 4.28 48.5041 4.28V0.279999C44.6777 0.279999 41.201 1.23089 38.1351 3.16961L40.273 6.55039ZM48.5041 4.28C51.6377 4.28 54.361 5.04911 56.7351 6.55039L58.873 3.16961C55.8071 1.23089 52.3304 0.279999 48.5041 0.279999V4.28ZM56.7351 6.55039C59.091 8.04014 60.9706 10.2255 62.3494 13.2009L65.9787 11.5191C64.3175 7.93451 61.9571 5.11985 58.873 3.16961L56.7351 6.55039ZM62.3621 13.2276C63.7627 16.1366 64.5041 19.7053 64.5041 24H68.5041C68.5041 19.2547 67.6855 15.0634 65.9661 11.4924L62.3621 13.2276ZM64.5041 24C64.5041 28.2937 63.763 31.8867 62.3579 34.841L65.9702 36.559C67.6851 32.9533 68.5041 28.7463 68.5041 24H64.5041ZM62.3534 34.8506C60.9766 37.7853 59.0974 39.9559 56.7351 41.4496L58.873 44.8304C61.9508 42.8841 64.3115 40.0947 65.9747 36.5494L62.3534 34.8506ZM56.7351 41.4496C54.361 42.9509 51.6377 43.72 48.5041 43.72V47.72C52.3304 47.72 55.8071 46.7691 58.873 44.8304L56.7351 41.4496ZM48.5041 39.5C51.7605 39.5 54.38 38.0414 56.1775 35.2953L52.8307 33.1047C51.7481 34.7586 50.3676 35.5 48.5041 35.5V39.5ZM56.1635 35.3164C57.9756 32.6227 58.7241 28.7394 58.7241 24H54.7241C54.7241 28.4606 53.9925 31.3773 52.8446 33.0836L56.1635 35.3164ZM58.7241 24C58.7241 19.2606 57.9756 15.3773 56.1635 12.6836L52.8446 14.9164C53.9925 16.6227 54.7241 19.5394 54.7241 24H58.7241ZM56.1775 12.7047C54.38 9.95862 51.7605 8.5 48.5041 8.5V12.5C50.3676 12.5 51.7481 13.2414 52.8307 14.8953L56.1775 12.7047ZM48.5041 8.5C45.2779 8.5 42.6731 9.96563 40.8446 12.6836L44.1635 14.9164C45.295 13.2344 46.6902 12.5 48.5041 12.5V8.5ZM40.8307 12.7047C39.0709 15.3932 38.3441 19.267 38.3441 24H42.3441C42.3441 19.533 43.0572 16.6068 44.1775 14.8953L40.8307 12.7047ZM38.3441 24C38.3441 28.733 39.0709 32.6068 40.8307 35.2953L44.1775 33.1047C43.0572 31.3932 42.3441 28.467 42.3441 24H38.3441ZM40.8446 35.3164C42.6731 38.0344 45.2779 39.5 48.5041 39.5V35.5C46.6902 35.5 45.295 34.7656 44.1635 33.0836L40.8446 35.3164ZM82.9267 43.14L83.9956 41.4496L82.9267 43.14ZM76.5067 35.7L74.6921 36.5409L74.6983 36.5543L74.7047 36.5676L76.5067 35.7ZM76.5067 12.36L74.7006 11.501L74.6961 11.5106L76.5067 12.36ZM82.9267 4.86L83.9956 6.55039L82.9267 4.86ZM101.527 4.86L100.458 6.55039L101.527 4.86ZM107.887 12.36L106.072 13.2009L106.078 13.2143L106.085 13.2276L107.887 12.36ZM107.887 35.7L106.081 34.841L106.076 34.8506L107.887 35.7ZM101.527 43.14L100.458 41.4496L101.527 43.14ZM98.2267 34.2L96.5673 33.0836L96.5602 33.0941L96.5533 33.1047L98.2267 34.2ZM98.2267 13.8L96.5533 14.8953L96.5602 14.9059L96.5673 14.9164L98.2267 13.8ZM86.2267 13.8L84.5673 12.6836L84.5602 12.6941L84.5533 12.7047L86.2267 13.8ZM86.2267 34.2L84.5533 35.2953L84.5602 35.3059L84.5673 35.3164L86.2267 34.2ZM92.2267 43.72C89.0931 43.72 86.3698 42.9509 83.9956 41.4496L81.8578 44.8304C84.9237 46.7691 88.4003 47.72 92.2267 47.72V43.72ZM83.9956 41.4496C81.6284 39.9527 79.7259 37.7757 78.3087 34.8324L74.7047 36.5676C76.4076 40.1043 78.785 42.8873 81.8578 44.8304L83.9956 41.4496ZM78.3213 34.8591C76.95 31.9 76.2267 28.3002 76.2267 24H72.2267C72.2267 28.7398 73.0234 32.94 74.6921 36.5409L78.3213 34.8591ZM76.2267 24C76.2267 19.6987 76.9504 16.1233 78.3174 13.2094L74.6961 11.5106C73.0231 15.0767 72.2267 19.2612 72.2267 24H76.2267ZM78.3129 13.219C79.732 10.2351 81.6347 8.04332 83.9956 6.55039L81.8578 3.16961C78.7787 5.11667 76.4014 7.9249 74.7006 11.501L78.3129 13.219ZM83.9956 6.55039C86.3698 5.04911 89.0931 4.28 92.2267 4.28V0.279999C88.4003 0.279999 84.9237 1.23089 81.8578 3.16961L83.9956 6.55039ZM92.2267 4.28C95.3603 4.28 98.0837 5.04911 100.458 6.55039L102.596 3.16961C99.5298 1.23089 96.0531 0.279999 92.2267 0.279999V4.28ZM100.458 6.55039C102.814 8.04014 104.693 10.2255 106.072 13.2009L109.701 11.5191C108.04 7.93451 105.68 5.11985 102.596 3.16961L100.458 6.55039ZM106.085 13.2276C107.485 16.1366 108.227 19.7053 108.227 24H112.227C112.227 19.2547 111.408 15.0634 109.689 11.4924L106.085 13.2276ZM108.227 24C108.227 28.2937 107.486 31.8867 106.081 34.841L109.693 36.559C111.408 32.9533 112.227 28.7463 112.227 24H108.227ZM106.076 34.8506C104.699 37.7853 102.82 39.9559 100.458 41.4496L102.596 44.8304C105.673 42.8841 108.034 40.0947 109.697 36.5494L106.076 34.8506ZM100.458 41.4496C98.0837 42.9509 95.3603 43.72 92.2267 43.72V47.72C96.0531 47.72 99.5298 46.7691 102.596 44.8304L100.458 41.4496ZM92.2267 39.5C95.4832 39.5 98.1027 38.0414 99.9001 35.2953L96.5533 33.1047C95.4707 34.7586 94.0903 35.5 92.2267 35.5V39.5ZM99.8862 35.3164C101.698 32.6227 102.447 28.7394 102.447 24H98.4467C98.4467 28.4606 97.7152 31.3773 96.5673 33.0836L99.8862 35.3164ZM102.447 24C102.447 19.2606 101.698 15.3773 99.8862 12.6836L96.5673 14.9164C97.7152 16.6227 98.4467 19.5394 98.4467 24H102.447ZM99.9001 12.7047C98.1027 9.95862 95.4832 8.5 92.2267 8.5V12.5C94.0903 12.5 95.4707 13.2414 96.5533 14.8953L99.9001 12.7047ZM92.2267 8.5C89.0006 8.5 86.3958 9.96563 84.5673 12.6836L87.8862 14.9164C89.0177 13.2344 90.4128 12.5 92.2267 12.5V8.5ZM84.5533 12.7047C82.7936 15.3932 82.0667 19.267 82.0667 24H86.0667C86.0667 19.533 86.7799 16.6068 87.9001 14.8953L84.5533 12.7047ZM82.0667 24C82.0667 28.733 82.7936 32.6068 84.5533 35.2953L87.9001 33.1047C86.7799 31.3932 86.0667 28.467 86.0667 24H82.0667ZM84.5673 35.3164C86.3958 38.0344 89.0006 39.5 92.2267 39.5V35.5C90.4128 35.5 89.0177 34.7656 87.8862 33.0836L84.5673 35.3164ZM126.649 43.14L127.718 41.4496L126.649 43.14ZM120.229 35.7L118.415 36.5409L118.421 36.5543L118.427 36.5676L120.229 35.7ZM120.229 12.36L118.423 11.501L118.419 11.5106L120.229 12.36ZM126.649 4.86L127.718 6.55039L126.649 4.86ZM145.249 4.86L144.18 6.55039L145.249 4.86ZM151.609 12.36L149.795 13.2009L149.801 13.2143L149.807 13.2276L151.609 12.36ZM151.609 35.7L149.803 34.841L149.799 34.8506L151.609 35.7ZM145.249 43.14L144.18 41.4496L145.249 43.14ZM141.949 34.2L140.29 33.0836L140.283 33.0941L140.276 33.1047L141.949 34.2ZM141.949 13.8L140.276 14.8953L140.283 14.9059L140.29 14.9164L141.949 13.8ZM129.949 13.8L128.29 12.6836L128.283 12.6941L128.276 12.7047L129.949 13.8ZM129.949 34.2L128.276 35.2953L128.283 35.3059L128.29 35.3164L129.949 34.2ZM135.949 43.72C132.816 43.72 130.092 42.9509 127.718 41.4496L125.58 44.8304C128.646 46.7691 132.123 47.72 135.949 47.72V43.72ZM127.718 41.4496C125.351 39.9527 123.449 37.7757 122.031 34.8324L118.427 36.5676C120.13 40.1043 122.508 42.8873 125.58 44.8304L127.718 41.4496ZM122.044 34.8591C120.673 31.9 119.949 28.3002 119.949 24H115.949C115.949 28.7398 116.746 32.94 118.415 36.5409L122.044 34.8591ZM119.949 24C119.949 19.6987 120.673 16.1233 122.04 13.2094L118.419 11.5106C116.746 15.0767 115.949 19.2612 115.949 24H119.949ZM122.036 13.219C123.455 10.2351 125.357 8.04332 127.718 6.55039L125.58 3.16961C122.501 5.11667 120.124 7.9249 118.423 11.501L122.036 13.219ZM127.718 6.55039C130.092 5.04911 132.816 4.28 135.949 4.28V0.279999C132.123 0.279999 128.646 1.23089 125.58 3.16961L127.718 6.55039ZM135.949 4.28C139.083 4.28 141.806 5.04911 144.18 6.55039L146.318 3.16961C143.252 1.23089 139.776 0.279999 135.949 0.279999V4.28ZM144.18 6.55039C146.536 8.04014 148.416 10.2255 149.795 13.2009L153.424 11.5191C151.763 7.93451 149.402 5.11985 146.318 3.16961L144.18 6.55039ZM149.807 13.2276C151.208 16.1366 151.949 19.7053 151.949 24H155.949C155.949 19.2547 155.131 15.0634 153.411 11.4924L149.807 13.2276ZM151.949 24C151.949 28.2937 151.208 31.8867 149.803 34.841L153.415 36.559C155.13 32.9533 155.949 28.7463 155.949 24H151.949ZM149.799 34.8506C148.422 37.7853 146.543 39.9559 144.18 41.4496L146.318 44.8304C149.396 42.8841 151.757 40.0947 153.42 36.5494L149.799 34.8506ZM144.18 41.4496C141.806 42.9509 139.083 43.72 135.949 43.72V47.72C139.776 47.72 143.252 46.7691 146.318 44.8304L144.18 41.4496ZM135.949 39.5C139.206 39.5 141.825 38.0414 143.623 35.2953L140.276 33.1047C139.193 34.7586 137.813 35.5 135.949 35.5V39.5ZM143.609 35.3164C145.421 32.6227 146.169 28.7394 146.169 24H142.169C142.169 28.4606 141.438 31.3773 140.29 33.0836L143.609 35.3164ZM146.169 24C146.169 19.2606 145.421 15.3773 143.609 12.6836L140.29 14.9164C141.438 16.6227 142.169 19.5394 142.169 24H146.169ZM143.623 12.7047C141.825 9.95862 139.206 8.5 135.949 8.5V12.5C137.813 12.5 139.193 13.2414 140.276 14.8953L143.623 12.7047ZM135.949 8.5C132.723 8.5 130.118 9.96563 128.29 12.6836L131.609 14.9164C132.74 13.2344 134.135 12.5 135.949 12.5V8.5ZM128.276 12.7047C126.516 15.3932 125.789 19.267 125.789 24H129.789C129.789 19.533 130.503 16.6068 131.623 14.8953L128.276 12.7047ZM125.789 24C125.789 28.733 126.516 32.6068 128.276 35.2953L131.623 33.1047C130.503 31.3932 129.789 28.467 129.789 24H125.789ZM128.29 35.3164C130.118 38.0344 132.723 39.5 135.949 39.5V35.5C134.135 35.5 132.74 34.7656 131.609 33.0836L128.29 35.3164Z"/>
<defs>
<linearGradient id="paint0_linear" x1="-21" y1="-7" x2="179" y2="-7" gradientUnits="userSpaceOnUse">
<stop stop-color="#4B2613"/>
<stop offset="1" stop-color="#905232"/>
</linearGradient>
</defs>
</svg>
