<svg width="65" height="47" viewBox="0 0 65 47" fill="none" xmlns="http://www.w3.org/2000/svg">
<path d="M20.5966 3H22.5966V0.999997H20.5966V3ZM20.5966 45V47H22.5966V45H20.5966ZM10.8766 45H8.87664V47H10.8766V45ZM10.8766 10.8H12.8766V8.8H10.8766V10.8ZM2.47664 10.8H0.476639V12.8H2.47664V10.8ZM2.47664 3V0.999997H0.476639V3H2.47664ZM18.5966 3V45H22.5966V3H18.5966ZM20.5966 43H10.8766V47H20.5966V43ZM12.8766 45V10.8H8.87664V45H12.8766ZM10.8766 8.8H2.47664V12.8H10.8766V8.8ZM4.47664 10.8V3H0.476639V10.8H4.47664ZM2.47664 5H20.5966V0.999997H2.47664V5ZM62.2727 37.08H64.2727V35.08H62.2727V37.08ZM62.2727 45V47H64.2727V45H62.2727ZM30.5327 45H28.5327V47H30.5327V45ZM30.5327 38.7L29.1595 37.246L28.5327 37.8379V38.7H30.5327ZM46.7327 23.4L48.106 24.854L48.1129 24.8475L46.7327 23.4ZM50.2127 19.2L51.9892 20.1188L51.9955 20.1067L52.0016 20.0944L50.2127 19.2ZM49.3727 11.82L48.1033 13.3654L48.1331 13.39L48.164 13.4134L49.3727 11.82ZM39.4127 11.52L40.2477 13.3374L40.2678 13.3281L40.2877 13.3185L39.4127 11.52ZM35.6927 14.64L34.6098 16.3214L36.2123 17.3536L37.3202 15.8025L35.6927 14.64ZM28.6127 10.08L26.9528 8.96433L25.8151 10.6571L27.5298 11.7614L28.6127 10.08ZM35.3927 4.38L36.2467 6.18849L36.257 6.18367L36.2671 6.17873L35.3927 4.38ZM53.4527 3.84L52.6346 5.66502L52.6534 5.67345L52.6724 5.6815L53.4527 3.84ZM58.9127 8.16L57.2595 9.28558L57.2734 9.30587L57.2877 9.32581L58.9127 8.16ZM59.4527 21.12L61.2558 21.9855L59.4527 21.12ZM53.8727 27.96L52.5126 26.4937L52.5062 26.4997L52.4998 26.5057L53.8727 27.96ZM44.2127 37.08L42.8398 35.6257L39.1809 39.08H44.2127V37.08ZM60.2727 37.08V45H64.2727V37.08H60.2727ZM62.2727 43H30.5327V47H62.2727V43ZM32.5327 45V38.7H28.5327V45H32.5327ZM31.906 40.154L48.106 24.854L45.3595 21.946L29.1595 37.246L31.906 40.154ZM48.1129 24.8475C49.8844 23.1584 51.2357 21.5756 51.9892 20.1188L48.4363 18.2812C47.9898 19.1444 47.0211 20.3616 45.3526 21.9525L48.1129 24.8475ZM52.0016 20.0944C52.7187 18.6602 53.1127 17.1757 53.1127 15.66H49.1127C49.1127 16.4643 48.9068 17.3398 48.4239 18.3056L52.0016 20.0944ZM53.1127 15.66C53.1127 13.4636 52.321 11.5463 50.5815 10.2266L48.164 13.4134C48.7444 13.8537 49.1127 14.4964 49.1127 15.66H53.1127ZM50.6422 10.2745C49.0202 8.94217 46.8264 8.44 44.3927 8.44V12.44C46.3591 12.44 47.4853 12.8578 48.1033 13.3654L50.6422 10.2745ZM44.3927 8.44C42.2857 8.44 40.3211 8.85398 38.5378 9.72153L40.2877 13.3185C41.4644 12.746 42.8198 12.44 44.3927 12.44V8.44ZM38.5777 9.70264C36.763 10.5364 35.256 11.8105 34.0653 13.4775L37.3202 15.8025C38.1295 14.6695 39.1024 13.8636 40.2477 13.3374L38.5777 9.70264ZM36.7757 12.9586L29.6957 8.39857L27.5298 11.7614L34.6098 16.3214L36.7757 12.9586ZM30.2726 11.1957C31.6947 9.07987 33.6648 7.40774 36.2467 6.18849L34.5387 2.5715C31.3607 4.07226 28.8107 6.20013 26.9528 8.96433L30.2726 11.1957ZM36.2671 6.17873C38.8339 4.931 41.8268 4.28 45.2927 4.28V0.279999C41.3187 0.279999 37.7116 1.029 34.5183 2.58126L36.2671 6.17873ZM45.2927 4.28C48.1933 4.28 50.6235 4.76346 52.6346 5.66502L54.2708 2.01498C51.642 0.836541 48.6322 0.279999 45.2927 0.279999V4.28ZM52.6724 5.6815C54.725 6.55125 56.2224 7.76223 57.2595 9.28558L60.5659 7.03442C59.0431 4.79777 56.9004 3.12875 54.233 1.99849L52.6724 5.6815ZM57.2877 9.32581C58.3366 10.7879 58.8927 12.5489 58.8927 14.7H62.8927C62.8927 11.8111 62.1289 9.21206 60.5378 6.99418L57.2877 9.32581ZM58.8927 14.7C58.8927 16.689 58.4764 18.5323 57.6497 20.2545L61.2558 21.9855C62.3491 19.7077 62.8927 17.271 62.8927 14.7H58.8927ZM57.6497 20.2545C56.8485 21.9237 55.1988 24.0022 52.5126 26.4937L55.2328 29.4263C58.0667 26.7978 60.137 24.3163 61.2558 21.9855L57.6497 20.2545ZM52.4998 26.5057L42.8398 35.6257L45.5857 38.5343L55.2457 29.4143L52.4998 26.5057ZM44.2127 39.08H62.2727V35.08H44.2127V39.08Z""/>
<defs>
<linearGradient id="paint0_linear" x1="-67" y1="-7" x2="133" y2="-7" gradientUnits="userSpaceOnUse">
<stop stop-color="#4B2613"/>
<stop offset="1" stop-color="#905232"/>
</linearGradient>
</defs>
</svg>
