<svg width="126" height="48" viewBox="0 0 126 48" fill="none" xmlns="http://www.w3.org/2000/svg">
<path d="M37.3606 37.08H39.3606V35.08H37.3606V37.08ZM37.3606 45V47H39.3606V45H37.3606ZM5.62062 45H3.62062V47H5.62062V45ZM5.62062 38.7L4.24738 37.246L3.62062 37.8379V38.7H5.62062ZM21.8206 23.4L23.1939 24.854L23.2008 24.8475L21.8206 23.4ZM25.3006 19.2L27.0771 20.1188L27.0834 20.1067L27.0895 20.0944L25.3006 19.2ZM24.4606 11.82L23.1911 13.3654L23.221 13.39L23.2519 13.4134L24.4606 11.82ZM14.5006 11.52L15.3356 13.3374L15.3557 13.3281L15.3756 13.3185L14.5006 11.52ZM10.7806 14.64L9.69767 16.3214L11.3002 17.3536L12.4081 15.8025L10.7806 14.64ZM3.70063 10.08L2.04072 8.96433L0.902985 10.6571L2.61767 11.7614L3.70063 10.08ZM10.4806 4.38L11.3346 6.18849L11.3449 6.18367L11.355 6.17873L10.4806 4.38ZM28.5406 3.84L27.7225 5.66502L27.7413 5.67345L27.7603 5.6815L28.5406 3.84ZM34.0006 8.16L32.3474 9.28558L32.3612 9.30587L32.3755 9.32581L34.0006 8.16ZM34.5406 21.12L36.3437 21.9855L34.5406 21.12ZM28.9606 27.96L27.6005 26.4937L27.5941 26.4997L27.5876 26.5057L28.9606 27.96ZM19.3006 37.08L17.9276 35.6257L14.2688 39.08H19.3006V37.08ZM35.3606 37.08V45H39.3606V37.08H35.3606ZM37.3606 43H5.62062V47H37.3606V43ZM7.62062 45V38.7H3.62062V45H7.62062ZM6.99387 40.154L23.1939 24.854L20.4474 21.946L4.24738 37.246L6.99387 40.154ZM23.2008 24.8475C24.9723 23.1584 26.3236 21.5756 27.0771 20.1188L23.5242 18.2812C23.0777 19.1444 22.109 20.3616 20.4405 21.9525L23.2008 24.8475ZM27.0895 20.0944C27.8066 18.6602 28.2006 17.1757 28.2006 15.66H24.2006C24.2006 16.4643 23.9947 17.3398 23.5118 18.3056L27.0895 20.0944ZM28.2006 15.66C28.2006 13.4636 27.4089 11.5463 25.6694 10.2266L23.2519 13.4134C23.8323 13.8537 24.2006 14.4964 24.2006 15.66H28.2006ZM25.7301 10.2745C24.1081 8.94217 21.9143 8.44 19.4806 8.44V12.44C21.447 12.44 22.5732 12.8578 23.1911 13.3654L25.7301 10.2745ZM19.4806 8.44C17.3736 8.44 15.409 8.85398 13.6257 9.72153L15.3756 13.3185C16.5523 12.746 17.9077 12.44 19.4806 12.44V8.44ZM13.6656 9.70264C11.8509 10.5364 10.3439 11.8105 9.15316 13.4775L12.4081 15.8025C13.2174 14.6695 14.1903 13.8636 15.3356 13.3374L13.6656 9.70264ZM11.8636 12.9586L4.78358 8.39857L2.61767 11.7614L9.69767 16.3214L11.8636 12.9586ZM5.36053 11.1957C6.78262 9.07987 8.75271 7.40774 11.3346 6.18849L9.62661 2.5715C6.44854 4.07226 3.89862 6.20013 2.04072 8.96433L5.36053 11.1957ZM11.355 6.17873C13.9218 4.931 16.9147 4.28 20.3806 4.28V0.279999C16.4065 0.279999 12.7995 1.029 9.60624 2.58126L11.355 6.17873ZM20.3806 4.28C23.2811 4.28 25.7113 4.76346 27.7225 5.66502L29.3587 2.01498C26.7299 0.836541 23.7201 0.279999 20.3806 0.279999V4.28ZM27.7603 5.6815C29.8129 6.55125 31.3103 7.76223 32.3474 9.28558L35.6538 7.03442C34.131 4.79777 31.9883 3.12875 29.3209 1.99849L27.7603 5.6815ZM32.3755 9.32581C33.4245 10.7879 33.9806 12.5489 33.9806 14.7H37.9806C37.9806 11.8111 37.2168 9.21206 35.6257 6.99418L32.3755 9.32581ZM33.9806 14.7C33.9806 16.689 33.5643 18.5323 32.7376 20.2545L36.3437 21.9855C37.437 19.7077 37.9806 17.271 37.9806 14.7H33.9806ZM32.7376 20.2545C31.9364 21.9237 30.2867 24.0022 27.6005 26.4937L30.3207 29.4263C33.1546 26.7978 35.2249 24.3163 36.3437 21.9855L32.7376 20.2545ZM27.5876 26.5057L17.9276 35.6257L20.6736 38.5343L30.3336 29.4143L27.5876 26.5057ZM19.3006 39.08H37.3606V35.08H19.3006V39.08ZM52.9541 43.14L54.023 41.4496L52.9541 43.14ZM46.5341 35.7L44.7194 36.5409L44.7257 36.5543L44.7321 36.5676L46.5341 35.7ZM46.5341 12.36L44.7279 11.501L44.7234 11.5106L46.5341 12.36ZM52.9541 4.86L54.023 6.55039L52.9541 4.86ZM71.5541 4.86L70.4851 6.55039L71.5541 4.86ZM77.9141 12.36L76.0994 13.2009L76.1057 13.2143L76.1121 13.2276L77.9141 12.36ZM77.9141 35.7L76.1079 34.841L76.1034 34.8506L77.9141 35.7ZM71.5541 43.14L70.4851 41.4496L71.5541 43.14ZM68.2541 34.2L66.5946 33.0836L66.5876 33.0941L66.5807 33.1047L68.2541 34.2ZM68.2541 13.8L66.5807 14.8953L66.5876 14.9059L66.5946 14.9164L68.2541 13.8ZM56.2541 13.8L54.5946 12.6836L54.5876 12.6941L54.5807 12.7047L56.2541 13.8ZM56.2541 34.2L54.5807 35.2953L54.5876 35.3059L54.5946 35.3164L56.2541 34.2ZM62.2541 43.72C59.1204 43.72 56.3971 42.9509 54.023 41.4496L51.8851 44.8304C54.951 46.7691 58.4277 47.72 62.2541 47.72V43.72ZM54.023 41.4496C51.6558 39.9527 49.7532 37.7757 48.3361 34.8324L44.7321 36.5676C46.4349 40.1043 48.8123 42.8873 51.8851 44.8304L54.023 41.4496ZM48.3487 34.8591C46.9774 31.9 46.2541 28.3002 46.2541 24H42.2541C42.2541 28.7398 43.0507 32.94 44.7194 36.5409L48.3487 34.8591ZM46.2541 24C46.2541 19.6987 46.9777 16.1233 48.3447 13.2094L44.7234 11.5106C43.0504 15.0767 42.2541 19.2612 42.2541 24H46.2541ZM48.3402 13.219C49.7594 10.2351 51.6621 8.04332 54.023 6.55039L51.8851 3.16961C48.8061 5.11667 46.4288 7.9249 44.7279 11.501L48.3402 13.219ZM54.023 6.55039C56.3971 5.04911 59.1204 4.28 62.2541 4.28V0.279999C58.4277 0.279999 54.951 1.23089 51.8851 3.16961L54.023 6.55039ZM62.2541 4.28C65.3877 4.28 68.111 5.04911 70.4851 6.55039L72.623 3.16961C69.5571 1.23089 66.0804 0.279999 62.2541 0.279999V4.28ZM70.4851 6.55039C72.841 8.04014 74.7206 10.2255 76.0994 13.2009L79.7287 11.5191C78.0675 7.93451 75.7071 5.11985 72.623 3.16961L70.4851 6.55039ZM76.1121 13.2276C77.5127 16.1366 78.2541 19.7053 78.2541 24H82.2541C82.2541 19.2547 81.4355 15.0634 79.7161 11.4924L76.1121 13.2276ZM78.2541 24C78.2541 28.2937 77.513 31.8867 76.1079 34.841L79.7202 36.559C81.4351 32.9533 82.2541 28.7463 82.2541 24H78.2541ZM76.1034 34.8506C74.7266 37.7853 72.8474 39.9559 70.4851 41.4496L72.623 44.8304C75.7008 42.8841 78.0615 40.0947 79.7247 36.5494L76.1034 34.8506ZM70.4851 41.4496C68.111 42.9509 65.3877 43.72 62.2541 43.72V47.72C66.0804 47.72 69.5571 46.7691 72.623 44.8304L70.4851 41.4496ZM62.2541 39.5C65.5105 39.5 68.13 38.0414 69.9275 35.2953L66.5807 33.1047C65.4981 34.7586 64.1176 35.5 62.2541 35.5V39.5ZM69.9135 35.3164C71.7256 32.6227 72.4741 28.7394 72.4741 24H68.4741C68.4741 28.4606 67.7425 31.3773 66.5946 33.0836L69.9135 35.3164ZM72.4741 24C72.4741 19.2606 71.7256 15.3773 69.9135 12.6836L66.5946 14.9164C67.7425 16.6227 68.4741 19.5394 68.4741 24H72.4741ZM69.9275 12.7047C68.13 9.95862 65.5105 8.5 62.2541 8.5V12.5C64.1176 12.5 65.4981 13.2414 66.5807 14.8953L69.9275 12.7047ZM62.2541 8.5C59.0279 8.5 56.4231 9.96563 54.5946 12.6836L57.9135 14.9164C59.045 13.2344 60.4402 12.5 62.2541 12.5V8.5ZM54.5807 12.7047C52.8209 15.3932 52.0941 19.267 52.0941 24H56.0941C56.0941 19.533 56.8072 16.6068 57.9275 14.8953L54.5807 12.7047ZM52.0941 24C52.0941 28.733 52.8209 32.6068 54.5807 35.2953L57.9275 33.1047C56.8072 31.3932 56.0941 28.467 56.0941 24H52.0941ZM54.5946 35.3164C56.4231 38.0344 59.0279 39.5 62.2541 39.5V35.5C60.4402 35.5 59.045 34.7656 57.9135 33.0836L54.5946 35.3164ZM96.6767 43.14L97.7456 41.4496L96.6767 43.14ZM90.2567 35.7L88.4421 36.5409L88.4483 36.5543L88.4547 36.5676L90.2567 35.7ZM90.2567 12.36L88.4506 11.501L88.4461 11.5106L90.2567 12.36ZM96.6767 4.86L97.7456 6.55039L96.6767 4.86ZM115.277 4.86L114.208 6.55039L115.277 4.86ZM121.637 12.36L119.822 13.2009L119.828 13.2143L119.835 13.2276L121.637 12.36ZM121.637 35.7L119.831 34.841L119.826 34.8506L121.637 35.7ZM115.277 43.14L114.208 41.4496L115.277 43.14ZM111.977 34.2L110.317 33.0836L110.31 33.0941L110.303 33.1047L111.977 34.2ZM111.977 13.8L110.303 14.8953L110.31 14.9059L110.317 14.9164L111.977 13.8ZM99.9767 13.8L98.3173 12.6836L98.3102 12.6941L98.3033 12.7047L99.9767 13.8ZM99.9767 34.2L98.3033 35.2953L98.3102 35.3059L98.3173 35.3164L99.9767 34.2ZM105.977 43.72C102.843 43.72 100.12 42.9509 97.7456 41.4496L95.6078 44.8304C98.6737 46.7691 102.15 47.72 105.977 47.72V43.72ZM97.7456 41.4496C95.3784 39.9527 93.4759 37.7757 92.0587 34.8324L88.4547 36.5676C90.1576 40.1043 92.535 42.8873 95.6078 44.8304L97.7456 41.4496ZM92.0713 34.8591C90.7 31.9 89.9767 28.3002 89.9767 24H85.9767C85.9767 28.7398 86.7734 32.94 88.4421 36.5409L92.0713 34.8591ZM89.9767 24C89.9767 19.6987 90.7004 16.1233 92.0674 13.2094L88.4461 11.5106C86.7731 15.0767 85.9767 19.2612 85.9767 24H89.9767ZM92.0629 13.219C93.482 10.2351 95.3847 8.04332 97.7456 6.55039L95.6078 3.16961C92.5287 5.11667 90.1514 7.9249 88.4506 11.501L92.0629 13.219ZM97.7456 6.55039C100.12 5.04911 102.843 4.28 105.977 4.28V0.279999C102.15 0.279999 98.6737 1.23089 95.6078 3.16961L97.7456 6.55039ZM105.977 4.28C109.11 4.28 111.834 5.04911 114.208 6.55039L116.346 3.16961C113.28 1.23089 109.803 0.279999 105.977 0.279999V4.28ZM114.208 6.55039C116.564 8.04014 118.443 10.2255 119.822 13.2009L123.451 11.5191C121.79 7.93451 119.43 5.11985 116.346 3.16961L114.208 6.55039ZM119.835 13.2276C121.235 16.1366 121.977 19.7053 121.977 24H125.977C125.977 19.2547 125.158 15.0634 123.439 11.4924L119.835 13.2276ZM121.977 24C121.977 28.2937 121.236 31.8867 119.831 34.841L123.443 36.559C125.158 32.9533 125.977 28.7463 125.977 24H121.977ZM119.826 34.8506C118.449 37.7853 116.57 39.9559 114.208 41.4496L116.346 44.8304C119.423 42.8841 121.784 40.0947 123.447 36.5494L119.826 34.8506ZM114.208 41.4496C111.834 42.9509 109.11 43.72 105.977 43.72V47.72C109.803 47.72 113.28 46.7691 116.346 44.8304L114.208 41.4496ZM105.977 39.5C109.233 39.5 111.853 38.0414 113.65 35.2953L110.303 33.1047C109.221 34.7586 107.84 35.5 105.977 35.5V39.5ZM113.636 35.3164C115.448 32.6227 116.197 28.7394 116.197 24H112.197C112.197 28.4606 111.465 31.3773 110.317 33.0836L113.636 35.3164ZM116.197 24C116.197 19.2606 115.448 15.3773 113.636 12.6836L110.317 14.9164C111.465 16.6227 112.197 19.5394 112.197 24H116.197ZM113.65 12.7047C111.853 9.95862 109.233 8.5 105.977 8.5V12.5C107.84 12.5 109.221 13.2414 110.303 14.8953L113.65 12.7047ZM105.977 8.5C102.751 8.5 100.146 9.96563 98.3173 12.6836L101.636 14.9164C102.768 13.2344 104.163 12.5 105.977 12.5V8.5ZM98.3033 12.7047C96.5436 15.3932 95.8167 19.267 95.8167 24H99.8167C99.8167 19.533 100.53 16.6068 101.65 14.8953L98.3033 12.7047ZM95.8167 24C95.8167 28.733 96.5436 32.6068 98.3033 35.2953L101.65 33.1047C100.53 31.3932 99.8167 28.467 99.8167 24H95.8167ZM98.3173 35.3164C100.146 38.0344 102.751 39.5 105.977 39.5V35.5C104.163 35.5 102.768 34.7656 101.636 33.0836L98.3173 35.3164Z"/>
<defs>
<linearGradient id="paint0_linear" x1="-35" y1="-7" x2="165" y2="-7" gradientUnits="userSpaceOnUse">
<stop stop-color="#4B2613"/>
<stop offset="1" stop-color="#905232"/>
</linearGradient>
</defs>
</svg>
