<svg width="39" height="47" viewBox="0 0 39 47" fill="none" xmlns="http://www.w3.org/2000/svg">
<path d="M25.2061 19.1L23.703 17.7806L21.322 20.4931L24.8843 21.0739L25.2061 19.1ZM33.6661 23.24L32.185 24.584L32.1912 24.5909L32.1975 24.5977L33.6661 23.24ZM34.6861 37.94L36.3802 39.003L36.3848 38.9956L36.3894 38.9882L34.6861 37.94ZM28.8061 42.86L27.9558 41.0497L27.9452 41.0548L28.8061 42.86ZM10.4461 43.58L9.90382 45.5051L9.91977 45.5096L9.93578 45.5138L10.4461 43.58ZM3.1861 40.22L1.40303 39.3141L0.626846 40.8418L2.01749 41.8431L3.1861 40.22ZM6.96609 32.78L8.16609 31.18L6.26144 29.7515L5.18303 31.8741L6.96609 32.78ZM12.4861 35.6L11.8646 37.501L11.8863 37.5081L11.9081 37.5147L12.4861 35.6ZM24.7261 35.18L25.8244 36.8514L25.8409 36.8406L25.8572 36.8295L24.7261 35.18ZM14.5261 26H12.5261V28H14.5261V26ZM14.5261 19.58L13.0272 18.2558L12.5261 18.8231V19.58H14.5261ZM23.1661 9.8L24.665 11.1242L27.6016 7.8H23.1661V9.8ZM5.28609 9.8H3.28609V11.8H5.28609V9.8ZM5.28609 2V-2.86102e-06H3.28609V2H5.28609ZM34.6861 2H36.6861V-2.86102e-06H34.6861V2ZM34.6861 8.3L36.1892 9.61937L36.6861 9.05326V8.3H34.6861ZM24.8843 21.0739C28.2439 21.6217 30.605 22.8428 32.185 24.584L35.1472 21.896C32.8072 19.3172 29.5283 17.7783 25.5279 17.1261L24.8843 21.0739ZM32.1975 24.5977C33.7823 26.3119 34.6061 28.4516 34.6061 31.16H38.6061C38.6061 27.5484 37.4699 24.4081 35.1346 21.8823L32.1975 24.5977ZM34.6061 31.16C34.6061 33.2295 34.069 35.1267 32.9828 36.8918L36.3894 38.9882C37.8632 36.5933 38.6061 33.9705 38.6061 31.16H34.6061ZM32.992 36.877C31.9552 38.5293 30.3226 39.9381 27.9558 41.0497L29.6564 44.6703C32.5696 43.3019 34.857 41.4307 36.3802 39.003L32.992 36.877ZM27.9452 41.0548C25.6856 42.1324 22.7991 42.72 19.2061 42.72V46.72C23.2131 46.72 26.7266 46.0676 29.667 44.6652L27.9452 41.0548ZM19.2061 42.72C16.4194 42.72 13.6709 42.3625 10.9564 41.6462L9.93578 45.5138C12.9813 46.3175 16.0728 46.72 19.2061 46.72V42.72ZM10.9884 41.6549C8.33003 40.9061 6.1319 39.8765 4.35471 38.5969L2.01749 41.8431C4.24028 43.4435 6.88216 44.6539 9.90382 45.5051L10.9884 41.6549ZM4.96916 41.1259L8.74916 33.6859L5.18303 31.8741L1.40303 39.3141L4.96916 41.1259ZM5.76609 34.38C7.55688 35.7231 9.59612 36.7594 11.8646 37.501L13.1076 33.699C11.2161 33.0806 9.57532 32.2369 8.16609 31.18L5.76609 34.38ZM11.9081 37.5147C14.2143 38.2109 16.569 38.56 18.9661 38.56V34.56C16.9632 34.56 14.9979 34.2691 13.0641 33.6853L11.9081 37.5147ZM18.9661 38.56C21.6276 38.56 23.9811 38.0628 25.8244 36.8514L23.6277 33.5086C22.6711 34.1372 21.1846 34.56 18.9661 34.56V38.56ZM25.8572 36.8295C27.8096 35.4906 28.8261 33.529 28.8261 31.16H24.8261C24.8261 32.231 24.4426 32.9494 23.595 33.5305L25.8572 36.8295ZM28.8261 31.16C28.8261 28.8441 27.894 26.8886 25.9587 25.6181C24.1701 24.4439 21.7413 24 18.9661 24V28C21.4309 28 22.9321 28.4161 23.7635 28.9619C24.4482 29.4114 24.8261 30.0359 24.8261 31.16H28.8261ZM18.9661 24H14.5261V28H18.9661V24ZM16.5261 26V19.58H12.5261V26H16.5261ZM16.025 20.9042L24.665 11.1242L21.6672 8.47584L13.0272 18.2558L16.025 20.9042ZM23.1661 7.8H5.28609V11.8H23.1661V7.8ZM7.28609 9.8V2H3.28609V9.8H7.28609ZM5.28609 4H34.6861V-2.86102e-06H5.28609V4ZM32.6861 2V8.3H36.6861V2H32.6861ZM33.183 6.98063L23.703 17.7806L26.7092 20.4194L36.1892 9.61937L33.183 6.98063Z"/>
<defs>
<linearGradient id="paint0_linear" x1="-79" y1="-8" x2="121" y2="-8" gradientUnits="userSpaceOnUse">
<stop stop-color="#4B2613"/>
<stop offset="1" stop-color="#905232"/>
</linearGradient>
</defs>
</svg>
