<svg width="77" height="47" viewBox="0 0 77 47" fill="none" xmlns="http://www.w3.org/2000/svg">
<path d="M36.5677 2H38.5677V-2.86102e-06H36.5677V2ZM36.5677 8.3L38.4003 9.10083L38.5677 8.7179V8.3H36.5677ZM20.9677 44V46H22.2763L22.8003 44.8008L20.9677 44ZM10.4077 44L8.57831 43.1916L7.33728 46H10.4077V44ZM25.4677 9.92L27.297 10.7284L28.538 7.92H25.4677V9.92ZM11.5477 9.92V7.92H9.54765V9.92H11.5477ZM11.5477 16.76V18.76H13.5477V16.76H11.5477ZM2.90766 16.76H0.907658V18.76H2.90766V16.76ZM2.90766 2V-2.86102e-06H0.907658V2H2.90766ZM34.5677 2V8.3H38.5677V2H34.5677ZM34.735 7.49917L19.135 43.1992L22.8003 44.8008L38.4003 9.10083L34.735 7.49917ZM20.9677 42H10.4077V46H20.9677V42ZM12.237 44.8084L27.297 10.7284L23.6383 9.11161L8.57831 43.1916L12.237 44.8084ZM25.4677 7.92H11.5477V11.92H25.4677V7.92ZM9.54765 9.92V16.76H13.5477V9.92H9.54765ZM11.5477 14.76H2.90766V18.76H11.5477V14.76ZM4.90765 16.76V2H0.907658V16.76H4.90765ZM2.90766 4H36.5677V-2.86102e-06H2.90766V4ZM63.1045 19.1L61.6014 17.7806L59.2205 20.4931L62.7827 21.0739L63.1045 19.1ZM71.5645 23.24L70.0834 24.584L70.0897 24.5909L70.096 24.5977L71.5645 23.24ZM72.5845 37.94L74.2787 39.003L74.2833 38.9956L74.2879 38.9882L72.5845 37.94ZM66.7045 42.86L65.8542 41.0497L65.8436 41.0548L66.7045 42.86ZM48.3445 43.58L47.8023 45.5051L47.8182 45.5096L47.8342 45.5138L48.3445 43.58ZM41.0845 40.22L39.3015 39.3141L38.5253 40.8418L39.9159 41.8431L41.0845 40.22ZM44.8645 32.78L46.0645 31.18L44.1599 29.7515L43.0815 31.8741L44.8645 32.78ZM50.3845 35.6L49.7631 37.501L49.7847 37.5081L49.8065 37.5147L50.3845 35.6ZM62.6245 35.18L63.7229 36.8514L63.7393 36.8406L63.7556 36.8295L62.6245 35.18ZM52.4245 26H50.4245V28H52.4245V26ZM52.4245 19.58L50.9257 18.2558L50.4245 18.8231V19.58H52.4245ZM61.0645 9.8L62.5634 11.1242L65.5001 7.8H61.0645V9.8ZM43.1845 9.8H41.1845V11.8H43.1845V9.8ZM43.1845 2V-2.86102e-06H41.1845V2H43.1845ZM72.5845 2H74.5845V-2.86102e-06H72.5845V2ZM72.5845 8.3L74.0876 9.61937L74.5845 9.05326V8.3H72.5845ZM62.7827 21.0739C66.1423 21.6217 68.5035 22.8428 70.0834 24.584L73.0457 21.896C70.7056 19.3172 67.4268 17.7783 63.4264 17.1261L62.7827 21.0739ZM70.096 24.5977C71.6808 26.3119 72.5045 28.4516 72.5045 31.16H76.5045C76.5045 27.5484 75.3683 24.4081 73.0331 21.8823L70.096 24.5977ZM72.5045 31.16C72.5045 33.2295 71.9674 35.1267 70.8812 36.8918L74.2879 38.9882C75.7616 36.5933 76.5045 33.9705 76.5045 31.16H72.5045ZM70.8904 36.877C69.8537 38.5293 68.221 39.9381 65.8543 41.0497L67.5548 44.6703C70.468 43.3019 72.7554 41.4307 74.2787 39.003L70.8904 36.877ZM65.8436 41.0548C63.584 42.1324 60.6976 42.72 57.1045 42.72V46.72C61.1115 46.72 64.6251 46.0676 67.5655 44.6652L65.8436 41.0548ZM57.1045 42.72C54.3179 42.72 51.5694 42.3625 48.8548 41.6462L47.8342 45.5138C50.8797 46.3175 53.9712 46.72 57.1045 46.72V42.72ZM48.8868 41.6549C46.2285 40.9061 44.0303 39.8765 42.2531 38.5969L39.9159 41.8431C42.1387 43.4435 44.7806 44.6539 47.8023 45.5051L48.8868 41.6549ZM42.8676 41.1259L46.6476 33.6859L43.0815 31.8741L39.3015 39.3141L42.8676 41.1259ZM43.6645 34.38C45.4553 35.7231 47.4946 36.7594 49.7631 37.501L51.006 33.699C49.1145 33.0806 47.4738 32.2369 46.0645 31.18L43.6645 34.38ZM49.8065 37.5147C52.1127 38.2109 54.4674 38.56 56.8645 38.56V34.56C54.8616 34.56 52.8963 34.2691 50.9625 33.6853L49.8065 37.5147ZM56.8645 38.56C59.526 38.56 61.8795 38.0628 63.7229 36.8514L61.5262 33.5086C60.5695 34.1372 59.083 34.56 56.8645 34.56V38.56ZM63.7556 36.8295C65.708 35.4906 66.7245 33.529 66.7245 31.16H62.7245C62.7245 32.231 62.341 32.9494 61.4935 33.5305L63.7556 36.8295ZM66.7245 31.16C66.7245 28.8441 65.7924 26.8886 63.8571 25.6181C62.0686 24.4439 59.6397 24 56.8645 24V28C59.3293 28 60.8305 28.4161 61.6619 28.9619C62.3466 29.4114 62.7245 30.0359 62.7245 31.16H66.7245ZM56.8645 24H52.4245V28H56.8645V24ZM54.4245 26V19.58H50.4245V26H54.4245ZM53.9234 20.9042L62.5634 11.1242L59.5657 8.47584L50.9257 18.2558L53.9234 20.9042ZM61.0645 7.8H43.1845V11.8H61.0645V7.8ZM45.1845 9.8V2H41.1845V9.8H45.1845ZM43.1845 4H72.5845V-2.86102e-06H43.1845V4ZM70.5845 2V8.3H74.5845V2H70.5845ZM71.0815 6.98063L61.6014 17.7806L64.6076 20.4194L74.0876 9.61937L71.0815 6.98063Z"/>
<defs>
<linearGradient id="paint0_linear" x1="-61" y1="-8" x2="139" y2="-8" gradientUnits="userSpaceOnUse">
<stop stop-color="#4B2613"/>
<stop offset="1" stop-color="#905232"/>
</linearGradient>
</defs>
</svg>
