<svg width="390" height="49" viewBox="0 0 390 49" fill="none" xmlns="http://www.w3.org/2000/svg">
<path d="M19.8037 2.80298C19.7619 3.63819 19.3026 4.30636 18.4256 4.84923C17.6739 5.3086 16.8387 5.51742 15.9199 5.51742C15.2518 5.51742 14.7089 5.35036 14.2495 5.05804C13.7066 4.68221 13.4561 4.22284 13.4561 3.59643C13.4978 2.76122 13.9572 2.09305 14.8342 1.55016C15.6276 1.09079 16.4628 0.881989 17.3398 0.881989C17.9662 0.881989 18.5091 1.04903 19.0102 1.34136C19.5531 1.7172 19.8454 2.17657 19.8037 2.80298Z" fill="white"/>
<path d="M28.5734 27.4C30.3274 24.0591 31.2461 20.7601 31.3296 17.5445C31.4967 11.3222 28.9075 8.23188 23.6039 8.3154C21.2236 8.3154 19.1356 9.27589 17.2981 11.1969C15.4606 13.1179 14.5001 15.2059 14.4166 17.3774C14.3331 18.8808 14.6672 20.1336 15.3771 21.0941C16.087 22.1381 17.131 22.6393 18.4674 22.6393C19.0938 22.6393 19.8037 22.514 20.5554 22.2634C21.0565 22.0964 21.1401 21.8041 20.806 21.3447C19.6784 19.6325 19.1356 17.7115 19.1773 15.5817C19.1773 14.3707 19.4279 13.3684 19.8455 12.5332C20.2631 11.698 20.7642 11.2386 21.3489 11.1969C22.017 11.1551 22.5182 11.7398 22.9358 13.0343C23.3534 14.3707 23.5622 16.2499 23.4787 18.6302C23.3534 22.8063 22.2258 26.6901 20.1378 30.2397C17.9663 33.9146 15.5859 35.7939 12.9132 35.9191C11.201 36.0026 9.98999 35.2927 9.32182 33.7893C8.77893 32.5783 8.57013 30.8243 8.65365 28.4022C8.77893 25.7296 9.4471 22.7646 10.7417 19.5072C12.0363 16.2917 13.4561 13.9113 15.043 12.4079C15.3771 12.0738 15.5441 11.865 15.5441 11.7815C15.5441 11.6562 15.4189 11.4892 15.1683 11.3221C14.6672 10.9463 14.166 10.821 13.7067 10.9463C9.82294 12.1156 6.56562 14.496 3.9347 18.1709C1.42907 21.6788 0.134493 25.3955 0.00921083 29.2375C-0.199592 36.1279 3.14125 39.5941 10.0735 39.5941C14.166 39.5941 17.9245 38.383 21.3071 35.9609C24.3139 33.7893 26.736 30.9496 28.5734 27.4Z" fill="white"/>
<path d="M40.6422 28.444C43.2731 26.356 45.1941 24.5602 46.4469 23.0569C46.5382 22.8742 46.5852 22.5806 46.6525 22.1598C46.6774 22.0035 46.7053 21.8292 46.7392 21.637C46.6975 20.9271 46.5304 20.593 46.2381 20.6765C45.4447 20.8436 44.4842 20.9688 43.3149 21.0106C42.3961 21.0524 41.1016 21.0524 39.3476 21.0106C39.0449 21.0034 38.7595 20.9962 38.4912 20.9894H38.487C37.2035 20.9569 36.3083 20.9343 35.7562 20.9688C34.7957 21.0106 33.9605 21.3864 33.2923 22.1381C32.5406 22.9316 31.789 24.3932 30.9537 26.4395C30.9238 26.5144 30.8884 26.5947 30.8515 26.6785C30.7857 26.8281 30.715 26.9888 30.6614 27.1494C30.5779 27.2329 30.6197 27.4 30.7449 27.567C30.8702 27.7341 31.079 27.7758 31.4131 27.6088C32.0395 27.3164 32.7494 27.1076 33.5847 26.9823C34.2946 26.8988 35.8397 26.8153 38.2201 26.7318C38.0113 26.8988 36.2991 28.3604 33.1253 31.0749C31.0373 32.8288 29.4504 34.2905 28.2811 35.5015C28.114 35.6686 28.0305 35.9609 28.0305 36.4203C27.9887 37.7148 28.1558 38.3412 28.5734 38.3412C29.6174 38.2995 31.4966 38.2995 34.2528 38.383C37.009 38.4665 38.8465 38.4665 39.8487 38.4248C40.9763 38.383 41.8533 37.9654 42.6049 37.2137C43.4402 36.3785 44.2754 34.8751 45.0271 32.7036C45.1106 32.453 45.0271 32.2859 44.8183 32.2024C44.6095 32.1607 44.4006 32.1607 44.1083 32.2859C43.1061 32.7453 40.3081 32.8706 35.7144 32.7453C36.3826 31.9519 38.0113 30.532 40.6422 28.444Z" fill="white"/>
<path fill-rule="evenodd" clip-rule="evenodd" d="M46.2382 28.8616C46.3217 27.6923 46.4053 26.9406 46.4888 26.5648C46.5723 26.2307 46.8229 25.8131 47.2822 25.3537C48.3262 24.1427 49.7879 23.1822 51.7088 22.4305C53.5881 21.6788 55.5091 21.303 57.43 21.303C59.9774 21.303 61.8984 21.8876 63.2348 23.0151C64.4041 24.1009 64.9469 25.479 64.9052 27.1912C64.8217 29.8639 63.6524 32.3695 61.3138 34.7081C58.8081 37.2555 55.8849 38.5083 52.5858 38.5083C48.535 38.5083 46.5723 37.4225 46.6141 35.2092C46.6558 33.1212 47.9086 31.3672 50.289 29.9474C52.5023 28.6946 54.9244 28.1517 57.4718 28.277C57.5971 27.8594 57.6806 27.4 57.6806 27.0242C57.7224 25.3955 57.0542 24.5185 55.7179 24.3932C54.3815 24.268 52.8781 24.6438 51.2495 25.5625C49.5791 26.4813 48.1592 27.7341 46.9064 29.2375C46.7393 29.4463 46.6141 29.5298 46.4888 29.5298C46.28 29.5298 46.1964 29.321 46.2382 28.8616ZM53.1705 33.8729C53.0092 34.2358 52.9647 34.6377 52.9242 35.0033L52.9199 35.0422C52.8781 35.8356 53.1287 36.2115 53.5881 36.2115C54.7991 36.2115 55.9267 34.207 56.9707 30.2397C56.219 30.4068 55.5091 30.7826 54.8409 31.3255C54.0474 32.0772 53.5046 32.8706 53.1705 33.8729Z" fill="white"/>
<path d="M75.387 22.0546C77.0992 17.0851 78.5608 13.9948 79.7301 12.7837C79.9807 12.5332 80.106 12.3662 80.0225 12.2409C80.0225 11.9903 79.1455 11.865 77.3498 11.865C75.387 11.865 73.8837 12.1573 72.7979 12.7002C71.7121 13.2431 70.8769 14.2036 70.2923 15.4982C68.3295 19.7578 66.6591 24.9361 65.281 31.0749C64.9887 32.453 64.8216 33.6223 64.7799 34.541C64.7381 35.9191 65.0304 36.9213 65.6568 37.5478C66.2832 38.1742 67.2855 38.4665 68.7471 38.4665C70.0417 38.4665 71.5451 37.9236 73.2573 36.7961C74.8442 35.7521 76.264 34.4157 77.5586 32.8288C77.9344 32.3695 78.185 31.9518 78.2685 31.4925C78.3938 31.0749 78.4356 30.1979 78.4356 28.9451C78.4773 28.5693 78.3938 28.3604 78.185 28.3604C78.0597 28.3604 77.9344 28.4857 77.7674 28.7363C76.4728 30.699 75.1782 32.2024 73.8837 33.2882C73.3408 33.7476 72.9232 33.9981 72.6309 33.9981C72.2968 33.9981 72.1715 33.7058 72.1715 33.1629C72.1715 32.8706 72.255 32.4948 72.3803 32.0354C73.0902 29.0704 74.0925 25.7295 75.387 22.0546Z" fill="white"/>
<path d="M201.671 29.5715C201.796 30.8243 201.587 31.8266 201.003 32.62C199.792 34.2905 198.247 35.6686 196.451 36.8379C194.655 37.9654 192.943 38.55 191.398 38.55C188.934 38.55 187.723 37.4225 187.806 35.1257C187.806 34.7498 187.848 34.4158 187.932 34.0399C188.099 33.1629 188.349 32.2442 188.683 31.2419C188.881 30.6505 189.045 30.1496 189.18 29.7391C189.389 29.1063 189.526 28.6884 189.602 28.4857C189.769 27.8176 189.894 27.3164 189.894 26.8989C189.894 26.2724 189.727 25.9383 189.31 25.9383C188.6 25.9383 187.723 27.1494 186.679 29.6133C186.22 30.7824 185.771 31.9515 185.322 33.1206L185.32 33.1255C184.872 34.2934 184.423 35.4612 183.964 36.6291C183.463 37.8819 182.461 38.5083 180.916 38.5083C180.122 38.5083 178.41 38.3412 175.779 37.9654C176.224 36.891 176.658 35.7434 177.083 34.5203C176.296 35.294 175.433 35.9969 174.485 36.6291C172.606 37.8819 170.935 38.5083 169.432 38.5083C168.304 38.5083 167.469 38.216 166.884 37.6731C166.3 37.1302 166.007 36.1697 165.924 34.8333C163.042 37.2555 160.495 38.4665 158.323 38.4665C155.937 38.4665 154.725 37.3692 154.728 35.1367C154.033 35.7504 153.28 36.315 152.477 36.8379C150.681 37.9654 148.969 38.55 147.424 38.55C144.96 38.55 143.749 37.4225 143.833 35.1257C143.833 34.7498 143.874 34.4158 143.958 34.0399C144.125 33.1629 144.375 32.2442 144.71 31.2419C144.906 30.6521 145.071 30.1522 145.205 29.7424L145.206 29.7403C145.414 29.1076 145.552 28.6884 145.628 28.4857C145.795 27.8176 145.921 27.3164 145.921 26.8989C145.921 26.2724 145.754 25.9383 145.336 25.9383C144.626 25.9383 143.749 27.1494 142.705 29.6133C142.246 30.7809 141.798 31.9485 141.35 33.1162L141.348 33.1212C140.899 34.2905 140.45 35.4598 139.991 36.6291C139.489 37.8819 138.487 38.5083 136.942 38.5083C136.149 38.5083 134.436 38.3412 131.805 37.9654C132.258 36.8727 132.699 35.7041 133.131 34.4575C132.327 35.256 131.443 35.9799 130.469 36.6291C128.59 37.8819 126.919 38.5083 125.416 38.5083C124.289 38.5083 123.453 38.216 122.869 37.6731C122.284 37.1302 121.992 36.1697 121.908 34.8333C119.027 37.2555 116.479 38.4665 114.308 38.4665C111.844 38.4665 110.633 37.2972 110.716 34.9169C110.716 34.2069 110.883 33.3717 111.134 32.453C111.677 30.9914 112.429 28.8616 113.306 26.1471C113.473 25.479 113.598 24.9361 113.598 24.435C113.598 23.7668 113.473 23.1404 113.18 22.6393C115.185 21.7205 116.98 21.3029 118.567 21.3029C120.363 21.3029 121.24 22.1381 121.198 23.8086C121.198 24.1844 121.157 24.5603 121.031 24.9779C120.906 25.6043 120.53 26.8153 119.862 28.611C118.985 30.9496 118.484 32.4948 118.275 33.1629C117.899 34.2487 118.066 34.7916 118.734 34.7916C119.152 34.7916 119.737 34.2905 120.488 33.2882C121.24 32.286 121.992 30.9914 122.743 29.4462C123.245 28.4022 123.787 26.9824 124.33 25.2284C124.623 24.2679 124.664 23.3492 124.497 22.3887C126.168 21.637 127.796 21.3029 129.342 21.3029C131.263 21.3029 132.223 21.9711 132.181 23.3492C132.181 23.8921 132.014 24.5602 131.764 25.3537C131.012 27.4 130.093 29.9891 129.049 33.0794C128.882 33.6641 129.049 33.9981 129.467 33.9981C129.759 33.9981 130.135 33.7893 130.594 33.4135C131.764 32.453 133.058 31.0749 134.478 29.2792C134.627 29.1091 134.754 28.9714 134.86 28.8773C134.984 28.4341 135.107 27.9834 135.23 27.5252C135.439 26.6901 135.564 25.9383 135.564 25.3537C135.606 24.4767 135.439 23.7668 135.063 23.1822C137.527 21.9293 139.656 21.3029 141.369 21.3029C142.789 21.3029 143.415 22.0964 143.248 23.6833C143.206 24.1844 143.039 24.8526 142.789 25.6878C146.088 22.7646 148.844 21.3029 151.057 21.3029C153.103 21.3029 153.98 22.4722 153.688 24.8526C153.563 25.7713 153.27 27.1077 152.728 28.8198C152.059 30.9079 151.684 32.2442 151.558 32.8288L151.537 32.9543C151.503 33.1497 151.475 33.317 151.475 33.4552C151.475 33.8729 151.6 34.0817 151.809 34.0817C152.101 34.0817 152.477 33.8729 152.978 33.4135C153.969 32.5773 154.937 31.5803 155.882 30.4226C156.303 29.225 156.789 27.7936 157.321 26.1471C157.488 25.479 157.614 24.9361 157.614 24.435C157.614 23.7668 157.488 23.1404 157.196 22.6393C159.2 21.7205 160.996 21.3029 162.583 21.3029C164.379 21.3029 165.256 22.1381 165.214 23.8086C165.214 24.1844 165.172 24.5603 165.047 24.9779C164.922 25.6043 164.546 26.8153 163.878 28.611C163.001 30.9496 162.5 32.4948 162.291 33.1629C161.915 34.2487 162.082 34.7916 162.75 34.7916C163.168 34.7916 163.752 34.2905 164.504 33.2882C165.256 32.286 166.007 30.9914 166.759 29.4462C167.26 28.4022 167.803 26.9824 168.346 25.2284C168.638 24.2679 168.68 23.3492 168.513 22.3887C170.183 21.637 171.812 21.3029 173.357 21.3029C175.278 21.3029 176.239 21.9711 176.197 23.3492C176.197 23.8921 176.03 24.5602 175.779 25.3537C175.028 27.4 174.109 29.9891 173.065 33.0794C172.898 33.6641 173.065 33.9981 173.483 33.9981C173.775 33.9981 174.151 33.7893 174.61 33.4135C175.779 32.453 177.074 31.0749 178.494 29.2792C178.617 29.1383 178.725 29.0198 178.819 28.9297C178.948 28.4696 179.076 28.0015 179.204 27.5252C179.413 26.6901 179.538 25.9383 179.538 25.3537C179.58 24.4767 179.413 23.7668 179.037 23.1822C181.501 21.9293 183.63 21.3029 185.343 21.3029C186.762 21.3029 187.389 22.0964 187.222 23.6833C187.18 24.1844 187.013 24.8526 186.762 25.6878C190.061 22.7646 192.818 21.3029 195.031 21.3029C197.077 21.3029 197.954 22.4722 197.662 24.8526C197.537 25.7713 197.244 27.1077 196.701 28.8198C196.033 30.9079 195.657 32.2442 195.532 32.8288L195.511 32.9543C195.477 33.1499 195.449 33.3169 195.449 33.4552C195.449 33.8729 195.574 34.0817 195.783 34.0817C196.075 34.0817 196.451 33.8729 196.952 33.4135C198.288 32.286 199.583 30.8661 200.836 29.1539C201.045 28.8616 201.212 28.7363 201.337 28.7363C201.504 28.7363 201.629 29.0286 201.671 29.5715Z" fill="white"/>
<path fill-rule="evenodd" clip-rule="evenodd" d="M111.677 22.3887C111.134 22.9316 110.341 24.6438 109.38 27.5252C108.587 29.8221 107.584 33.2882 106.373 37.9654C104.578 44.7306 100.026 48.1132 92.7176 48.1132C90.2537 48.1132 88.3745 47.7374 87.0799 46.9439C85.7853 46.1505 85.1589 45.0647 85.2007 43.6866C85.2425 42.5173 85.7436 41.5568 86.7041 40.7633C87.581 40.0534 88.6668 39.6776 89.8361 39.6776C90.1284 39.6776 90.2537 39.7194 90.3372 39.7611C90.379 39.8029 90.379 39.9699 90.3372 40.2205C90.212 40.7216 90.1284 41.181 90.1284 41.5986C90.0867 42.7261 90.379 43.6866 91.0472 44.3548C91.6736 45.0647 92.5088 45.357 93.4693 45.3153C94.8474 45.2317 95.9749 44.5218 96.8937 43.1437C97.8124 41.8074 98.8564 39.3435 100.026 35.7521C98.8982 36.7126 97.6036 37.4225 96.142 37.8819C94.9727 38.2577 93.8869 38.4247 92.9682 38.383C90.2537 38.1742 88.9591 36.5455 89.0427 33.4552C89.1262 30.6991 90.379 27.9846 92.7594 25.3955C95.3485 22.5975 98.3135 21.2194 101.613 21.2194C102.824 21.2194 103.909 21.5953 104.87 22.3052C105.622 21.5535 106.624 21.2194 107.96 21.2194C109.38 21.2612 110.633 21.637 111.677 22.3887ZM103.116 24.6438C103.199 24.3932 103.116 24.1844 102.907 24.0174C102.698 23.8503 102.448 23.7668 102.155 23.7668C101.404 23.7668 100.443 24.7691 99.274 26.7318C98.063 28.6945 97.2277 30.7408 96.6431 32.7871C96.476 33.4553 96.3508 33.9564 96.3508 34.2905C96.3508 34.7916 96.4761 35.0422 96.8101 35.1257C97.6453 35.2927 98.6476 34.2905 99.9004 32.1607C101.07 30.1562 102.114 27.6505 103.116 24.6438Z" fill="white"/>
<path fill-rule="evenodd" clip-rule="evenodd" d="M231.488 27.5252C232.449 24.6438 233.242 22.9316 233.785 22.3887C232.741 21.637 231.53 21.2612 230.068 21.2194C228.732 21.2194 227.73 21.5535 226.978 22.3052C226.017 21.5953 224.932 21.2194 223.721 21.2194C220.422 21.2194 217.457 22.5975 214.867 25.3955C212.487 27.9846 211.234 30.6991 211.151 33.4552C211.067 36.5455 212.362 38.1742 215.076 38.383C215.995 38.4247 217.081 38.2577 218.25 37.8819C219.712 37.4225 221.006 36.7126 222.134 35.7521C220.964 39.3435 219.92 41.8074 219.002 43.1437C218.083 44.5218 216.955 45.2317 215.577 45.3153C214.617 45.357 213.782 45.0647 213.155 44.3548C212.487 43.6866 212.195 42.7261 212.236 41.5986C212.236 41.181 212.32 40.7216 212.445 40.2205C212.487 39.9699 212.487 39.8029 212.445 39.7611C212.362 39.7194 212.236 39.6776 211.944 39.6776C210.775 39.6776 209.689 40.0534 208.812 40.7633C207.852 41.5568 207.35 42.5173 207.309 43.6866C207.267 45.0647 207.893 46.1505 209.188 46.9439C210.482 47.7374 212.362 48.1132 214.826 48.1132C222.134 48.1132 226.686 44.7306 228.481 37.9654C229.692 33.2882 230.695 29.8221 231.488 27.5252ZM225.057 24.0174C225.266 24.1844 225.349 24.3932 225.266 24.6438C224.263 27.6505 223.178 30.1562 222.05 32.1607C220.797 34.2905 219.795 35.2927 218.96 35.1257C218.626 35.0422 218.501 34.7916 218.501 34.2905C218.501 33.9564 218.626 33.4553 218.793 32.7871C219.378 30.7408 220.213 28.6945 221.424 26.7318C222.593 24.7691 223.554 23.7668 224.305 23.7668C224.598 23.7668 224.848 23.8503 225.057 24.0174Z" fill="white"/>
<path fill-rule="evenodd" clip-rule="evenodd" d="M251.867 27.233C251.784 30.532 250.364 33.2882 247.608 35.418C245.018 37.4643 242.012 38.5083 238.587 38.5083C234.035 38.5083 231.822 36.5038 231.947 32.453C232.031 29.1957 233.492 26.4813 236.374 24.3515C239.005 22.347 242.012 21.303 245.436 21.303C249.863 21.303 251.992 23.2657 251.867 27.233ZM244.768 25.1032C244.81 24.268 244.559 23.8921 244.016 23.8921C243.264 23.8921 242.262 25.3955 240.968 28.3605C239.673 31.3673 239.005 33.4553 239.047 34.7499C239.047 35.5433 239.297 35.9192 239.798 35.9192C240.633 35.9192 241.678 34.4158 242.93 31.4508C244.1 28.6528 244.684 26.523 244.768 25.1032Z" fill="white"/>
<path d="M263.059 29.0286C265.69 27.0242 267.611 25.312 268.864 23.8503C268.973 23.6315 269.019 23.2853 269.084 22.784L269.085 22.7815L269.085 22.7795L269.085 22.7773L269.085 22.7752L269.114 22.5558C269.072 21.8458 268.905 21.5117 268.613 21.5535C267.82 21.6788 266.859 21.7623 265.69 21.7623C264.771 21.7623 263.435 21.7206 261.723 21.5953C259.969 21.47 258.799 21.4282 258.131 21.4282C257.171 21.4282 256.335 21.8041 255.667 22.514C254.916 23.3075 254.164 24.7273 253.329 26.7318C253.287 26.8571 253.235 26.9719 253.183 27.0868C253.13 27.2016 253.078 27.3165 253.036 27.4417C252.953 27.5253 252.995 27.6923 253.12 27.8594C253.245 28.0264 253.454 28.0264 253.788 27.9011C254.414 27.6088 255.124 27.4418 255.96 27.3582C256.67 27.3165 258.215 27.2747 260.595 27.2747C260.386 27.4417 258.674 28.8199 255.5 31.409C253.412 33.0794 251.825 34.4993 250.656 35.6268C250.489 35.7939 250.405 36.0862 250.405 36.5455C250.364 37.8401 250.531 38.4665 250.948 38.4665C251.992 38.4665 253.872 38.5501 256.628 38.7171C259.384 38.8842 261.221 38.9677 262.224 38.9677C263.351 38.9677 264.228 38.6336 264.98 37.8819C265.815 37.0467 266.65 35.5851 267.402 33.4553C267.486 33.2047 267.402 33.0377 267.193 32.9541C266.984 32.8706 266.776 32.8706 266.483 32.9959C265.481 33.4135 262.725 33.4553 258.131 33.1212C258.799 32.3695 260.428 31.0332 263.059 29.0286Z" fill="white"/>
<path fill-rule="evenodd" clip-rule="evenodd" d="M268.655 28.8616C268.738 27.6923 268.822 26.9406 268.905 26.5648C268.989 26.2307 269.24 25.8131 269.699 25.3537C270.743 24.1427 272.205 23.1822 274.126 22.4305C276.005 21.6788 277.926 21.303 279.847 21.303C282.394 21.303 284.315 21.8876 285.651 23.0151C286.821 24.1009 287.364 25.479 287.322 27.1912C287.238 29.8639 286.069 32.3695 283.73 34.7081C281.225 37.2555 278.302 38.5083 275.003 38.5083C270.952 38.5083 268.989 37.4225 269.031 35.2092C269.073 33.1212 270.325 31.3672 272.706 29.9474C274.919 28.6946 277.341 28.1517 279.888 28.277C280.014 27.8594 280.097 27.4 280.097 27.0242C280.139 25.3955 279.471 24.5185 278.135 24.3932C276.798 24.268 275.295 24.6438 273.666 25.5625C271.996 26.4813 270.576 27.7341 269.323 29.2375C269.156 29.4463 269.031 29.5298 268.905 29.5298C268.697 29.5298 268.613 29.321 268.655 28.8616ZM275.587 33.8729C275.426 34.2358 275.381 34.6377 275.341 35.0033L275.337 35.0422C275.295 35.8356 275.545 36.2115 276.005 36.2115C277.216 36.2115 278.343 34.207 279.387 30.2397C278.636 30.4068 277.926 30.7826 277.258 31.3255C276.464 32.0772 275.921 32.8706 275.587 33.8729Z" fill="white"/>
<path d="M297.386 22.0546C299.098 17.0851 300.56 13.9948 301.729 12.7837C301.938 12.5332 302.063 12.3662 302.022 12.2409C302.022 11.9903 301.145 11.865 299.349 11.865C297.386 11.865 295.883 12.1573 294.797 12.7002C293.711 13.2431 292.876 14.2036 292.291 15.4982C290.329 19.7578 288.658 24.9361 287.28 31.0749C286.988 32.453 286.821 33.6223 286.779 34.541C286.737 35.9191 287.03 36.9213 287.656 37.5478C288.282 38.1742 289.285 38.4665 290.746 38.4665C292.041 38.4665 293.544 37.9236 295.256 36.7961C296.843 35.7521 298.263 34.4157 299.558 32.8288C299.934 32.3695 300.184 31.9518 300.268 31.4925C300.393 31.0749 300.435 30.1979 300.435 28.9451C300.477 28.5693 300.393 28.3604 300.184 28.3604C300.059 28.3604 299.934 28.4857 299.767 28.7363C298.472 30.699 297.177 32.2024 295.883 33.2882C295.34 33.7476 294.922 33.9981 294.63 33.9981C294.296 33.9981 294.171 33.7058 294.171 33.1629C294.171 32.8706 294.254 32.4948 294.379 32.0354C295.089 29.0704 296.092 25.7295 297.386 22.0546Z" fill="white"/>
<path fill-rule="evenodd" clip-rule="evenodd" d="M331.111 31.2441C330.724 31.6816 330.312 32.127 329.876 32.5782C328.498 33.9981 327.537 34.708 327.078 34.708C326.41 34.708 326.243 34.1234 326.535 32.9541C326.827 31.7848 327.621 29.1956 328.957 25.1866C330.085 21.7623 330.92 18.9643 331.379 16.7092C331.505 16.1246 331.588 15.5817 331.588 15.0805C331.63 13.1178 330.795 12.1156 329.041 12.1156C326.953 12.1156 324.865 12.5331 322.777 13.4519C323.654 14.3289 323.904 15.6652 323.612 17.4609C323.445 18.672 323.152 20.0083 322.735 21.5117C322.025 21.3864 321.273 21.3446 320.522 21.3446C317.682 21.3446 315.009 22.5557 312.462 24.9778C309.831 27.4417 308.453 30.2814 308.286 33.4134C308.077 36.8378 309.455 38.55 312.337 38.55C314.717 38.55 317.097 37.506 319.519 35.418C320.188 37.506 321.607 38.55 323.779 38.55C325.282 38.55 326.827 38.0489 328.498 37.0048C329.37 36.446 330.182 35.8153 330.927 35.1065C331.299 37.3667 332.724 38.5082 335.179 38.5082C337.518 38.5082 339.731 37.4642 341.903 35.4597C342.529 37.506 343.907 38.5082 346.079 38.5082C348.513 38.5082 350.818 37.3938 353.014 35.1241C353.316 37.408 354.667 38.55 357.02 38.55C359.401 38.55 361.781 37.506 364.203 35.418C364.871 37.506 366.291 38.55 368.463 38.55C369.966 38.55 371.511 38.0489 373.182 37.0048C374.004 36.4776 374.773 35.8866 375.484 35.2263C375.602 36.0772 375.929 36.7869 376.481 37.339C377.274 38.1742 378.443 38.5918 380.072 38.5501C382.995 38.5083 385.919 36.7126 388.884 33.1212C389.301 32.6201 389.552 32.2025 389.677 31.8684C389.802 31.4925 389.886 30.9079 389.969 29.9892C390.053 28.9869 389.969 28.4858 389.677 28.4858C389.552 28.4858 389.426 28.6111 389.259 28.8199C388.132 30.365 386.545 32.0354 384.54 33.8311C383.998 34.3322 383.58 34.5828 383.288 34.5828C383.079 34.5828 382.954 34.374 382.954 33.9564C382.954 33.6641 383.079 33.2047 383.246 32.6201C384.415 29.321 385.292 26.8989 385.877 25.3537C386.086 24.7273 386.211 24.1844 386.211 23.6833C386.253 22.0964 385.376 21.303 383.58 21.303C381.784 21.303 379.989 21.637 378.235 22.3052C378.694 23.1822 378.694 24.268 378.276 25.5208L377.799 26.8139C377.289 28.198 376.837 29.4248 376.429 30.5078C375.868 31.1781 375.242 31.8711 374.56 32.5782C373.182 33.9981 372.221 34.708 371.762 34.708C371.094 34.708 370.926 34.1234 371.219 32.9541C371.511 31.7848 372.305 29.1956 373.641 25.1866C374.768 21.7623 375.604 18.9643 376.063 16.7092C376.188 16.1246 376.272 15.5817 376.272 15.0805C376.314 13.1178 375.478 12.1156 373.724 12.1156C371.636 12.1156 369.548 12.5331 367.46 13.4519C368.337 14.3289 368.588 15.6652 368.296 17.4609C368.129 18.672 367.836 20.0083 367.419 21.5117C366.709 21.3864 365.957 21.3446 365.205 21.3446C362.366 21.3446 359.693 22.5557 357.145 24.9778C355.235 26.7671 353.985 28.7547 353.38 30.9085C352.343 32.1559 351.288 33.2049 350.213 34.0816C349.837 34.4157 349.503 34.5827 349.253 34.5827C348.919 34.5827 348.793 34.2904 348.793 33.7058C348.793 33.3299 348.877 32.9123 349.002 32.453C349.545 30.4902 350.172 28.5275 350.923 26.6482C351.884 24.2261 352.635 22.8063 353.22 22.3469C352.26 21.637 350.923 21.2611 349.295 21.2611C348.125 21.2611 347.248 21.5952 346.664 22.1798C346.037 21.5534 344.91 21.2611 343.197 21.2611C340.149 21.2611 337.351 22.5139 334.804 25.0196C332.866 26.9253 331.629 29.0002 331.111 31.2441ZM322.067 24.3932C322.234 23.8503 321.941 23.5579 321.232 23.5579C320.647 23.5579 319.937 24.1844 319.102 25.4789C318.141 26.9406 317.264 28.778 316.471 31.0748C316.053 32.2859 315.844 33.2464 315.803 33.9563C315.761 34.708 316.011 35.0839 316.471 35.0839C317.139 35.0839 318.058 33.9981 319.185 31.8266C320.313 29.6968 321.273 27.2329 322.067 24.3932ZM343.949 23.7668C344.367 23.7668 344.576 23.9338 344.576 24.2679C344.534 25.2701 343.782 27.2746 342.362 30.2396C340.775 33.4552 339.606 35.0839 338.771 35.0839C338.437 35.0839 338.311 34.7915 338.311 34.2487C338.353 32.9123 338.98 30.8661 340.232 28.1934C341.611 25.2284 342.863 23.7668 343.949 23.7668ZM366.75 24.3932C366.917 23.8503 366.625 23.5579 365.915 23.5579C365.331 23.5579 364.621 24.1844 363.785 25.4789C362.825 26.9406 361.948 28.778 361.155 31.0748C360.737 32.2859 360.528 33.2464 360.486 33.9563C360.445 34.708 360.695 35.0839 361.155 35.0839C361.823 35.0839 362.741 33.9981 363.869 31.8266C364.996 29.6968 365.957 27.2329 366.75 24.3932Z" fill="white"/>
<path d="M121.157 17.2939C122.034 16.751 122.493 16.0828 122.535 15.2476C122.535 14.6212 122.284 14.1618 121.741 13.786C121.24 13.4937 120.697 13.3266 120.071 13.3266C119.194 13.3266 118.359 13.5354 117.565 13.9948C116.688 14.5377 116.229 15.2059 116.187 16.0411C116.187 16.6675 116.438 17.1269 116.98 17.5027C117.44 17.795 117.983 17.9621 118.651 17.9621C119.57 17.9621 120.405 17.7532 121.157 17.2939Z" fill="white"/>
<path d="M129.133 17.2939C130.01 16.751 130.469 16.0828 130.511 15.2476C130.553 14.6212 130.26 14.1618 129.718 13.786C129.216 13.4937 128.674 13.3266 128.047 13.3266C127.17 13.3266 126.335 13.5354 125.541 13.9948C124.664 14.5377 124.205 15.2059 124.163 16.0411C124.163 16.6675 124.414 17.1269 124.957 17.5027C125.416 17.795 125.959 17.9621 126.627 17.9621C127.546 17.9621 128.381 17.7532 129.133 17.2939Z" fill="white"/>
<path d="M165.84 15.2476C165.799 16.0828 165.339 16.751 164.462 17.2939C163.711 17.7532 162.875 17.9621 161.957 17.9621C161.289 17.9621 160.746 17.795 160.286 17.5027C159.743 17.1269 159.493 16.6675 159.493 16.0411C159.535 15.2059 159.994 14.5377 160.871 13.9948C161.664 13.5354 162.5 13.3266 163.377 13.3266C164.003 13.3266 164.546 13.4937 165.047 13.786C165.632 14.1618 165.882 14.6212 165.84 15.2476Z" fill="white"/>
<path d="M172.48 17.2939C173.357 16.751 173.817 16.0828 173.858 15.2476C173.858 14.6212 173.608 14.1618 173.065 13.786C172.564 13.4937 172.021 13.3266 171.395 13.3266C170.518 13.3266 169.682 13.5354 168.889 13.9948C168.012 14.5377 167.553 15.2059 167.511 16.0411C167.511 16.6675 167.761 17.1269 168.304 17.5027C168.764 17.795 169.307 17.9621 169.975 17.9621C170.893 17.9621 171.729 17.7532 172.48 17.2939Z" fill="white"/>
<path d="M244.643 15.2476C244.601 16.0828 244.142 16.751 243.265 17.2939C242.513 17.7532 241.678 17.9621 240.759 17.9621C240.091 17.9621 239.548 17.795 239.088 17.5027C238.546 17.1269 238.295 16.6675 238.295 16.0411C238.337 15.2059 238.796 14.5377 239.673 13.9948C240.467 13.5354 241.302 13.3266 242.179 13.3266C242.805 13.3266 243.348 13.4937 243.849 13.786C244.392 14.1618 244.684 14.6212 244.643 15.2476Z" fill="white"/>
<path d="M251.283 17.2939C252.16 16.751 252.619 16.0828 252.661 15.2476C252.661 14.6212 252.41 14.1618 251.867 13.786C251.366 13.4937 250.823 13.3266 250.197 13.3266C249.32 13.3266 248.485 13.5354 247.691 13.9948C246.814 14.5377 246.355 15.2059 246.313 16.0411C246.313 16.6675 246.564 17.1269 247.107 17.5027C247.566 17.795 248.109 17.9621 248.777 17.9621C249.696 17.9621 250.531 17.7532 251.283 17.2939Z" fill="white"/>
<path d="M26.4436 4.84923C27.3206 4.30636 27.78 3.63819 27.8217 2.80298C27.8217 2.17657 27.5712 1.7172 27.0283 1.34136C26.5271 1.04903 25.9843 0.881989 25.3579 0.881989C24.4809 0.881989 23.6457 1.09079 22.8522 1.55016C21.9752 2.09305 21.5159 2.76122 21.4741 3.59643C21.4741 4.22284 21.7247 4.68221 22.2676 5.05804C22.7269 5.35036 23.2698 5.51742 23.938 5.51742C24.8567 5.51742 25.6919 5.3086 26.4436 4.84923Z" fill="white"/>
</svg>
