<svg width="40" height="40" viewBox="0 0 40 40" fill="none" xmlns="http://www.w3.org/2000/svg">
<circle r="20" transform="matrix(1.19249e-08 -1 -1 -1.19249e-08 20 20)" fill="#F6D119"/>
<path d="M19.6464 28.1506C19.8417 28.3459 20.1583 28.3459 20.3536 28.1506L23.5355 24.9686C23.7308 24.7734 23.7308 24.4568 23.5355 24.2615C23.3403 24.0663 23.0237 24.0663 22.8284 24.2615L20 27.09L17.1716 24.2615C16.9763 24.0663 16.6597 24.0663 16.4645 24.2615C16.2692 24.4568 16.2692 24.7734 16.4645 24.9686L19.6464 28.1506ZM19.5 12L19.5 27.7971L20.5 27.7971L20.5 12L19.5 12Z" fill="#4B2613"/>
</svg>
