<svg width="278" height="210" viewBox="0 0 278 210" fill="none" xmlns="http://www.w3.org/2000/svg">
<path d="M11.1821 188.906H24.1785V179.783H11.1821V170.07H25.6891V160.751H0.22168V208.268H11.1821V188.906Z" fill="#3B1F14"/>
<path d="M47.5435 209.054C52.2844 209.136 56.9934 208.265 61.392 206.495L58.3724 198.487C55.2435 199.924 51.8395 200.663 48.3965 200.653C43.9992 200.653 40.652 198.75 39.7983 194.878L61.851 191.99C61.9603 190.9 62.0041 189.804 61.9823 188.708C61.9823 178.995 56.4693 172.104 46.165 172.104C35.5323 172.104 29.232 179.717 29.232 190.546C29.232 201.047 35.2697 209.054 47.5435 209.054ZM45.9023 179.717C49.3808 179.717 51.5467 182.145 51.5467 186.608L39.0765 188.184C39.1421 182.342 42.0953 179.717 45.9023 179.717Z" fill="#3B1F14"/>
<path d="M67.8886 208.268H78.7176V181.228C79.8966 180.809 81.1424 180.608 82.3933 180.637C83.755 180.63 85.1083 180.852 86.3965 181.293L88.366 172.499C86.6724 172.235 84.9609 172.103 83.247 172.105C78.0148 172.022 72.811 172.889 67.8886 174.665V208.268Z" fill="#3B1F14"/>
<path d="M123.676 208.267V181.752C124.852 180.945 126.253 180.531 127.679 180.571C128.314 180.49 128.958 180.551 129.566 180.749C130.174 180.948 130.731 181.278 131.196 181.718C131.66 182.158 132.021 182.695 132.253 183.291C132.485 183.887 132.582 184.527 132.536 185.165V208.267H143.365V183.918C143.365 176.633 138.639 172.104 130.567 172.104C126.31 172.015 122.118 173.154 118.491 175.385C115.18 173.001 111.143 171.841 107.071 172.104C102.315 172.101 97.5999 172.969 93.1571 174.664V208.267H103.986V181.293C105.194 180.801 106.489 180.556 107.793 180.571C111.009 180.571 112.847 182.277 112.847 184.968V208.267L123.676 208.267Z" fill="#3B1F14"/>
<path d="M179.331 185.165C179.331 175.779 174.474 172.104 164.826 172.104C160.052 172.128 155.319 172.994 150.846 174.664L153.472 181.883C156.666 180.576 160.065 179.843 163.514 179.718C167.189 179.718 169.158 181.03 169.158 183.852V185.231C158.46 185.821 148.878 187.987 148.878 197.372C148.878 204.92 154.391 209.055 165.548 209.055C170.27 209.161 174.962 208.29 179.331 206.495V185.165ZM169.158 201.048C167.876 201.406 166.55 201.583 165.22 201.573C161.348 201.573 158.919 199.998 158.919 197.11C158.919 192.909 163.316 192.253 169.158 191.991V201.048Z" fill="#3B1F14"/>
<path d="M211.555 208.267V199.868H198.757L211.425 172.892H185.039V181.293H196.46L183.792 208.267H211.555Z" fill="#3B1F14"/>
<path d="M216.543 172.892V181.293H227.964L215.297 208.267H243.059V199.866H230.261L242.928 172.892H216.543Z" fill="#3B1F14"/>
<path d="M263.274 172.104C258.5 172.128 253.767 172.994 249.294 174.664L251.92 181.883C255.113 180.576 258.513 179.843 261.961 179.718C265.637 179.718 267.606 181.03 267.606 183.852V185.231C256.908 185.821 247.325 187.987 247.325 197.372C247.325 204.92 252.838 209.055 263.996 209.055C268.717 209.161 273.41 208.29 277.779 206.495V185.165C277.779 175.779 272.922 172.104 263.274 172.104ZM267.606 201.048C266.324 201.406 264.998 201.583 263.667 201.573C259.795 201.573 257.367 199.998 257.367 197.11C257.367 192.909 261.764 192.253 267.606 191.991V201.048Z" fill="#3B1F14"/>
<path d="M82.1139 79.7167H101.191L102.077 78.0075H83.3246L82.1139 79.7167Z" fill="#56473A"/>
<path d="M106.039 74.1024L87.9088 74.0641L85.6564 75.7281H103.816L106.039 74.1024Z" fill="#56473A"/>
<path d="M111.16 70.3797L110.661 70.3752H92.9007L90.9864 71.7889L109.146 71.8295L111.16 70.3797Z" fill="#56473A"/>
<path d="M80.4972 81.993L79.2773 83.7157H99.1193L100.012 81.993H80.4972Z" fill="#56473A"/>
<path d="M100.735 86.0618H81.3301V98.2855C86.925 97.729 93.7218 97.2821 101.325 97.2382V86.0618H100.735Z" fill="#7A1C1C"/>
<path d="M78.984 86.0629H74.8614L81.351 76.4061L91.8976 68.0459L95.2955 68.0311L95.2991 68.0289H105.606C106.055 67.1484 106.533 66.2826 107.041 65.4317H103.501V63.0851H108.535C113.053 56.4423 119.237 51.1033 126.467 47.603C133.698 44.1026 141.721 42.5637 149.734 43.1406C157.746 43.7175 165.467 46.3898 172.121 50.8898C178.776 55.3899 184.131 61.5596 187.65 68.781H191.542V71.1276H188.712C189.814 73.7655 190.662 76.5019 191.247 79.3001H191.777C193.109 79.3015 194.386 79.8312 195.328 80.773C196.27 81.7148 196.799 82.9918 196.801 84.3237V84.7841L197.672 87.6645C197.709 87.7867 197.717 87.9159 197.695 88.0416C197.673 88.1674 197.622 88.2863 197.546 88.3888C197.47 88.4913 197.371 88.5745 197.257 88.6318C197.143 88.6891 197.017 88.7189 196.889 88.7188H195.076C194.949 88.7189 194.823 88.6891 194.709 88.6318C194.594 88.5745 194.495 88.4913 194.419 88.3888C194.343 88.2863 194.292 88.1674 194.27 88.0416C194.248 87.9159 194.256 87.7867 194.293 87.6645L195.165 84.7841V84.3237C195.168 83.5896 194.931 82.8745 194.491 82.2871C194.05 81.6997 193.43 81.2723 192.725 81.0697C192.795 81.1551 192.862 81.2427 192.926 81.3324C193.018 81.4602 193.322 81.9856 193.385 82.124C193.675 82.7553 193.825 83.4423 193.823 84.1372V91.6091C193.823 91.6534 193.819 91.6975 193.812 91.7412L193.047 96.4873C198.962 96.6231 204.863 97.1229 210.717 97.9837C213.43 86.999 213.586 75.5382 211.174 64.4837C208.761 53.4292 203.844 43.0756 196.801 34.2201C189.758 25.3645 180.777 18.2431 170.549 13.4041C160.322 8.56499 149.12 6.13731 137.806 6.30791C126.493 6.4785 115.37 9.24281 105.292 14.388C95.2152 19.5333 86.4531 26.9222 79.6804 35.9861C72.9077 45.05 68.305 55.5471 66.2268 66.6693C64.1487 77.7916 64.6503 89.2424 67.6932 100.14C70.0461 99.7186 73.9272 99.0951 78.984 98.5338V86.0629ZM187.378 53.0907H204.177V55.4373H187.378V53.0907ZM181.065 53.0907H183.522V55.4373H181.065V53.0907ZM152.815 29.428C153.461 27.5662 154.67 25.9519 156.275 24.8095C157.881 23.6672 159.802 23.0536 161.773 23.0541C163.743 23.0547 165.664 23.6693 167.269 24.8126C168.874 25.9558 170.082 27.5708 170.726 29.4329C171.511 29.528 172.266 29.7894 172.941 30.1996C173.616 30.6099 174.196 31.1596 174.642 31.812L174.658 31.8395L174.697 31.8939C175.188 32.6879 175.458 33.5985 175.48 34.5317C175.502 35.465 175.275 36.3872 174.821 37.2033C174.368 38.0194 173.705 38.6999 172.902 39.1746C172.098 39.6493 171.182 39.901 170.248 39.9039H153.294C151.946 39.8996 150.651 39.3769 149.678 38.4443C148.705 37.5116 148.128 36.2404 148.067 34.8939C148.005 33.5474 148.464 32.2288 149.348 31.2113C150.232 30.1937 151.474 29.5552 152.815 29.428ZM133.882 37.5093H130.426V35.1628H133.882V37.5093ZM128.41 25.3704H145.192V27.717H128.41V25.3704ZM121.526 25.3704H124.983V27.717H121.526V25.3704ZM110.215 35.1628H126.997V37.5094H110.215V35.1628ZM90.337 42.2187C90.9823 40.357 92.1919 38.7428 93.7974 37.6005C95.4029 36.4582 97.3244 35.8447 99.2947 35.8453C101.265 35.846 103.186 36.4607 104.791 37.604C106.396 38.7473 107.604 40.3623 108.249 42.2244C109.033 42.3194 109.788 42.5806 110.463 42.9908C111.139 43.4009 111.719 43.9505 112.164 44.6028L112.18 44.6303L112.219 44.6847C112.71 45.4786 112.98 46.3891 113.002 47.3225C113.024 48.2558 112.797 49.1781 112.344 49.9943C111.891 50.8105 111.228 51.491 110.424 51.9656C109.62 52.4403 108.704 52.692 107.771 52.6947H90.8164C89.4685 52.6904 88.1739 52.1679 87.2007 51.2353C86.2276 50.3027 85.6503 49.0315 85.5887 47.685C85.527 46.3385 85.9857 45.0199 86.8696 44.0024C87.7535 42.9848 88.9951 42.3461 90.337 42.2187Z" fill="#70CBD7"/>
<path d="M103.671 86.0622V97.2386C103.892 97.2401 104.117 97.2429 104.339 97.245C104.869 97.2492 105.402 97.2558 105.939 97.2648C106.362 97.2711 106.784 97.2782 107.21 97.2873V88.269H121.81V98.1403C122.817 98.2363 123.836 98.3416 124.867 98.456V86.0622H103.671Z" fill="#BC2E28"/>
<path d="M123.713 76.9407L114.417 70.8797L105.246 77.5904L104.92 77.8283L104.746 77.9554L101.762 83.7163H127.486L123.713 76.9407ZM114.51 82.4608C113.894 82.4608 113.291 82.2781 112.778 81.9357C112.266 81.5933 111.866 81.1066 111.63 80.5372C111.394 79.9677 111.333 79.341 111.453 78.7365C111.573 78.1319 111.87 77.5765 112.306 77.1406C112.741 76.7047 113.297 76.4078 113.901 76.2874C114.506 76.1671 115.133 76.2288 115.702 76.4646C116.272 76.7004 116.758 77.0998 117.101 77.6123C117.443 78.1248 117.626 78.7274 117.626 79.3438C117.625 80.1701 117.297 80.9622 116.713 81.5466C116.128 82.1309 115.336 82.4597 114.51 82.4608Z" fill="#BC2E28"/>
<path d="M112.287 97.2891L117.054 97.2575L114.63 95.5011L112.287 97.2891Z" fill="#FFC226"/>
<path d="M119.464 96.1063V91.8133L116.578 94.0162L119.464 96.1063Z" fill="#FFC226"/>
<path d="M111.906 90.6149L114.233 92.2564L112.289 93.7558L109.557 91.8257V96.4232L117.169 90.6149H111.906Z" fill="#FFC226"/>
<path d="M186.971 93.6146C186.81 93.623 186.616 93.628 186.466 93.6294V94.1356C186.466 94.3525 186.38 94.5605 186.226 94.7138C186.073 94.8672 185.865 94.9533 185.648 94.9533C185.431 94.9533 185.223 94.8672 185.07 94.7138C184.917 94.5605 184.83 94.3525 184.83 94.1356V93.2917C184.668 93.2245 184.509 93.1476 184.356 93.0615C184.354 93.2778 184.267 93.4847 184.114 93.637C183.96 93.7892 183.752 93.8744 183.536 93.8739C183.32 93.8735 183.112 93.7874 182.959 93.6345C182.806 93.4816 182.72 93.2743 182.72 93.058V91.5002C182.686 91.4465 182.655 91.3929 182.624 91.3406H181.079L180.641 96.6983C182.799 96.5676 184.901 96.4914 186.931 96.4589L186.971 93.6146Z" fill="#FFC226"/>
<path d="M153.212 97.1996V97.1975C153.162 97.1881 153.188 97.1946 153.212 97.1996Z" fill="#FFC226"/>
<path d="M138.121 100.403V99.4766C137.321 99.3346 136.561 99.0218 135.894 98.5597C135.226 98.0976 134.665 97.497 134.251 96.7988C129.486 89.1462 137.84 67.1873 138.198 66.2566L139.384 63.1742L140.408 66.3138C145.743 82.6628 146.784 93.2306 144.123 97.243C143.176 98.3224 141.883 99.0399 140.466 99.2732V100.851C143.4 101.43 146.379 102.098 149.402 102.856C150.668 102.393 151.938 101.96 153.213 101.558V99.5931C153.189 99.5895 153.165 99.5853 153.213 99.5916C152.182 99.4364 151.2 99.0513 150.339 98.465C149.477 97.8786 148.759 97.1059 148.237 96.2042C142.302 86.4606 152.838 58.5587 153.29 57.3759L154.477 54.2631L155.502 57.4331C163.474 82.0901 162.401 92.1416 160.098 96.2324C159.563 97.2241 158.774 98.0561 157.813 98.6433C157.597 98.769 156.278 99.3635 155.559 99.646V100.849C161.826 99.0732 168.236 97.8488 174.717 97.1893C174.712 97.1624 174.705 97.1363 174.702 97.1081L174.145 90.3162C173.563 89.8661 173.093 89.288 172.77 88.6267C172.448 87.9654 172.282 87.2387 172.285 86.503V86.2586H172.187C171.687 86.258 171.208 86.0592 170.855 85.7057C170.501 85.3523 170.302 84.8731 170.302 84.3732V83.8514C170.301 83.5538 170.371 83.2604 170.506 82.9953C170.641 82.7302 170.837 82.501 171.078 82.3268L170.739 79.8686C169.99 80.1768 169.155 80.2025 168.388 79.9409C167.621 79.6793 166.976 79.1482 166.571 78.4464C166.5 78.3218 166.462 78.1807 166.462 78.0371C166.462 77.8935 166.5 77.7524 166.571 77.6279C166.975 76.9326 167.614 76.4052 168.374 76.1418C169.133 75.8783 169.962 75.8962 170.71 76.1923C170.345 75.6387 170.15 74.9903 170.15 74.3273C170.149 74.1104 170.235 73.9022 170.388 73.7485C170.541 73.5948 170.749 73.5082 170.966 73.5077C171.183 73.5072 171.391 73.5929 171.545 73.746C171.698 73.899 171.785 74.1068 171.785 74.3237V74.3273C171.786 74.7941 171.972 75.2417 172.302 75.5717C172.632 75.9018 173.08 76.0873 173.547 76.0878H175.122C175.589 76.0873 176.036 75.9017 176.366 75.5716C176.696 75.2416 176.882 74.7941 176.882 74.3273C176.882 74.1104 176.968 73.9022 177.121 73.7485C177.274 73.5949 177.481 73.5082 177.698 73.5078C177.915 73.5073 178.123 73.593 178.277 73.746C178.431 73.899 178.517 74.1068 178.518 74.3237V74.3273C178.517 74.9905 178.323 75.6392 177.958 76.193C178.705 75.8964 179.534 75.8781 180.294 76.1415C181.054 76.4049 181.694 76.9323 182.097 77.6279C182.169 77.7525 182.207 77.8937 182.207 78.0374C182.207 78.1811 182.17 78.3224 182.098 78.4471C181.912 78.7683 181.673 79.0564 181.393 79.2994H188.324C187.688 76.4894 186.769 73.7512 185.581 71.1269H174.743V68.7804H184.427C183.742 67.4861 182.992 66.2275 182.18 65.0095H166.989V62.6636H180.496C176.465 57.3983 171.268 53.1395 165.313 50.2216C159.359 47.3038 152.809 45.8064 146.177 45.8472C139.546 45.888 133.015 47.4658 127.097 50.4567C121.178 53.4475 116.034 57.77 112.068 63.0845H130.644V65.4311H110.427C109.877 66.2771 109.356 67.1428 108.863 68.0283H114.352L114.369 68.0446L125.48 75.2919L131.478 86.0623H127.213V98.7315C130.739 99.1672 134.386 99.7174 138.121 100.403ZM160.104 62.6636H163.561V65.0102H160.104V62.6636ZM123.929 59.4026H121.473V57.0561H123.929V59.4026ZM127.784 57.0567H144.584V59.4033H127.784V57.0567Z" fill="#FFC226"/>
<path d="M153.212 97.1996V97.1975C153.255 97.208 153.234 97.2043 153.212 97.1996Z" fill="#FFC226"/>
<path d="M188.614 93.1585L188.57 96.2232H189.103L189.153 92.8407C188.98 92.9588 188.8 93.065 188.614 93.1585Z" fill="white"/>
<path d="M114.511 80.3719C114.714 80.3718 114.913 80.3115 115.082 80.1985C115.251 80.0856 115.382 79.925 115.46 79.7372C115.538 79.5495 115.558 79.3428 115.519 79.1435C115.479 78.9441 115.381 78.761 115.237 78.6173C115.093 78.4736 114.91 78.3757 114.711 78.3361C114.512 78.2964 114.305 78.3167 114.117 78.3945C113.929 78.4722 113.769 78.6039 113.656 78.7728C113.543 78.9418 113.483 79.1405 113.483 79.3437C113.483 79.4788 113.509 79.6125 113.561 79.7372C113.612 79.862 113.688 79.9754 113.784 80.0709C113.879 80.1663 113.993 80.2421 114.117 80.2937C114.242 80.3454 114.376 80.3719 114.511 80.3719Z" fill="white"/>
<path d="M192.188 91.5426V90.7023C192.171 91.1238 192.148 91.5445 192.12 91.9642L192.188 91.5426Z" fill="white"/>
<path d="M172.233 78.7174C172.345 78.673 172.466 78.6546 172.586 78.6637C172.706 78.6728 172.823 78.7092 172.927 78.7699C173.031 78.8307 173.12 78.9144 173.187 79.0146C173.254 79.1148 173.298 79.2289 173.314 79.3484C173.33 79.4678 173.32 79.5894 173.282 79.704C173.245 79.8187 173.182 79.9233 173.098 80.01C173.014 80.0967 172.912 80.1632 172.798 80.2045C172.685 80.2458 172.564 80.2608 172.444 80.2484L172.681 81.9658H175.988L176.225 80.2484C176.198 80.2512 176.171 80.2526 176.144 80.2526C175.933 80.2518 175.732 80.1678 175.583 80.0189C175.435 79.87 175.352 79.6684 175.351 79.4581C175.351 79.2478 175.434 79.046 175.582 78.8968C175.73 78.7475 175.931 78.663 176.142 78.6616H176.143C176.243 78.6614 176.343 78.6803 176.436 78.7174L176.501 78.2457C176.509 78.186 176.506 78.1252 176.49 78.0668C176.475 78.0085 176.449 77.9537 176.412 77.9057C176.376 77.8576 176.33 77.8172 176.278 77.7867C176.226 77.7563 176.169 77.7364 176.109 77.7282L176.046 77.7239H172.623C172.557 77.7237 172.492 77.7376 172.432 77.7647C172.373 77.7918 172.319 77.8313 172.276 77.8807C172.233 77.9301 172.201 77.9882 172.182 78.0511C172.164 78.1139 172.159 78.1801 172.168 78.245L172.233 78.7174Z" fill="white"/>
<path d="M191.823 82.6577C191.76 82.5267 191.685 82.4019 191.598 82.2849C191.289 81.8596 190.884 81.5127 190.417 81.2722C190.278 81.2055 190.134 81.1491 189.987 81.1035C189.664 80.9977 189.327 80.9408 188.988 80.9347H188.661C180.601 80.9277 178.401 80.9185 177.785 80.9086L177.59 82.3266C177.831 82.5008 178.027 82.7299 178.162 82.9948C178.297 83.2598 178.367 83.5531 178.366 83.8505V84.373C178.366 84.8728 178.167 85.352 177.814 85.7055C177.46 86.0589 176.981 86.2578 176.481 86.2585H173.921V86.5028C173.921 87.3516 174.258 88.1656 174.858 88.7659C175.459 89.3661 176.272 89.7035 177.121 89.7038L177.157 89.7045C177.361 89.7043 177.559 89.7815 177.709 89.9207C177.86 90.0599 177.952 90.2508 177.968 90.4552L178.441 96.2231H179.039L179.511 90.4552C179.527 90.2502 179.619 90.0587 179.771 89.9194C179.922 89.7801 180.12 89.7033 180.326 89.7046H187.754C187.874 89.7042 187.992 89.7304 188.101 89.7812C188.209 89.8319 188.305 89.9061 188.382 89.9983C188.646 90.3135 188.97 90.5728 189.336 90.761C189.423 90.8061 189.512 90.8478 189.603 90.8846C189.728 90.9334 189.857 90.9739 189.988 91.006C190.039 91.0187 190.09 91.0336 190.14 91.0428C190.329 91.0791 190.499 91.1807 190.62 91.3297C190.741 91.4787 190.806 91.6656 190.803 91.8577L190.74 96.2232H191.433L192.12 91.9642C192.149 91.5447 192.172 91.1241 192.188 90.7023L192.188 84.1357C192.168 83.6234 192.044 83.1205 191.823 82.6577ZM190.281 84.945C190.243 84.951 190.204 84.954 190.166 84.9542C189.949 84.9538 189.741 84.8674 189.588 84.714C189.434 84.5605 189.348 84.3526 189.348 84.1357C189.344 84.0625 189.321 83.9916 189.282 83.9295C189.235 83.8639 189.167 83.8152 189.09 83.7904C189.057 83.7802 189.023 83.7749 188.988 83.7749H186.087C185.87 83.7749 185.662 83.6887 185.509 83.5354C185.355 83.382 185.269 83.174 185.269 82.9571C185.269 82.7402 185.355 82.5322 185.509 82.3789C185.662 82.2255 185.87 82.1394 186.087 82.1394H188.988C189.294 82.1382 189.597 82.2091 189.871 82.3463C189.907 82.3661 190.034 82.4367 190.136 82.5052C190.166 82.5248 190.194 82.5461 190.222 82.5687C190.26 82.6005 190.297 82.6342 190.332 82.6697L190.363 82.7015C190.387 82.7269 190.413 82.753 190.435 82.7792L190.466 82.8153C190.488 82.8407 190.51 82.8661 190.529 82.8915L190.555 82.9253L190.613 83.0009L190.637 83.0362L190.683 83.1033L190.705 83.1371L190.74 83.1915L190.757 83.2219L190.781 83.2614L190.804 83.3066V83.3073L190.805 83.3087C190.924 83.5681 190.985 83.8502 190.984 84.1356C190.984 84.3325 190.912 84.5227 190.783 84.6714C190.654 84.82 190.476 84.9172 190.281 84.945Z" fill="white"/>
<path d="M90.8167 50.7033H103.69C102.943 49.7747 102.536 48.6185 102.537 47.4267V46.9289H104.527V47.4267C104.527 48.0275 104.694 48.6166 105.009 49.1283C105.324 49.6399 105.775 50.054 106.311 50.3245C106.848 50.5949 107.449 50.711 108.047 50.6598C108.646 50.6086 109.218 50.3922 109.701 50.0346C110.184 49.677 110.558 49.1923 110.782 48.6346C111.005 48.0769 111.069 47.4681 110.967 46.8761C110.865 46.284 110.6 45.732 110.202 45.2816C109.805 44.8312 109.29 44.5001 108.715 44.3253C108.749 44.6516 108.765 44.9794 108.765 45.3075V45.8061H106.775V45.3075C106.775 43.5774 106.175 41.9009 105.078 40.5632C103.981 39.2255 102.454 38.3093 100.758 37.9705C99.0609 37.6318 97.2993 37.8914 95.7725 38.7052C94.2458 39.5191 93.0482 40.8368 92.3836 42.4341C93.4459 42.7689 94.374 43.4333 95.0334 44.331C95.6927 45.2286 96.0491 46.3129 96.0508 47.4267V47.9252H94.0601V47.4267C94.0536 46.7866 93.8578 46.1628 93.4974 45.6338C93.1371 45.1048 92.6283 44.6942 92.0351 44.4538C91.4418 44.2134 90.7907 44.1538 90.1637 44.2827C89.5367 44.4116 88.9619 44.7231 88.5116 45.178C88.0613 45.6329 87.7556 46.2109 87.6332 46.8391C87.5107 47.4674 87.5769 48.1179 87.8233 48.7086C88.0698 49.2993 88.4855 49.804 89.0182 50.1589C89.5508 50.5139 90.1766 50.7033 90.8167 50.7033Z" fill="white"/>
<path d="M153.295 37.9122H166.167C165.421 36.9833 165.014 35.8272 165.015 34.6356V34.137H167.006V34.6356C167.005 35.2364 167.172 35.8255 167.487 36.3371C167.802 36.8488 168.253 37.2629 168.789 37.5333C169.326 37.8038 169.927 37.9199 170.525 37.8687C171.124 37.8175 171.697 37.601 172.179 37.2434C172.662 36.8859 173.036 36.4012 173.26 35.8435C173.483 35.2858 173.547 34.677 173.445 34.085C173.343 33.4929 173.078 32.9409 172.681 32.4905C172.283 32.0401 171.768 31.709 171.193 31.5341C171.227 31.8604 171.244 32.1883 171.243 32.5164V33.015H169.253V32.5164C169.253 30.7864 168.653 29.1099 167.556 27.7722C166.459 26.4345 164.932 25.5184 163.236 25.1795C161.539 24.8407 159.778 25.1002 158.251 25.9139C156.724 26.7276 155.527 28.0451 154.862 29.6424C155.924 29.9774 156.852 30.6419 157.511 31.5397C158.171 32.4374 158.527 33.5218 158.529 34.6356V35.1342H156.538V34.6356C156.532 33.9956 156.336 33.3717 155.976 32.8427C155.615 32.3137 155.106 31.9031 154.513 31.6627C153.92 31.4223 153.269 31.3627 152.642 31.4916C152.015 31.6205 151.44 31.932 150.99 32.3869C150.539 32.8418 150.234 33.4198 150.111 34.0481C149.989 34.6763 150.055 35.3268 150.301 35.9175C150.548 36.5083 150.964 37.0129 151.496 37.3679C152.029 37.7228 152.655 37.9122 153.295 37.9122Z" fill="white"/>
<path d="M188.19 98.8449L188.194 98.8328H188.193L188.19 98.8449Z" fill="#2AAF4A"/>
<path d="M193.122 121.354C196.39 119.4 199.83 117.748 203.397 116.416C203.84 115.63 204.269 114.835 204.684 114.031C199.623 115.246 194.73 117.082 190.118 119.496C191.123 120.099 192.124 120.718 193.122 121.354Z" fill="#2AAF4A"/>
<path d="M176.799 96.2234L176.395 91.2845C176.214 91.2571 176.034 91.2194 175.858 91.1715L176.271 96.2234H176.799Z" fill="#2AAF4A"/>
<path d="M187.535 91.844C187.634 91.8098 187.73 91.7702 187.825 91.7253C187.673 91.6059 187.53 91.4774 187.394 91.3405H184.726C185.112 91.6575 185.573 91.8703 186.065 91.9584C186.557 92.0466 187.063 92.0072 187.535 91.844Z" fill="#2AAF4A"/>
<path d="M176.482 83.6015H172.188C172.122 83.6016 172.058 83.628 172.011 83.6748C171.964 83.7217 171.938 83.7852 171.938 83.8515V84.3733C171.938 84.4396 171.964 84.5032 172.011 84.5501C172.058 84.597 172.122 84.6233 172.188 84.6233H176.482C176.548 84.6231 176.612 84.5967 176.658 84.5499C176.705 84.503 176.731 84.4395 176.731 84.3733V83.8515C176.731 83.7853 176.705 83.7219 176.658 83.6751C176.612 83.6282 176.548 83.6018 176.482 83.6015Z" fill="#2AAF4A"/>
<path d="M178.13 77.9678C178.135 78.0172 178.139 78.0667 178.14 78.1161C178.458 78.3676 178.855 78.4979 179.26 78.4837C179.665 78.4694 180.052 78.3116 180.351 78.0384C180.05 77.7643 179.661 77.6067 179.254 77.5937C178.847 77.5808 178.448 77.7134 178.13 77.9678Z" fill="#2AAF4A"/>
<path d="M168.318 78.0377C168.617 78.3109 169.004 78.4687 169.409 78.483C169.814 78.4972 170.211 78.3669 170.529 78.1154C170.531 78.0659 170.534 78.0165 170.539 77.9671C170.221 77.7122 169.823 77.5793 169.416 77.5922C169.008 77.6051 168.619 77.7631 168.318 78.0377Z" fill="#2AAF4A"/>
<path d="M100.938 143.656C91.3348 127.504 80.7098 119.952 74.6001 116.687C80.9226 127.786 89.9921 137.073 100.938 143.656Z" fill="#2AAF4A"/>
<path d="M109.194 147.937C114.585 150.313 120.242 152.031 126.043 153.054C105.011 124.416 81.7562 115.392 72.545 112.812L72.6855 113.1C79.2006 115.682 96.6196 124.459 109.194 147.937Z" fill="#2AAF4A"/>
<path d="M133.029 153.944C134.973 154.098 136.937 154.176 138.922 154.178C142.58 154.178 146.233 153.908 149.851 153.37C130.272 130.917 111.958 119.857 97.0758 114.974C88.685 112.157 79.9704 110.419 71.1413 109.799L71.2281 109.995C79.8603 111.833 109.331 120.349 133.029 153.944Z" fill="#2AAF4A"/>
<path d="M198.023 124.63C198.853 123.527 199.653 122.401 200.422 121.251C199.122 122.051 197.817 122.905 196.718 123.725C197.154 124.023 197.589 124.324 198.023 124.63Z" fill="#2AAF4A"/>
<path d="M185.251 113.115C183.84 113.519 182.405 113.965 180.946 114.454C181.786 114.875 182.624 115.306 183.461 115.748C184.269 116.174 185.075 116.609 185.88 117.053C192.115 113.839 198.944 111.94 205.943 111.473C206.272 110.772 206.59 110.064 206.896 109.35C199.568 109.838 192.313 111.1 185.251 113.115Z" fill="#2AAF4A"/>
<path d="M179.787 120.164C178.924 119.672 178.062 119.19 177.2 118.719C176.485 118.327 175.771 117.944 175.056 117.567C155.118 106.916 133.063 100.824 110.484 99.7334C109.773 99.7058 109.068 99.6825 108.369 99.6635C107.981 99.6522 107.595 99.6423 107.211 99.6338C107.045 99.6303 106.88 99.627 106.715 99.6239C106.098 99.6112 105.487 99.6013 104.88 99.5942C103.884 99.5829 102.9 99.5787 101.93 99.5815C90.6823 99.5734 79.4542 100.515 68.3652 102.398L68.3745 102.426L68.3977 102.5L68.4239 102.58C68.5291 102.563 68.6371 102.546 68.748 102.528C79.6253 100.587 90.719 100.161 101.713 101.264C101.936 101.286 102.162 101.31 102.387 101.333C103.392 101.437 104.424 101.556 105.483 101.689C106.195 101.779 106.919 101.876 107.654 101.98C128.64 105.203 148.878 112.165 167.405 122.535C168.453 123.106 169.507 123.691 170.567 124.291C171.478 124.808 172.392 125.334 173.311 125.872C178.157 128.711 183.107 131.872 188.16 135.355C190.265 133.474 192.261 131.475 194.138 129.367C189.516 126.055 184.726 122.983 179.787 120.164Z" fill="#2AAF4A"/>
<path d="M197.385 104.398C194.648 104.447 191.918 104.708 189.221 105.18C188.13 105.363 187.01 105.579 185.854 105.827C185.549 105.892 185.242 105.959 184.933 106.029C180.837 106.95 176.287 108.258 171.027 109.945C172.583 110.584 174.138 111.254 175.693 111.955C177.922 111.16 180.161 110.496 182.369 109.939C182.923 109.8 183.474 109.667 184.023 109.542C185.248 109.26 186.458 109.01 187.652 108.792C194.286 107.589 201.026 107.067 207.767 107.237C208.097 106.397 208.413 105.551 208.713 104.697C206.063 104.524 202.043 104.34 197.385 104.398Z" fill="#2AAF4A"/>
<path d="M152.137 134.226C151.011 133.344 149.893 132.49 148.784 131.662C146.581 130.016 144.412 128.472 142.277 127.029C133.559 121.002 124.131 116.077 114.205 112.364C112.638 111.794 111.101 111.277 109.595 110.813C108.267 110.402 106.964 110.03 105.686 109.696C103.715 109.18 101.804 108.747 99.9516 108.396C90.1023 106.444 80.012 106.013 70.0323 107.12C70.069 107.214 70.1056 107.31 70.1438 107.405C79.5205 107.94 88.7838 109.725 97.6876 112.713C102.302 114.224 106.823 116.008 111.227 118.054C114.124 119.398 116.976 120.855 119.786 122.426C122.084 123.714 124.349 125.075 126.58 126.512C127.257 126.948 127.931 127.391 128.601 127.841C131.239 129.612 133.824 131.487 136.354 133.467C143.485 139.065 150.063 145.334 155.998 152.186C160.168 151.197 164.242 149.844 168.175 148.143C162.658 142.89 157.308 138.275 152.137 134.226Z" fill="#2AAF4A"/>
<path d="M192.333 98.826C191.938 98.8183 191.538 98.8133 191.136 98.8098C190.173 98.8027 189.192 98.8102 188.194 98.8328L188.19 98.8449L188.193 98.8328C177.283 99.1533 166.486 101.137 156.174 104.714C158.893 105.523 161.627 106.415 164.376 107.393C171.619 105.034 179.091 103.451 186.669 102.67C186.811 102.655 186.952 102.641 187.094 102.627C188.151 102.519 189.185 102.428 190.196 102.353C196.599 101.857 203.033 101.929 209.423 102.571C209.665 101.809 209.895 101.042 210.113 100.269C204.222 99.4225 198.284 98.9404 192.333 98.826Z" fill="#2AAF4A"/>
<path d="M150.208 90.1637L152.213 88.9434L153.152 90.4871L153.213 90.4045V84.5313L151.117 80.8077L152.639 79.8791L153.213 80.9511V76.8878H155.56V87.2613L157.029 85.2933L158.91 86.6964L155.56 91.1848V96.9689C156.018 96.8189 156.46 96.625 156.88 96.3898L156.854 96.4025L156.819 96.4188L156.882 96.3884L156.88 96.3891C157.449 96.0253 157.896 95.4995 158.163 94.8794C159.667 91.9594 161.141 83.751 154.321 61.492C151.934 68.5402 145.976 87.983 150.242 94.9853C150.558 95.539 150.985 96.0214 151.496 96.4023C152.008 96.7831 152.592 97.0542 153.213 97.1984V95.1025L150.208 90.1637Z" fill="#2AAF4A"/>
<path d="M138.121 94.4342L135.548 90.1569L137.56 88.9473L138.121 89.8801V80.3851H140.468V86.3613L141.237 85.4299L142.916 86.7046L140.468 89.9317V97.0004C140.775 96.9118 141.078 96.8064 141.374 96.6847C141.722 96.47 142.019 96.1814 142.243 95.8394C143.276 94.4589 145.017 89.2241 139.233 70.3697C137.06 76.8445 133.087 90.4896 136.243 95.5592C136.664 96.2727 137.332 96.8066 138.121 97.0591V94.4342Z" fill="#2AAF4A"/>
<path d="M168.1 129.153C167.127 128.559 166.161 127.977 165.201 127.408C163.866 126.615 162.543 125.846 161.234 125.1C140.519 113.29 123.035 107.161 108.933 104.64C108.066 104.484 107.212 104.342 106.37 104.214C105.277 104.047 104.206 103.903 103.157 103.78C102.629 103.719 102.105 103.661 101.589 103.609C90.7989 102.466 79.9028 102.825 69.2116 104.674L69.129 104.691L69.1969 104.882C79.5638 103.721 90.0462 104.122 100.294 106.072C101.607 106.322 102.968 106.606 104.377 106.925C105.536 107.189 106.725 107.478 107.945 107.794C109.078 108.088 110.235 108.405 111.416 108.747C125.316 112.863 138.503 119.086 150.516 127.199C152.203 128.323 153.902 129.503 155.613 130.739C156.605 131.456 157.6 132.194 158.6 132.951C163.788 136.89 168.756 141.11 173.483 145.593C176.982 143.733 180.326 141.596 183.484 139.202C178.185 135.519 173.057 132.17 168.1 129.153Z" fill="#2AAF4A"/>
<path d="M69.1281 104.689C69.0546 104.699 68.9742 104.709 69.1105 104.693L69.1281 104.689Z" fill="#3B1F14"/>
<path d="M69.131 104.69H69.129L69.1296 104.691L69.1469 104.688L69.131 104.69Z" fill="#3B1F14"/>
<path d="M68.3607 102.383L68.3649 102.398C68.3671 102.124 68.3649 102.254 68.3607 102.383Z" fill="#3B1F14"/>
<path d="M69.1401 104.699H69.1374V104.701H69.1401V104.699Z" fill="#3B1F14"/>
<path d="M114.344 68.0282L114.368 68.0456L114.352 68.0282H114.344Z" fill="#3B1F14"/>
<path d="M69.1479 104.688L69.1925 104.678L69.1339 104.689L69.1479 104.688Z" fill="#3B1F14"/>
<path d="M68.3649 102.398L68.3607 102.383L68.3594 102.423L68.3741 102.426L68.3649 102.398Z" fill="#3B1F14"/>
<path d="M68.4919 104.781L68.4946 104.787L68.5058 104.779L68.4919 104.781Z" fill="#3B1F14"/>
<path d="M69.1637 104.685C69.2096 104.679 69.2264 104.677 69.129 104.69C69.2307 104.677 69.211 104.679 69.1637 104.685Z" fill="#3B1F14"/>
<path d="M156.855 96.4013L156.82 96.4171L156.82 96.4178L156.855 96.4013Z" fill="#3B1F14"/>
<path d="M192.231 88.7873C192.231 88.1461 192.215 87.5078 192.188 86.8715V90.7032C192.215 90.0669 192.231 89.4278 192.231 88.7873Z" fill="#3B1F14"/>
<path d="M163.561 62.6634H160.105V65.01H163.561V62.6634Z" fill="#3B1F14"/>
<path d="M190.805 83.3092V83.3085L190.804 83.3071L190.792 83.2837L190.78 83.2618L190.758 83.2222L190.74 83.1919L190.706 83.1375L190.684 83.1037L190.637 83.0366L190.613 83.0013L190.556 82.9264L190.53 82.8918C190.51 82.8664 190.488 82.841 190.466 82.8155L190.436 82.7795L190.363 82.7018L190.333 82.67C190.297 82.6347 190.261 82.6008 190.222 82.569C190.195 82.5463 190.166 82.5251 190.136 82.5055C190.035 82.437 189.908 82.3664 189.872 82.3466C189.597 82.2094 189.295 82.1385 188.988 82.1397H186.087C185.87 82.1397 185.662 82.2258 185.509 82.3792C185.356 82.5325 185.27 82.7405 185.27 82.9574C185.27 83.1743 185.356 83.3823 185.509 83.5356C185.662 83.689 185.87 83.7751 186.087 83.7751H188.988C189.023 83.7753 189.057 83.7806 189.091 83.7907C189.168 83.8157 189.235 83.8644 189.283 83.9298C189.322 83.9919 189.344 84.0628 189.348 84.136C189.349 84.3529 189.435 84.5608 189.588 84.7143C189.741 84.8677 189.949 84.9541 190.166 84.9545C190.205 84.9539 190.243 84.9509 190.281 84.9453C190.476 84.9176 190.654 84.8205 190.783 84.6718C190.912 84.5232 190.984 84.3329 190.984 84.136C190.984 83.8508 190.924 83.5687 190.805 83.3092Z" fill="#3B1F14"/>
<path d="M114.511 76.2275C113.895 76.2274 113.292 76.4101 112.78 76.7525C112.267 77.0949 111.868 77.5816 111.632 78.1511C111.396 78.7206 111.334 79.3472 111.454 79.9518C111.574 80.5564 111.871 81.1117 112.307 81.5477C112.743 81.9836 113.298 82.2805 113.903 82.4008C114.507 82.5211 115.134 82.4595 115.703 82.2237C116.273 81.9878 116.76 81.5884 117.102 81.0759C117.445 80.5634 117.627 79.9609 117.627 79.3445V79.3438C117.626 78.5176 117.298 77.7256 116.714 77.1414C116.129 76.5572 115.337 76.2285 114.511 76.2275ZM113.483 79.3438C113.483 79.1404 113.543 78.9416 113.656 78.7726C113.769 78.6035 113.93 78.4717 114.118 78.3939C114.306 78.3161 114.512 78.2957 114.712 78.3354C114.911 78.375 115.094 78.473 115.238 78.6168C115.382 78.7606 115.48 78.9437 115.52 79.1432C115.559 79.3426 115.539 79.5494 115.461 79.7372C115.383 79.9251 115.252 80.0857 115.082 80.1987C114.913 80.3117 114.715 80.372 114.511 80.372C114.239 80.3718 113.977 80.2635 113.784 80.0707C113.592 79.8779 113.483 79.6164 113.483 79.3438Z" fill="#3B1F14"/>
<path d="M204.178 53.0901H187.379V55.4367H204.178V53.0901Z" fill="#3B1F14"/>
<path d="M183.524 53.0901H181.067V55.4367H183.524V53.0901Z" fill="#3B1F14"/>
<path d="M145.193 25.3699H128.411V27.7165H145.193V25.3699Z" fill="#3B1F14"/>
<path d="M124.984 25.3699H121.527V27.7165H124.984V25.3699Z" fill="#3B1F14"/>
<path d="M126.998 35.1621H110.216V37.5087H126.998V35.1621Z" fill="#3B1F14"/>
<path d="M133.883 35.1614H130.426V37.5079H133.883V35.1614Z" fill="#3B1F14"/>
<path d="M144.584 57.0568H127.785V59.4034H144.584V57.0568Z" fill="#3B1F14"/>
<path d="M123.93 57.0561H121.473V59.4027H123.93V57.0561Z" fill="#3B1F14"/>
<path d="M112.22 44.6847L112.18 44.6303L112.165 44.6028C111.719 43.9505 111.139 43.4008 110.464 42.9906C109.788 42.5803 109.033 42.3189 108.249 42.2237C107.607 40.3594 106.399 38.7419 104.794 37.5968C103.189 36.4516 101.267 35.8358 99.2949 35.8353C97.3232 35.8347 95.4004 36.4494 93.7947 37.5937C92.1889 38.738 90.9803 40.3548 90.3373 42.2188C88.9954 42.3461 87.754 42.9848 86.8701 44.0024C85.9862 45.0199 85.5275 46.3385 85.5891 47.685C85.6507 49.0315 86.2279 50.3027 87.201 51.2353C88.1742 52.1679 89.4688 52.6904 90.8167 52.6947H107.771C108.705 52.6918 109.62 52.4401 110.424 51.9654C111.228 51.4907 111.891 50.8102 112.344 49.9941C112.797 49.178 113.025 48.2558 113.003 47.3225C112.981 46.3892 112.711 45.4787 112.22 44.6847ZM107.771 50.6715C106.911 50.6706 106.087 50.3286 105.479 49.7206C104.871 49.1125 104.528 48.288 104.528 47.4281V46.9295H102.537V47.4281C102.537 48.6198 102.943 49.7759 103.69 50.7047H90.8167C90.1731 50.7071 89.5432 50.5188 89.0066 50.1634C88.47 49.8081 88.0508 49.3017 87.8019 48.7082C87.553 48.1147 87.4854 47.4607 87.608 46.8289C87.7305 46.1971 88.0376 45.6157 88.4904 45.1583C88.9432 44.7009 89.5213 44.388 90.1519 44.259C90.7824 44.13 91.437 44.1908 92.033 44.4337C92.629 44.6766 93.1398 45.0907 93.5006 45.6236C93.8614 46.1566 94.056 46.7845 94.0601 47.4281V47.9266H96.0508V47.4281C96.0491 46.3142 95.6929 45.2298 95.0335 44.3321C94.3742 43.4343 93.4461 42.7698 92.3838 42.4348C93.0486 40.8376 94.2462 39.5201 95.773 38.7064C97.2997 37.8927 99.0613 37.6332 100.758 37.972C102.454 38.3108 103.981 39.227 105.078 40.5647C106.175 41.9023 106.775 43.5788 106.775 45.3089V45.8075H108.766V45.3089C108.766 44.9808 108.749 44.6529 108.715 44.3266C109.459 44.5527 110.097 45.0386 110.512 45.6957C110.928 46.3527 111.094 47.1372 110.979 47.9062C110.865 48.6752 110.478 49.3775 109.889 49.885C109.3 50.3926 108.548 50.6717 107.771 50.6715Z" fill="#3B1F14"/>
<path d="M174.698 31.893L174.658 31.8387L174.643 31.8111C174.197 31.1588 173.617 30.6092 172.942 30.1989C172.267 29.7887 171.512 29.5272 170.728 29.4321C170.086 27.5677 168.878 25.9502 167.273 24.805C165.668 23.6598 163.746 23.044 161.774 23.0434C159.802 23.0429 157.879 23.6577 156.274 24.802C154.668 25.9463 153.459 27.5632 152.816 29.4272C151.474 29.5542 150.232 30.1926 149.348 31.2102C148.464 32.2277 148.005 33.5465 148.067 34.8931C148.128 36.2398 148.705 37.5111 149.679 38.4438C150.652 39.3765 151.947 39.899 153.295 39.9031H170.249C171.183 39.9002 172.099 39.6485 172.902 39.1738C173.706 38.6991 174.369 38.0187 174.822 37.2026C175.276 36.3864 175.503 35.4642 175.481 34.5309C175.459 33.5977 175.189 32.687 174.698 31.893ZM167.006 34.6364V34.1379H165.016V34.6364C165.015 35.8281 165.422 36.9842 166.168 37.913H153.295C152.651 37.9153 152.022 37.7269 151.485 37.3714C150.949 37.016 150.529 36.5095 150.28 35.916C150.032 35.3225 149.964 34.6686 150.087 34.0368C150.21 33.405 150.517 32.8238 150.97 32.3664C151.422 31.9091 152 31.5962 152.631 31.4673C153.262 31.3384 153.916 31.3992 154.512 31.6421C155.108 31.885 155.619 32.2991 155.979 32.832C156.34 33.365 156.535 33.9929 156.539 34.6364V35.135H158.529V34.6364C158.527 33.5227 158.171 32.4384 157.512 31.5406C156.853 30.6428 155.925 29.9783 154.863 29.6432C155.527 28.0459 156.725 26.7284 158.252 25.9147C159.779 25.1011 161.54 24.8416 163.237 25.1804C164.933 25.5192 166.46 26.4354 167.557 27.773C168.654 29.1107 169.254 30.7872 169.254 32.5172V33.0158H171.244V32.5172C171.244 32.1891 171.227 31.8613 171.193 31.535C171.768 31.7099 172.282 32.0411 172.68 32.4914C173.077 32.9417 173.342 33.4936 173.444 34.0855C173.546 34.6773 173.482 35.2859 173.259 35.8434C173.035 36.4009 172.661 36.8854 172.178 37.2429C171.696 37.6004 171.123 37.8168 170.525 37.868C169.927 37.9192 169.326 37.8032 168.789 37.5329C168.253 37.2627 167.802 36.8487 167.487 36.3373C167.172 35.8259 167.006 35.2371 167.006 34.6364Z" fill="#3B1F14"/>
<path d="M138.922 0.936249C123.24 0.936186 107.91 5.58634 94.8714 14.2987C81.8324 23.011 71.6697 35.3942 65.6684 49.8823C59.6672 64.3704 58.097 80.3128 61.1563 95.6933C64.2156 111.074 71.767 125.202 82.8557 136.291C93.9445 147.379 108.072 154.931 123.453 157.99C138.833 161.05 154.776 159.48 169.264 153.479C183.752 147.478 196.135 137.315 204.848 124.276C213.56 111.237 218.211 95.9073 218.211 80.2255V80.2248C218.187 59.2035 209.826 39.0499 194.961 24.1856C180.097 9.32125 159.943 0.960036 138.922 0.936249ZM74.5998 116.687C80.7095 119.951 91.3345 127.504 100.938 143.656C89.9921 137.072 80.9225 127.785 74.5998 116.687ZM109.194 147.937C96.6202 124.459 79.2006 115.682 72.6862 113.099C72.6389 113.004 72.5923 112.908 72.545 112.813C81.7562 115.392 105.011 124.416 126.044 153.054C120.242 152.031 114.585 150.313 109.194 147.937ZM138.922 154.178C136.938 154.178 134.974 154.1 133.029 153.944C109.331 120.349 79.8608 111.833 71.2287 109.995L71.1417 109.799C79.9708 110.419 88.6854 112.157 97.0763 114.974C111.958 119.857 130.272 130.917 149.851 153.37C146.233 153.908 142.58 154.178 138.922 154.178ZM155.998 152.186C150.063 145.334 143.484 139.065 136.354 133.467C133.824 131.488 131.24 129.613 128.601 127.841C127.931 127.391 127.257 126.948 126.58 126.512C124.35 125.075 122.085 123.714 119.785 122.426C116.979 120.855 114.126 119.398 111.226 118.054C106.823 116.008 102.302 114.224 97.6871 112.713C88.7834 109.725 79.5204 107.94 70.144 107.405C70.1058 107.31 70.0691 107.214 70.0317 107.119C80.0117 106.013 90.1023 106.444 99.9518 108.396C101.803 108.749 103.714 109.183 105.685 109.696C106.964 110.032 108.267 110.404 109.595 110.813C111.101 111.278 112.637 111.795 114.205 112.364C124.131 116.077 133.559 121.003 142.277 127.029C144.411 128.474 146.58 130.019 148.784 131.662C149.893 132.491 151.01 133.346 152.136 134.226C157.308 138.275 162.658 142.89 168.175 148.143C164.242 149.844 160.168 151.197 155.998 152.186ZM183.467 139.215C180.314 141.603 176.976 143.736 173.483 145.592C168.756 141.11 163.788 136.89 158.6 132.951C157.601 132.194 156.605 131.457 155.612 130.739C153.902 129.502 152.204 128.322 150.516 127.198C138.502 119.086 125.315 112.863 111.415 108.747C110.235 108.404 109.078 108.086 107.945 107.794C106.726 107.478 105.536 107.188 104.376 106.926C102.97 106.606 101.608 106.321 100.293 106.072C90.0454 104.122 79.5634 103.721 69.197 104.882L69.1292 104.692L69.129 104.69L69.1296 104.691L69.1348 104.69C79.8508 102.832 90.7726 102.468 101.589 103.609C102.105 103.661 102.629 103.719 103.157 103.781C104.206 103.904 105.277 104.048 106.369 104.214C107.211 104.342 108.065 104.484 108.933 104.64C123.034 107.161 140.519 113.29 161.234 125.1C162.543 125.847 163.865 126.616 165.2 127.408C166.161 127.978 167.127 128.559 168.1 129.153C173.056 132.177 178.184 135.527 183.484 139.202L183.467 139.215ZM188.16 135.356C183.113 131.861 178.164 128.7 173.311 125.873C172.392 125.334 171.477 124.808 170.567 124.292C169.507 123.692 168.453 123.106 167.405 122.535C148.878 112.165 128.64 105.203 107.654 101.981C106.919 101.876 106.195 101.779 105.484 101.689C104.425 101.555 103.392 101.437 102.387 101.333C102.162 101.31 101.936 101.286 101.714 101.264C90.7196 100.162 79.626 100.587 68.7486 102.528L68.4239 102.58L68.3977 102.5L68.3741 102.426L68.3594 102.423L68.361 102.384L68.3649 102.398C79.4539 100.515 90.6823 99.5733 101.93 99.5814C102.9 99.5786 103.883 99.5831 104.88 99.5948C105.487 99.6012 106.098 99.6109 106.715 99.6238C106.881 99.6273 107.045 99.6302 107.211 99.6337C107.595 99.6429 107.981 99.6521 108.369 99.6634C109.068 99.6832 109.774 99.7064 110.484 99.7333C133.063 100.824 155.118 106.916 175.056 117.567C175.771 117.944 176.485 118.327 177.2 118.718C178.062 119.19 178.924 119.672 179.787 120.164C184.726 122.983 189.516 126.055 194.138 129.368C192.26 131.475 190.264 133.474 188.16 135.356ZM112.069 63.0848C116.035 57.7704 121.179 53.4479 127.098 50.457C133.016 47.4661 139.547 45.8883 146.178 45.8475C152.809 45.8068 159.36 47.3041 165.314 50.222C171.269 53.1398 176.466 57.3987 180.497 62.664H166.989V65.0098H182.181C182.993 66.2276 183.743 67.4862 184.427 68.7807H174.743V71.1266H185.582C186.77 73.751 187.689 76.4892 188.324 79.299H181.393C181.674 79.0564 181.912 78.7686 182.098 78.4474C182.17 78.3227 182.207 78.1813 182.207 78.0374C182.207 77.8935 182.169 77.7522 182.097 77.6276C181.694 76.932 181.054 76.4045 180.295 76.1411C179.535 75.8777 178.706 75.896 177.959 76.1926C178.324 75.6391 178.518 74.9907 178.519 74.3276C178.519 74.1107 178.434 73.9022 178.281 73.7482C178.128 73.5942 177.921 73.5071 177.704 73.5063C177.487 73.5054 177.278 73.5908 177.124 73.7436C176.97 73.8964 176.883 74.1041 176.882 74.3211V74.3276C176.882 74.7943 176.696 75.2418 176.366 75.5718C176.036 75.9018 175.589 76.0875 175.122 76.0881H173.546C173.08 76.0874 172.632 75.9017 172.302 75.5717C171.972 75.2417 171.787 74.7943 171.786 74.3276C171.787 74.1107 171.701 73.9025 171.548 73.7488C171.395 73.5951 171.187 73.5085 170.97 73.508C170.753 73.5076 170.545 73.5933 170.391 73.7463C170.238 73.8993 170.151 74.1071 170.151 74.324V74.3276C170.151 74.9906 170.345 75.6389 170.71 76.1926C169.962 75.8959 169.133 75.8777 168.373 76.1412C167.614 76.4047 166.974 76.9324 166.571 77.6282C166.499 77.7527 166.462 77.8938 166.462 78.0374C166.462 78.181 166.499 78.3221 166.571 78.4467C166.976 79.1481 167.622 79.6788 168.388 79.9404C169.155 80.2019 169.991 80.1765 170.74 79.8689L171.079 82.3263C170.838 82.5005 170.642 82.7297 170.506 82.9948C170.371 83.2599 170.301 83.5534 170.302 83.8509V84.3728C170.303 84.8728 170.501 85.3522 170.855 85.7058C171.208 86.0594 171.688 86.2584 172.188 86.2589H172.285V86.5025C172.282 87.2384 172.448 87.9651 172.77 88.6264C173.093 89.2877 173.564 89.8658 174.146 90.3158L174.702 97.1084C174.706 97.1355 174.711 97.1624 174.717 97.1889C168.237 97.8487 161.826 99.0731 155.559 100.848V99.6464C156.279 99.3633 157.597 98.7693 157.813 98.6437C158.774 98.0563 159.563 97.2243 160.097 96.2328C162.402 92.1421 163.474 82.0898 155.502 57.4335L154.478 54.2635L153.29 57.3763C152.838 58.5591 142.302 86.461 148.238 96.2046C148.76 97.1062 149.478 97.8787 150.339 98.465C151.201 99.0512 152.183 99.4362 153.213 99.5913C153.164 99.5849 153.189 99.5891 153.213 99.5927V101.558C151.938 101.96 150.668 102.393 149.403 102.856C146.384 102.095 143.405 101.426 140.467 100.85V99.2735C141.884 99.0395 143.176 98.3221 144.123 97.2433C146.785 93.2309 145.743 82.6632 140.409 66.3141L139.384 63.1745L138.199 66.2569C137.841 67.1876 129.486 89.1457 134.251 96.7991C134.666 97.4972 135.226 98.0976 135.894 98.5597C136.562 99.0218 137.321 99.3346 138.12 99.4769V100.403C134.385 99.717 130.74 99.1676 127.214 98.7319V86.0619H131.479L125.48 75.2923L114.37 68.0449L114.343 68.028H108.864C109.356 67.1424 109.877 66.2767 110.428 65.4307H130.644V63.0848H112.069ZM192.231 88.7873C192.231 89.4278 192.214 90.0662 192.188 90.7032L192.188 91.5432L191.433 96.2237H190.74L190.803 91.8582C190.806 91.6662 190.741 91.4793 190.62 91.3303C190.499 91.1813 190.329 91.0797 190.141 91.0433C190.09 91.0334 190.039 91.0192 189.988 91.0065C189.857 90.9744 189.729 90.9338 189.603 90.8851C189.511 90.8483 189.423 90.8067 189.336 90.7615C188.97 90.5728 188.646 90.3133 188.382 89.9981C188.306 89.9061 188.21 89.8321 188.101 89.7814C187.993 89.7306 187.874 89.7043 187.755 89.7043H180.326C180.121 89.7032 179.922 89.7801 179.771 89.9195C179.62 90.0589 179.527 90.2506 179.511 90.4557L179.039 96.2236H178.441L177.968 90.455C177.952 90.2506 177.86 90.0599 177.709 89.9208C177.559 89.7816 177.361 89.7044 177.157 89.7043H177.122C176.273 89.704 175.459 89.3665 174.859 88.7661C174.259 88.1657 173.922 87.3515 173.922 86.5026V86.2589H176.482C176.982 86.2583 177.461 86.0593 177.815 85.7057C178.168 85.3521 178.367 84.8727 178.367 84.3728V83.851C178.368 83.5534 178.298 83.2599 178.163 82.9948C178.028 82.7297 177.831 82.5006 177.59 82.3263L177.786 80.9091C178.401 80.919 180.601 80.9282 188.661 80.9345C188.769 80.9352 188.877 80.9352 188.988 80.9352C189.327 80.941 189.665 80.9978 189.987 81.104C190.135 81.1494 190.278 81.2056 190.417 81.272C190.884 81.5133 191.289 81.8603 191.599 82.2854C191.685 82.4024 191.76 82.5273 191.823 82.6582C192.044 83.121 192.169 83.6239 192.189 84.1362L192.188 86.8715C192.214 87.5078 192.231 88.1461 192.231 88.7873ZM189.153 92.8419L189.104 96.2237H188.571L188.615 93.1597C188.801 93.0658 188.981 92.9597 189.153 92.8419ZM183.538 93.8757C183.754 93.8755 183.962 93.7898 184.115 93.6373C184.268 93.4847 184.355 93.2777 184.356 93.0615C184.51 93.1474 184.668 93.2245 184.83 93.2924V94.1356C184.832 94.3518 184.918 94.5588 185.072 94.7113C185.225 94.8638 185.432 94.9494 185.648 94.9494C185.865 94.9494 186.072 94.8638 186.226 94.7113C186.379 94.5588 186.465 94.3518 186.467 94.1356V93.6293C186.616 93.6286 186.81 93.6237 186.972 93.6145L186.931 96.4589C184.901 96.4921 182.799 96.5676 180.641 96.699L181.08 91.3406H182.625C182.655 91.3936 182.687 91.4473 182.72 91.5002V93.0579C182.721 93.2747 182.807 93.4825 182.96 93.6358C183.114 93.7891 183.321 93.8755 183.538 93.8757ZM186.58 92.0043C185.903 92.0048 185.248 91.7701 184.726 91.3405H187.394C187.529 91.4772 187.673 91.6058 187.824 91.7254C187.729 91.7699 187.633 91.8094 187.535 91.844C187.228 91.9507 186.905 92.0048 186.58 92.0043ZM176.799 96.2236H176.271L175.858 91.1718C176.034 91.2195 176.214 91.2572 176.394 91.2848L176.799 96.2236ZM176.144 80.2532C176.171 80.2532 176.198 80.2518 176.225 80.249L175.988 81.9657H172.681L172.444 80.249C172.471 80.2518 172.499 80.2532 172.526 80.2532C172.643 80.2529 172.758 80.2268 172.864 80.1768C172.97 80.1268 173.063 80.0541 173.137 79.9639C173.212 79.8737 173.265 79.7682 173.294 79.6549C173.323 79.5417 173.327 79.4234 173.305 79.3086C173.283 79.1937 173.236 79.0851 173.168 78.9905C173.099 78.8959 173.01 78.8175 172.908 78.7611C172.806 78.7046 172.692 78.6714 172.575 78.6639C172.459 78.6563 172.342 78.6745 172.233 78.7173L172.168 78.2456C172.151 78.125 172.183 78.0027 172.257 77.9056C172.33 77.8086 172.439 77.7447 172.56 77.7281L172.623 77.7237H176.046C176.168 77.7238 176.285 77.7722 176.371 77.8584C176.457 77.9445 176.505 78.0613 176.505 78.1831L176.501 78.2456L176.436 78.7173C176.327 78.6741 176.21 78.6556 176.093 78.6629C175.976 78.6703 175.862 78.7034 175.759 78.7598C175.657 78.8163 175.568 78.8948 175.499 78.9896C175.43 79.0844 175.383 79.1933 175.361 79.3085C175.339 79.4236 175.343 79.5422 175.372 79.6557C175.401 79.7692 175.455 79.8748 175.53 79.9651C175.605 80.0553 175.698 80.128 175.805 80.1778C175.911 80.2276 176.026 80.2533 176.144 80.2532ZM172.188 83.6011H176.482C176.548 83.6014 176.611 83.6279 176.658 83.6747C176.705 83.7215 176.731 83.785 176.731 83.8511V84.373C176.731 84.4391 176.705 84.5026 176.658 84.5495C176.611 84.5964 176.548 84.6228 176.482 84.6229H172.188C172.121 84.6229 172.058 84.5966 172.011 84.5497C171.964 84.5028 171.938 84.4393 171.938 84.373V83.8511C171.938 83.7849 171.964 83.7213 172.011 83.6745C172.058 83.6276 172.121 83.6013 172.188 83.6011ZM178.13 77.9674C178.448 77.7129 178.846 77.5803 179.253 77.5932C179.661 77.6061 180.05 77.7639 180.351 78.038C180.052 78.3111 179.665 78.4688 179.26 78.4832C178.855 78.4975 178.458 78.3675 178.14 78.1164C178.139 78.0669 178.135 78.0168 178.13 77.9674ZM170.539 77.9674C170.533 78.0168 170.53 78.0662 170.528 78.1157C170.211 78.3672 169.814 78.4975 169.409 78.4832C169.004 78.469 168.617 78.3112 168.318 78.038C168.619 77.7639 169.008 77.6062 169.415 77.5932C169.822 77.5803 170.221 77.713 170.539 77.9674ZM150.242 94.9845C145.975 87.9814 151.933 68.5394 154.321 61.4905C161.14 83.7501 159.667 91.9585 158.163 94.8785C157.896 95.4988 157.449 96.0247 156.88 96.3883L156.881 96.3876L156.82 96.4178L156.854 96.4017L156.88 96.3883C156.459 96.6242 156.017 96.8184 155.559 96.968V91.183L158.91 86.6947L157.029 85.2915L155.559 87.2603V76.8867H153.213V80.9501L152.639 79.8781L151.117 80.806L153.213 84.5296V90.4035L153.152 90.4854L152.213 88.9424L150.208 90.1627L153.213 95.1016V97.1974C153.259 97.2087 153.237 97.2045 153.213 97.1996C153.189 97.1939 153.164 97.1883 153.213 97.1974C152.592 97.0533 152.007 96.7823 151.496 96.4014C150.985 96.0206 150.558 95.5382 150.242 94.9845ZM138.12 94.4335V97.0583C137.332 96.8063 136.664 96.2726 136.243 95.5591C133.086 90.4889 137.059 76.8437 139.233 70.369C145.016 89.2242 143.275 94.4583 142.244 95.8387C142.019 96.1807 141.722 96.4693 141.374 96.684C141.077 96.8057 140.775 96.911 140.467 96.9997V89.931L142.915 86.7038L141.236 85.4299L140.467 86.3606V80.3844H138.12V89.8794L137.56 88.9466L135.548 90.1562L138.12 94.4335ZM107.211 88.2688V97.2872C106.785 97.278 106.362 97.2716 105.94 97.2646C105.403 97.2561 104.87 97.2495 104.34 97.2448C104.118 97.2434 103.893 97.2399 103.672 97.2385V86.0619H124.867V98.4558C123.837 98.3414 122.818 98.2364 121.812 98.1408V88.2688H107.211ZM111.906 90.6153H117.168L109.558 96.4228V91.8278L112.288 93.757L114.233 92.2578L111.906 90.6153ZM114.631 95.502L117.054 97.2575L112.288 97.29L114.631 95.502ZM116.579 94.0155L119.465 91.813V96.1072L116.579 94.0155ZM101.762 83.7161L104.747 77.956L114.419 70.8796L123.713 76.9405L127.487 83.7161L101.762 83.7161ZM110.168 70.3747L111.137 70.3853L109.147 71.8287L90.9863 71.7892L92.9007 70.3747H110.168ZM106.04 74.1019L103.816 75.7288H85.6569L87.9089 74.0644L106.04 74.1019ZM102.077 78.0076L101.192 79.716H82.114L83.3252 78.0078L102.077 78.0076ZM101.326 86.0621V97.2391C93.7234 97.2822 86.9258 97.7292 81.3316 98.2863V86.062L101.326 86.0621ZM100.012 81.9945L99.1206 83.7161H79.2781L80.4983 81.9945H100.012ZM198.023 124.629C197.589 124.324 197.153 124.022 196.718 123.724C197.817 122.905 199.122 122.051 200.422 121.251C199.653 122.4 198.853 123.526 198.023 124.629ZM203.397 116.416C199.829 117.748 196.39 119.4 193.121 121.353C192.124 120.718 191.123 120.099 190.119 119.495C194.731 117.081 199.623 115.246 204.684 114.031C204.269 114.835 203.84 115.63 203.397 116.416ZM205.943 111.473C198.944 111.939 192.115 113.839 185.88 117.053C185.075 116.608 184.268 116.173 183.46 115.748C182.624 115.306 181.786 114.875 180.946 114.454C182.403 113.962 183.838 113.516 185.25 113.115C192.312 111.1 199.567 109.838 206.895 109.35C206.589 110.063 206.271 110.771 205.943 111.473ZM207.766 107.235C201.026 107.066 194.286 107.587 187.652 108.79C186.46 109.01 185.25 109.26 184.023 109.54C183.474 109.667 182.923 109.799 182.369 109.938C180.161 110.494 177.922 111.16 175.693 111.954C174.138 111.252 172.583 110.582 171.027 109.944C176.287 108.257 180.837 106.949 184.933 106.027C185.243 105.957 185.549 105.891 185.854 105.825C187.01 105.578 188.13 105.363 189.221 105.179C191.918 104.708 194.648 104.446 197.385 104.397C202.043 104.34 206.062 104.524 208.713 104.696C208.413 105.55 208.097 106.396 207.766 107.235ZM209.422 102.571C203.032 101.929 196.598 101.856 190.195 102.353C189.185 102.429 188.152 102.52 187.094 102.626C186.952 102.641 186.81 102.655 186.668 102.67C179.091 103.451 171.618 105.034 164.375 107.392C161.629 106.411 158.896 105.519 156.174 104.714C166.485 101.136 177.283 99.1533 188.193 98.8329H188.197C189.194 98.8096 190.174 98.8018 191.136 98.8096C191.537 98.8131 191.938 98.8181 192.333 98.8258C198.284 98.9402 204.222 99.4223 210.113 100.269C209.895 101.042 209.665 101.809 209.422 102.571ZM193.048 96.4863L193.813 91.7402C193.821 91.6966 193.824 91.6524 193.824 91.6082V84.1362C193.826 83.4413 193.676 82.7543 193.386 82.1229C193.323 81.9846 193.019 81.4599 192.927 81.3314C192.863 81.2417 192.796 81.1541 192.725 81.0686C193.431 81.2712 194.051 81.6986 194.492 82.286C194.932 82.8733 195.169 83.5885 195.166 84.3227V84.7831L194.294 87.6635C194.257 87.7857 194.25 87.9149 194.272 88.0407C194.294 88.1665 194.345 88.2854 194.421 88.3879C194.497 88.4904 194.596 88.5737 194.71 88.6311C194.824 88.6885 194.95 88.7184 195.077 88.7185H196.89C197.018 88.7185 197.144 88.6887 197.258 88.6313C197.372 88.574 197.471 88.4907 197.547 88.3883C197.623 88.2858 197.674 88.1669 197.696 88.0412C197.717 87.9154 197.71 87.7863 197.673 87.6642L196.801 84.783V84.3226C196.8 82.9908 196.27 81.714 195.328 80.7722C194.387 79.8304 193.11 79.3006 191.778 79.299H191.249C190.663 76.5009 189.814 73.7645 188.713 71.1266H191.543V68.7807H187.651C184.133 61.5581 178.779 55.387 172.124 50.8859C165.469 46.3848 157.748 43.7118 149.735 43.1349C141.722 42.558 133.698 44.0974 126.467 47.5988C119.236 51.1002 113.053 56.4406 108.536 63.0848H103.502V65.4307H107.042C106.535 66.2823 106.056 67.1481 105.607 68.028H95.3001L95.2966 68.0308L91.8985 68.0449L81.352 76.4051L74.8624 86.0619H78.9849V98.5327C73.9275 99.0948 70.047 99.7184 67.6941 100.139C64.6521 89.2417 64.1513 77.7915 66.2299 66.67C68.3086 55.5485 72.9113 45.0522 79.6839 35.9891C86.4565 26.9259 95.2184 19.5376 105.295 14.3928C115.372 9.24807 126.495 6.48401 137.808 6.31343C149.12 6.14285 160.321 8.57029 170.549 13.4089C180.776 18.2475 189.757 25.3683 196.799 34.2231C203.842 43.0779 208.759 53.4307 211.172 64.4845C213.585 75.5383 213.43 86.9984 210.718 97.9826C204.864 97.1218 198.963 96.6222 193.048 96.4863Z" fill="#3B1F14"/>
</svg>
