<svg width="170" height="170" viewBox="0 0 170 170" fill="none" xmlns="http://www.w3.org/2000/svg">
<path d="M169.941 0H0.059082V169.882H169.941V0Z" fill="#F6D119"/>
<path fill-rule="evenodd" clip-rule="evenodd" d="M21.6611 116.831L85.0001 116.354L148.339 116.831L85.0001 117.503L21.6611 116.831Z" fill="#4B2613"/>
<path fill-rule="evenodd" clip-rule="evenodd" d="M76.8691 37.7595H100.822L76.8767 37.7595L76.8691 37.7595ZM100.822 53.1213H85.4598C86.7856 51.3889 88.0407 49.7272 89.2428 48.1186C89.7554 47.4291 90.2681 46.7397 90.8161 46.0503C91.1291 45.6565 91.4247 45.2628 91.713 44.879L91.713 44.8789C91.9295 44.5907 92.1418 44.308 92.354 44.035C92.8313 43.3809 93.291 42.7799 93.7329 42.2142C93.9293 41.9524 94.1143 41.7133 94.2844 41.4934L94.2846 41.4932L94.2846 41.4931L94.2849 41.4928C94.4822 41.2379 94.6594 41.0088 94.8112 40.8H83.0055C83.3806 41.2975 83.6981 41.8455 83.9578 42.444C84.3644 43.3633 84.5588 44.3709 84.5588 45.4492V53.1567H81.5183V50.0808V48.7726V45.4316C81.5183 44.7952 81.3945 44.1941 81.1647 43.6284C80.9172 43.0627 80.599 42.5855 80.1748 42.1612C79.7505 41.7369 79.2555 41.4011 78.7075 41.1712C78.1418 40.9238 77.5408 40.8177 76.9044 40.8177C76.268 40.8177 75.667 40.9414 75.0836 41.1712C74.5179 41.4187 74.023 41.7369 73.5987 42.1612C73.1744 42.5855 72.8386 43.0804 72.6087 43.6284C72.3613 44.1941 72.2552 44.7952 72.2552 45.4316C72.2552 46.0679 72.3789 46.669 72.6087 47.2523C72.8562 47.818 73.1744 48.313 73.5987 48.7373C74.023 49.1615 74.5179 49.4974 75.0836 49.7272C75.6493 49.9747 76.268 50.0808 76.9044 50.0808H79.3086V53.1213H76.9044C75.8614 53.1213 74.8538 52.9269 73.9169 52.5203C72.98 52.1137 72.1668 51.5657 71.4597 50.8586C70.7526 50.1515 70.2046 49.3206 69.798 48.3837C69.3914 47.4468 69.197 46.4569 69.197 45.3962C69.197 44.3179 69.3914 43.3279 69.798 42.391C70.2046 41.4718 70.7526 40.6586 71.4597 39.9515C72.1668 39.2621 72.9977 38.7141 73.9169 38.3075C74.8361 37.9539 75.8261 37.7595 76.8691 37.7595H69.1609V69.4378H93.1581C92.9173 69.4365 92.6785 69.4248 92.442 69.4025H69.1787C70.5045 67.6701 71.7596 66.0084 72.9617 64.3998L72.9618 64.3996L72.9618 64.3996C73.4744 63.7102 73.987 63.0208 74.535 62.3315C74.8479 61.9378 75.1436 61.5441 75.4318 61.1602L75.4319 61.1601L75.4319 61.1601C75.6484 60.8719 75.8607 60.5892 76.0729 60.3162C76.4165 59.8454 76.7509 59.4021 77.0696 58.9796L77.0697 58.9794L77.0716 58.9769C77.1949 58.8134 77.3159 58.653 77.4341 58.4954C77.6304 58.2337 77.8154 57.9946 77.9855 57.7747L77.9858 57.7744L77.9858 57.7744C78.1832 57.5193 78.3606 57.2901 78.5124 57.0812H69.1787V54.0407H84.5405C83.197 55.7731 81.9419 57.4348 80.7575 59.0434C80.2449 59.7329 79.7322 60.4223 79.2019 61.1117C78.9515 61.4373 78.7089 61.7628 78.4706 62.0827L78.4705 62.0829C78.204 62.4405 77.9428 62.7911 77.6816 63.127C77.3382 63.5976 77.0039 64.0407 76.6854 64.463L76.6849 64.4636L76.6848 64.4637L76.6847 64.4639C76.5608 64.6282 76.4392 64.7894 76.3204 64.9478C76.124 65.2097 75.9389 65.4488 75.7687 65.6688L75.7687 65.6688C75.5713 65.9239 75.394 66.1531 75.2421 66.362H87.053C86.6733 65.8562 86.3559 65.3051 86.0962 64.718C85.6896 63.781 85.4952 62.7911 85.4952 61.7304C85.4952 60.6521 85.6896 59.6622 86.0962 58.7252C86.5028 57.806 87.0508 56.9928 87.7579 56.2857C88.465 55.5963 89.2958 55.0483 90.2151 54.6417C91.1166 54.2528 92.1066 54.0407 93.1672 54.0407C94.2456 54.0407 95.2355 54.2351 96.1724 54.6417C97.0917 55.0483 97.9048 55.5963 98.612 56.2857C99.3014 56.9752 99.8494 57.7883 100.256 58.7252C100.563 59.4186 100.749 60.1622 100.822 60.9485V53.1213ZM100.822 50.0808V37.7596C99.4781 39.492 98.223 41.1536 97.0386 42.7622C96.526 43.4517 96.0133 44.1411 95.483 44.8305C95.2326 45.156 94.9901 45.4816 94.7517 45.8015L94.7516 45.8017L94.7515 45.8018C94.4851 46.1594 94.2239 46.5099 93.9627 46.8458C93.6193 47.3164 93.285 47.7596 92.9664 48.1819L92.9663 48.1821L92.9662 48.1822L92.9661 48.1824L92.9661 48.1824C92.842 48.3468 92.7204 48.5081 92.6015 48.6666C92.4052 48.9283 92.2203 49.1673 92.0502 49.3872L92.0502 49.3872L92.05 49.3874L92.0498 49.3876L92.0498 49.3877C91.8524 49.6427 91.6751 49.8719 91.5232 50.0808H100.822ZM97.8165 69.4378V66.3973V65.0892V61.7481C97.8165 61.1117 97.6927 60.5107 97.4629 59.945C97.2154 59.3793 96.8972 58.902 96.473 58.4778C96.0487 58.0535 95.5537 57.7176 95.0057 57.4878C94.44 57.2403 93.839 57.1343 93.2026 57.1343C92.5662 57.1343 91.9652 57.258 91.3818 57.4878C90.8161 57.7353 90.3211 58.0535 89.8969 58.4778C89.4726 58.902 89.1367 59.397 88.9069 59.945C88.6595 60.5107 88.5534 61.1117 88.5534 61.7481C88.5534 62.3845 88.6771 62.9855 88.9069 63.5689C89.1544 64.1346 89.4726 64.6296 89.8969 65.0538C90.3211 65.4781 90.8161 65.814 91.3818 66.0438C91.7623 66.2102 92.1667 66.3127 92.5844 66.362H95.5537V66.3973H95.6068V69.4378H97.8165Z" fill="#4B2613"/>
<path d="M53.6577 123.938C53.7814 123.938 53.8698 123.903 53.9052 123.849C53.9405 123.796 53.9759 123.726 53.9759 123.673C53.9759 123.567 53.9759 123.425 53.9582 123.231C53.9405 122.948 53.9228 122.753 53.9228 122.647C53.9228 122.453 53.9052 122.294 53.8698 122.188C53.8344 122.082 53.7461 122.029 53.6046 122.029C53.5162 122.029 53.4455 122.029 53.3925 122.046C53.3395 122.064 53.3218 122.082 53.3218 122.099C53.2157 122.099 53.0213 122.064 52.7384 121.993C52.597 121.958 52.5086 121.94 52.4909 121.94C52.1197 121.87 51.7662 121.817 51.4126 121.764C51.0591 121.71 50.7409 121.693 50.458 121.693C49.6802 121.693 48.9731 121.834 48.3367 122.117C47.6826 122.4 47.1346 122.789 46.6573 123.284C46.1977 123.779 45.8265 124.344 45.579 124.981C45.3315 125.617 45.2078 126.289 45.2078 126.978C45.2078 127.668 45.3315 128.304 45.5967 128.941C45.8618 129.559 46.2154 130.125 46.6927 130.602C47.1523 131.08 47.7003 131.451 48.319 131.716C48.9377 131.981 49.5918 132.123 50.2812 132.123C50.9 132.123 51.4656 132.07 51.9783 131.964C52.4909 131.857 52.9859 131.681 53.4455 131.451C53.7284 131.327 53.9052 131.15 53.9759 130.956C53.9935 130.903 54.0466 130.797 54.0996 130.673C54.2057 130.461 54.2764 130.284 54.3471 130.143C54.4001 130.001 54.4355 129.913 54.4355 129.878C54.4355 129.86 54.4001 129.825 54.3471 129.789C54.2941 129.754 54.2234 129.736 54.135 129.736C54.0643 129.736 53.9759 129.771 53.9052 129.842C53.8344 129.913 53.7461 130.001 53.6577 130.125C53.587 130.213 53.5516 130.266 53.4986 130.302C53.1627 130.655 52.6854 130.921 52.0667 131.097C51.8015 131.186 51.5364 131.239 51.2712 131.274C51.006 131.309 50.7585 131.327 50.5111 131.327C50.0338 131.327 49.5565 131.203 49.1145 130.956C48.6726 130.708 48.266 130.373 47.9301 129.931C47.5942 129.489 47.3114 128.994 47.117 128.428C46.9225 127.862 46.8164 127.279 46.8164 126.66C46.8164 126.042 46.9048 125.476 47.0816 124.963C47.2584 124.451 47.5059 123.991 47.8417 123.62C48.1776 123.231 48.5842 122.948 49.0615 122.736C49.5388 122.524 50.0691 122.418 50.6525 122.418C50.9884 122.418 51.3065 122.453 51.5894 122.506C51.8722 122.577 52.1551 122.665 52.4379 122.807C52.5793 122.877 52.7031 122.966 52.8091 123.089C52.9152 123.195 53.039 123.337 53.1627 123.514C53.2864 123.655 53.3748 123.761 53.4455 123.832C53.4986 123.903 53.5693 123.938 53.6577 123.938Z" fill="#4B2613"/>
<path d="M57.9887 127.42C57.7589 127.42 57.4053 127.42 56.9457 127.403V127.367L58.0417 124.539L59.067 127.367V127.403C58.5897 127.42 58.2362 127.42 57.9887 127.42ZM59.1908 123.355L58.6251 121.905H58.1301C57.6351 121.905 57.0871 121.87 56.5038 121.817L56.5568 121.958C56.822 122.152 57.0341 122.365 57.1932 122.612C57.3523 122.86 57.4407 123.089 57.4407 123.337C57.4407 123.425 57.4407 123.478 57.423 123.514L54.6476 130.549C54.5062 130.903 54.3294 131.168 54.135 131.38C53.9228 131.575 53.6753 131.734 53.3925 131.84L53.2334 132.034C53.5516 131.981 53.7991 131.946 53.9935 131.928C54.188 131.911 54.3824 131.911 54.5592 131.911C54.7183 131.911 54.8774 131.911 55.0542 131.928C55.231 131.946 55.4608 131.981 55.7259 132.017V131.875C55.5845 131.734 55.5138 131.575 55.5138 131.38C55.5138 131.292 55.5138 131.203 55.5315 131.15C55.5492 131.08 55.5845 130.991 55.6376 130.85V130.832L56.6629 128.057C57.0518 128.021 57.5114 128.004 58.0417 128.004C58.4306 128.004 58.8549 128.021 59.3499 128.057L60.2514 130.602C60.2691 130.638 60.2868 130.691 60.3044 130.797C60.3221 130.885 60.3398 130.974 60.3398 131.062C60.3398 131.186 60.2691 131.345 60.11 131.557C60.0039 131.698 59.9509 131.787 59.9509 131.857V132.034C60.2868 131.981 60.5873 131.946 60.8348 131.911C61.0823 131.893 61.3121 131.875 61.5596 131.875C61.754 131.875 61.9838 131.893 62.2136 131.911C62.4434 131.928 62.7263 131.981 63.0445 132.034V131.84C62.797 131.734 62.5849 131.575 62.4258 131.38C62.2667 131.186 62.1076 130.938 62.0015 130.62L59.1908 123.355Z" fill="#4B2613"/>
<path d="M64.2465 131.893C64.4586 131.893 64.6707 131.893 64.9005 131.911C65.1303 131.928 65.4132 131.946 65.7844 131.981V131.804C65.3425 131.592 65.1127 131.203 65.0773 130.655C65.0243 129.489 64.9889 128.446 64.9889 127.509C65.0066 127.491 65.0419 127.456 65.0596 127.42C65.1303 127.332 65.201 127.244 65.2718 127.173C65.4839 127.42 65.7137 127.686 65.9435 127.986C66.1733 128.287 66.4738 128.676 66.8274 129.153C66.9688 129.347 67.1102 129.542 67.2163 129.683C67.287 129.772 67.4107 129.931 67.5698 130.16C67.8173 130.479 68.0118 130.744 68.1886 130.938C68.3477 131.133 68.5421 131.327 68.7719 131.504C68.9841 131.681 69.2492 131.822 69.5321 131.911C69.8149 132.017 70.1331 132.07 70.4867 132.07C70.8579 132.07 71.1938 132.017 71.512 131.893C71.8302 131.769 71.9893 131.681 71.9893 131.628C71.9893 131.592 71.9716 131.557 71.9362 131.522C71.9009 131.486 71.8125 131.486 71.6711 131.486C71.565 131.486 71.4766 131.486 71.4059 131.504C71.3352 131.522 71.2821 131.539 71.2468 131.539C71.1938 131.557 71.1584 131.557 71.1407 131.557C70.8049 131.557 70.4513 131.363 70.0447 130.956C69.6558 130.549 69.1432 129.913 68.5068 129.064C68.3123 128.835 68.0825 128.534 67.8173 128.181C67.0749 127.244 66.5445 126.554 66.2263 126.095C66.2794 126.042 66.3501 125.953 66.4385 125.847C66.9511 125.281 67.3577 124.804 67.6936 124.451C68.0295 124.079 68.3477 123.726 68.6659 123.39C68.9664 123.072 69.2846 122.789 69.6028 122.524C69.921 122.259 70.2568 122.082 70.575 121.958L70.7165 121.781C70.4513 121.799 70.1861 121.817 69.9033 121.834C69.5497 121.852 69.2846 121.87 69.1432 121.87C68.878 121.87 68.436 121.834 67.835 121.781L67.6936 121.958C67.7466 122.046 67.7643 122.152 67.7643 122.294C67.7643 122.471 67.7289 122.665 67.6406 122.86C67.5522 123.054 67.4638 123.231 67.34 123.39C67.0042 123.85 66.6329 124.327 66.2263 124.804C65.8198 125.281 65.3955 125.741 64.9536 126.201C64.9536 125.564 64.9536 125.034 64.9536 124.61C64.9536 124.185 64.9712 123.779 64.9889 123.39C65.0066 123.072 65.0773 122.789 65.1657 122.541C65.2541 122.294 65.4132 122.099 65.6253 121.993V121.852C65.4485 121.852 65.2187 121.87 64.9182 121.905C64.5646 121.923 64.3172 121.94 64.1757 121.94C63.9813 121.94 63.7692 121.94 63.557 121.923C63.3449 121.905 63.062 121.887 62.7085 121.852V121.993C62.9737 122.17 63.1328 122.365 63.2211 122.594C63.3095 122.807 63.3626 123.072 63.3802 123.372C63.4156 123.973 63.4333 124.61 63.451 125.246C63.4686 125.882 63.4686 126.519 63.4686 127.138C63.4686 128.746 63.4686 129.966 63.451 130.779C63.451 131.044 63.3802 131.256 63.2565 131.433C63.1328 131.61 62.9737 131.751 62.7792 131.857V132.034C63.0974 131.999 63.3626 131.981 63.5747 131.964C63.8399 131.893 64.052 131.893 64.2465 131.893Z" fill="#4B2613"/>
<path d="M73.4741 131.875C73.6686 131.875 74.0045 131.875 74.5171 131.875C74.8884 131.875 75.3126 131.893 75.8076 131.893H77.54C77.8759 131.893 78.1057 131.839 78.2118 131.751C78.3178 131.663 78.3885 131.539 78.4416 131.38L78.4592 131.362C78.5123 131.168 78.6183 130.903 78.8128 130.567C78.9719 130.266 79.0603 130.072 79.0603 129.966C79.0603 129.948 79.0249 129.913 78.9719 129.86C78.9012 129.807 78.8305 129.789 78.7421 129.789C78.6537 129.789 78.5476 129.842 78.4592 129.93C78.3709 130.019 78.2471 130.16 78.088 130.337C77.8759 130.602 77.7168 130.779 77.593 130.867C77.3809 131.044 77.1688 131.168 76.9566 131.203C76.7445 131.256 76.4617 131.274 76.1258 131.274C75.896 131.274 75.6839 131.256 75.4894 131.238C75.2949 131.221 75.1182 131.168 74.9414 131.097C74.7646 131.026 74.6232 130.92 74.5171 130.779C74.4111 130.637 74.3404 130.478 74.3404 130.266C74.305 129.594 74.2873 129.029 74.2696 128.569C74.252 128.11 74.252 127.597 74.252 127.031C75.0121 127.031 75.5601 127.049 75.9137 127.084C76.1788 127.102 76.4263 127.173 76.6208 127.261C76.8152 127.349 76.9743 127.508 77.0804 127.756H77.5754C77.5577 127.491 77.5577 127.332 77.5577 127.243C77.5577 127.155 77.5577 127.014 77.5577 126.784C77.5577 126.589 77.5754 126.342 77.6107 126.077C77.6284 125.935 77.6461 125.811 77.6461 125.705H77.1511C76.9743 125.988 76.7975 126.165 76.6384 126.253C76.4793 126.342 76.2672 126.377 76.0197 126.395C75.896 126.395 75.7192 126.412 75.4894 126.412C75.2242 126.412 74.8176 126.412 74.2696 126.395V125.529C74.2696 124.539 74.2873 123.814 74.3227 123.354C74.3227 123.266 74.3404 123.177 74.3404 123.071C74.3404 122.806 74.358 122.629 74.3934 122.541L74.7646 122.506C75.1535 122.47 75.4364 122.453 75.6131 122.453C76.1611 122.453 76.5501 122.506 76.8152 122.612C77.0804 122.718 77.2572 122.859 77.3809 123.054C77.3809 123.054 77.3986 123.089 77.4339 123.124C77.4693 123.213 77.5223 123.284 77.5754 123.337C77.6284 123.39 77.7168 123.407 77.8228 123.407C77.9112 123.407 77.9819 123.39 78.035 123.354C78.088 123.319 78.1057 123.284 78.1057 123.248C78.1057 123.142 78.088 123.001 78.0703 122.806C78.035 122.559 78.0173 122.329 78.0173 122.117C78.0173 122.046 77.9643 121.993 77.8759 121.94C77.7875 121.887 77.6637 121.869 77.5223 121.834C77.3809 121.816 77.2395 121.799 77.1157 121.799C76.992 121.799 76.8329 121.799 76.6561 121.799C76.4086 121.799 76.002 121.816 75.4364 121.852C75.3657 121.852 75.2419 121.869 75.1005 121.869C74.8 121.887 74.5348 121.905 74.3227 121.905C74.1105 121.905 73.9338 121.922 73.81 121.922C73.6509 121.922 73.4211 121.905 73.1029 121.887C72.8024 121.869 72.4135 121.834 71.9715 121.781L71.7771 121.763L71.8125 121.975C72.113 122.134 72.3251 122.311 72.4665 122.541C72.6079 122.771 72.6787 123.001 72.6963 123.284C72.7317 123.885 72.7494 124.503 72.767 125.14C72.7847 125.776 72.7847 126.412 72.7847 127.031C72.7847 127.774 72.7847 128.339 72.7847 128.746C72.7847 129.152 72.7847 129.647 72.767 130.266C72.767 130.514 72.661 130.797 72.4665 131.097C72.3781 131.238 72.2897 131.362 72.1837 131.451C72.0953 131.557 71.9892 131.627 71.9008 131.68V131.946C71.9892 131.946 72.0423 131.928 72.0953 131.928C72.4488 131.893 72.7317 131.857 72.9615 131.839C73.1206 131.893 73.315 131.875 73.4741 131.875Z" fill="#4B2613"/>
<path d="M92.1594 131.91C92.3539 131.91 92.5837 131.91 92.8135 131.928C93.0433 131.946 93.3438 131.963 93.6974 131.999V131.822C93.2554 131.61 93.0256 131.221 93.008 130.673C92.9372 129.4 92.9196 128.198 92.9196 127.067V125.617C92.9196 125.105 92.9196 124.68 92.9196 124.344C92.9196 124.009 92.9372 123.69 92.9549 123.39C92.9726 123.072 93.0433 122.789 93.1317 122.541C93.2201 122.294 93.3792 122.099 93.5913 121.993V121.852C93.4322 121.852 93.2024 121.87 92.8842 121.905C92.5307 121.923 92.2832 121.94 92.1418 121.94C91.9473 121.94 91.7528 121.94 91.5407 121.923C91.3286 121.905 91.0457 121.887 90.6745 121.852V121.993C90.9397 122.17 91.1164 122.365 91.2048 122.594C91.2932 122.806 91.3286 123.072 91.3463 123.39C91.3993 124.45 91.4347 125.44 91.4347 126.377C90.6038 126.395 89.7906 126.413 88.9598 126.413C87.9875 126.413 87.139 126.395 86.3788 126.36V125.529C86.3788 124.574 86.3965 123.885 86.4319 123.443C86.4496 123.125 86.5203 122.824 86.6087 122.577C86.697 122.329 86.8561 122.135 87.0683 122.029V121.852C86.8561 121.852 86.6263 121.87 86.3788 121.905C86.0076 121.923 85.7425 121.94 85.601 121.94C85.4066 121.94 85.1944 121.94 84.9823 121.923C84.7702 121.905 84.4873 121.887 84.1338 121.852V121.993C84.399 122.17 84.5581 122.365 84.6464 122.577C84.7348 122.789 84.7879 123.054 84.8055 123.372C84.8409 123.973 84.8586 124.592 84.8762 125.228C84.8939 125.865 84.8939 126.501 84.8939 127.12C84.8939 128.728 84.8939 129.948 84.8762 130.761C84.8762 131.027 84.8055 131.239 84.6818 131.415C84.5581 131.592 84.399 131.734 84.2045 131.84V132.017C84.5227 131.981 84.7879 131.963 85 131.946C85.2121 131.928 85.4243 131.928 85.6187 131.928C85.8308 131.928 86.043 131.928 86.2728 131.946C86.5026 131.963 86.8031 131.981 87.1567 132.017V131.84C86.7147 131.628 86.4849 131.239 86.4672 130.691C86.3965 129.418 86.3788 128.216 86.3788 127.084V127.049C87.2274 127.031 88.0759 127.014 88.9598 127.014C89.7729 127.014 90.5861 127.031 91.4347 127.049V127.102C91.4347 128.711 91.4346 129.931 91.417 130.744C91.417 131.009 91.3463 131.221 91.2402 131.398C91.1341 131.575 90.9573 131.716 90.7629 131.822V131.999C91.0811 131.963 91.3463 131.946 91.5761 131.928C91.7705 131.91 91.965 131.91 92.1594 131.91Z" fill="#4B2613"/>
<path d="M98.488 122.541C98.983 122.541 99.4426 122.647 99.8669 122.86C100.291 123.072 100.662 123.39 100.981 123.814C101.299 124.238 101.546 124.751 101.723 125.352C101.9 125.953 101.988 126.643 101.988 127.403C101.988 128.004 101.9 128.569 101.723 129.064C101.546 129.559 101.299 129.984 100.981 130.337C100.662 130.691 100.291 130.956 99.8669 131.133C99.4426 131.309 98.983 131.398 98.488 131.398C98.0107 131.398 97.5688 131.274 97.1445 131.027C96.7203 130.779 96.3667 130.426 96.0485 129.984C95.7303 129.542 95.5005 129.029 95.3237 128.463C95.147 127.898 95.0586 127.297 95.0586 126.678C95.0586 126.059 95.147 125.494 95.3061 124.999C95.4652 124.486 95.7126 124.062 96.0132 123.69C96.3137 123.337 96.6849 123.054 97.0915 122.86C97.5511 122.63 98.0107 122.541 98.488 122.541ZM98.488 121.817C97.7986 121.817 97.1445 121.958 96.5258 122.223C95.9071 122.488 95.3591 122.86 94.8995 123.355C94.4399 123.832 94.0686 124.398 93.8035 125.016C93.5383 125.635 93.4146 126.289 93.4146 126.978C93.4146 127.668 93.5383 128.304 93.8035 128.941C94.0686 129.559 94.4222 130.125 94.8995 130.602C95.3591 131.08 95.9071 131.451 96.5258 131.716C97.1445 131.981 97.7986 132.123 98.488 132.123C99.1775 132.123 99.8315 131.999 100.45 131.734C101.069 131.486 101.617 131.115 102.077 130.655C102.536 130.196 102.907 129.63 103.173 128.994C103.438 128.357 103.562 127.686 103.562 126.961C103.562 126.254 103.455 125.6 103.226 124.981C102.996 124.362 102.678 123.814 102.236 123.355C101.794 122.877 101.263 122.524 100.627 122.241C100.008 121.958 99.2835 121.817 98.488 121.817Z" fill="#4B2613"/>
<path d="M107.68 132.105C108.264 132.105 108.759 132.07 109.183 131.981C109.59 131.893 109.961 131.734 110.279 131.469C110.597 131.203 110.862 130.814 111.039 130.266C111.216 129.736 111.322 129.011 111.322 128.127C111.322 128.057 111.322 127.88 111.34 127.597C111.34 127.314 111.34 127.137 111.34 127.067C111.34 126.271 111.34 125.582 111.34 125.016C111.34 124.45 111.357 123.902 111.375 123.39C111.393 122.966 111.446 122.647 111.534 122.453C111.622 122.258 111.782 122.099 112.029 121.976V121.852C111.852 121.852 111.622 121.87 111.322 121.905C110.968 121.923 110.721 121.94 110.58 121.94C110.509 121.94 110.35 121.94 110.155 121.923C109.908 121.905 109.678 121.887 109.483 121.87V122.011C109.784 122.188 109.978 122.365 110.067 122.541C110.155 122.718 110.208 123.001 110.226 123.39C110.244 123.708 110.244 124.221 110.244 124.892C110.244 125.246 110.244 125.617 110.244 126.041C110.244 126.66 110.226 127.031 110.226 127.137V127.721C110.226 128.039 110.226 128.322 110.208 128.552C110.191 129.17 110.138 129.683 110.031 130.054C109.925 130.443 109.784 130.726 109.59 130.92C109.395 131.115 109.165 131.239 108.882 131.309C108.6 131.38 108.246 131.415 107.822 131.415C107.504 131.415 107.221 131.38 106.991 131.327C106.761 131.274 106.549 131.15 106.372 130.974C106.178 130.797 106.036 130.532 105.913 130.196C105.789 129.842 105.736 129.4 105.718 128.835C105.7 128.41 105.7 128.074 105.683 127.827C105.683 127.579 105.683 127.332 105.683 127.084V125.635C105.683 125.122 105.683 124.698 105.683 124.362C105.683 124.026 105.7 123.708 105.718 123.407C105.736 123.089 105.807 122.806 105.895 122.541C105.983 122.294 106.142 122.099 106.355 121.993V121.852C106.195 121.852 105.966 121.87 105.665 121.905C105.312 121.923 105.064 121.94 104.905 121.94C104.711 121.94 104.516 121.94 104.304 121.923C104.092 121.905 103.809 121.887 103.438 121.852V121.993C103.703 122.17 103.862 122.365 103.95 122.594C104.039 122.824 104.092 123.072 104.109 123.372C104.127 123.849 104.127 124.203 104.127 124.468C104.127 124.822 104.127 125.281 104.109 125.847C104.092 126.483 104.092 126.908 104.092 127.155C104.092 127.332 104.092 127.668 104.109 128.198L104.127 129.047C104.127 129.701 104.251 130.249 104.481 130.655C104.711 131.08 104.993 131.38 105.347 131.592C105.7 131.804 106.072 131.928 106.461 131.999C106.832 132.07 107.238 132.105 107.68 132.105Z" fill="#4B2613"/>
<path d="M114.221 132.07C114.752 132.07 115.211 131.981 115.635 131.822C116.042 131.663 116.378 131.433 116.643 131.15C116.908 130.868 117.12 130.567 117.244 130.213C117.368 129.878 117.439 129.506 117.439 129.153C117.439 128.817 117.368 128.516 117.244 128.216C117.12 127.933 116.944 127.668 116.749 127.42C116.537 127.173 116.325 126.961 116.095 126.766C115.865 126.572 115.582 126.36 115.229 126.095C114.61 125.635 114.15 125.228 113.85 124.91C113.549 124.574 113.408 124.203 113.408 123.779C113.408 123.425 113.532 123.125 113.797 122.86C114.062 122.594 114.327 122.471 114.628 122.471C114.875 122.471 115.123 122.524 115.37 122.612C115.618 122.7 115.865 122.842 116.077 123.036C116.13 123.089 116.201 123.213 116.307 123.408C116.413 123.602 116.519 123.761 116.608 123.867C116.696 123.973 116.802 124.026 116.908 124.026C117.014 124.026 117.103 123.991 117.138 123.92C117.191 123.85 117.209 123.796 117.209 123.743C117.209 123.567 117.191 123.302 117.156 122.948C117.12 122.559 117.103 122.259 117.103 122.064C117.103 122.029 117.085 121.993 117.032 121.958C116.997 121.923 116.908 121.905 116.802 121.905C116.678 121.905 116.572 121.923 116.502 121.94C116.431 121.958 116.36 121.993 116.289 122.011C116.272 122.029 116.254 122.029 116.236 122.029C116.113 122.029 115.901 121.993 115.6 121.923C115.229 121.852 114.946 121.817 114.752 121.817C114.292 121.817 113.903 121.887 113.567 122.046C113.231 122.205 112.948 122.4 112.719 122.647C112.489 122.895 112.33 123.178 112.224 123.478C112.118 123.779 112.065 124.079 112.065 124.398C112.065 124.698 112.118 124.999 112.241 125.264C112.347 125.529 112.506 125.776 112.701 125.989C112.895 126.201 113.09 126.413 113.32 126.572C113.532 126.749 113.815 126.961 114.168 127.191C114.486 127.42 114.752 127.615 114.946 127.774C115.14 127.933 115.335 128.11 115.512 128.304C115.688 128.499 115.83 128.711 115.918 128.923C116.024 129.153 116.077 129.4 116.077 129.665C116.077 129.948 116.024 130.196 115.936 130.408C115.83 130.62 115.706 130.815 115.547 130.956C115.388 131.097 115.211 131.203 115.034 131.274C114.858 131.345 114.663 131.38 114.486 131.38C114.257 131.38 113.974 131.292 113.656 131.133C113.337 130.974 113.072 130.761 112.86 130.532C112.772 130.426 112.666 130.231 112.56 129.948C112.489 129.772 112.418 129.648 112.365 129.559C112.312 129.489 112.259 129.436 112.188 129.436C112.029 129.436 111.923 129.489 111.852 129.595C111.782 129.701 111.746 129.807 111.746 129.913C111.746 130.037 111.746 130.178 111.764 130.337C111.782 130.479 111.799 130.62 111.817 130.726C111.817 130.797 111.835 130.832 111.835 130.85C111.835 131.062 111.87 131.239 111.941 131.363C112.012 131.486 112.153 131.592 112.347 131.645C112.4 131.663 112.489 131.681 112.63 131.734C112.966 131.84 113.249 131.911 113.479 131.964C113.673 132.034 113.921 132.07 114.221 132.07Z" fill="#4B2613"/>
<path d="M119.259 131.875C119.454 131.875 119.79 131.875 120.302 131.875C120.674 131.875 121.098 131.893 121.593 131.893H123.325C123.661 131.893 123.891 131.839 123.997 131.751C124.103 131.663 124.174 131.539 124.227 131.38L124.244 131.362C124.297 131.168 124.403 130.903 124.598 130.567C124.757 130.266 124.845 130.072 124.845 129.966C124.845 129.948 124.81 129.913 124.757 129.86C124.686 129.807 124.616 129.789 124.527 129.789C124.439 129.789 124.333 129.842 124.244 129.93C124.156 130.019 124.032 130.16 123.873 130.337C123.661 130.602 123.502 130.779 123.378 130.867C123.166 131.044 122.954 131.168 122.742 131.203C122.53 131.256 122.247 131.274 121.911 131.274C121.681 131.274 121.469 131.256 121.275 131.238C121.08 131.221 120.903 131.168 120.727 131.097C120.55 131.026 120.408 130.92 120.302 130.779C120.196 130.637 120.126 130.478 120.126 130.266C120.09 129.594 120.072 129.029 120.055 128.569C120.037 128.11 120.037 127.597 120.037 127.031C120.797 127.031 121.345 127.049 121.699 127.084C121.964 127.102 122.211 127.173 122.406 127.261C122.6 127.349 122.759 127.508 122.866 127.756H123.361C123.343 127.491 123.343 127.332 123.343 127.243C123.343 127.155 123.343 127.014 123.343 126.784C123.343 126.589 123.361 126.342 123.396 126.077C123.414 125.935 123.431 125.811 123.431 125.705H122.936C122.759 125.988 122.583 126.165 122.424 126.253C122.265 126.342 122.052 126.377 121.805 126.395C121.681 126.395 121.504 126.412 121.275 126.412C121.009 126.412 120.603 126.412 120.055 126.395V125.529C120.055 124.539 120.072 123.814 120.108 123.354C120.108 123.266 120.126 123.177 120.126 123.071C120.126 122.806 120.143 122.629 120.179 122.541L120.55 122.506C120.939 122.47 121.222 122.453 121.398 122.453C121.946 122.453 122.335 122.506 122.6 122.612C122.866 122.718 123.042 122.859 123.166 123.054C123.166 123.054 123.184 123.089 123.219 123.124C123.254 123.213 123.307 123.284 123.361 123.337C123.414 123.39 123.502 123.407 123.608 123.407C123.696 123.407 123.767 123.39 123.82 123.354C123.873 123.319 123.891 123.284 123.891 123.248C123.891 123.142 123.873 123.001 123.855 122.806C123.82 122.559 123.802 122.329 123.802 122.117C123.802 122.046 123.749 121.993 123.661 121.94C123.573 121.887 123.449 121.869 123.307 121.834C123.166 121.816 123.025 121.799 122.901 121.799C122.777 121.799 122.618 121.799 122.441 121.799C122.194 121.799 121.787 121.816 121.222 121.852C121.151 121.852 121.027 121.869 120.886 121.869C120.585 121.887 120.32 121.905 120.108 121.905C119.896 121.905 119.719 121.922 119.595 121.922C119.436 121.922 119.206 121.905 118.888 121.887C118.588 121.869 118.199 121.834 117.757 121.781L117.562 121.763L117.598 121.975C117.898 122.134 118.11 122.311 118.252 122.541C118.393 122.771 118.464 123.001 118.481 123.284C118.517 123.885 118.535 124.503 118.552 125.14C118.57 125.776 118.57 126.412 118.57 127.031C118.57 127.774 118.57 128.339 118.57 128.746C118.57 129.152 118.57 129.647 118.552 130.266C118.552 130.514 118.446 130.797 118.252 131.097C118.163 131.238 118.075 131.362 117.969 131.451C117.863 131.557 117.774 131.627 117.686 131.68V131.946C117.774 131.946 117.827 131.928 117.88 131.928C118.234 131.893 118.517 131.857 118.747 131.839C118.906 131.893 119.1 131.875 119.259 131.875Z" fill="#4B2613"/>
<path d="M85.6542 78.9835C82.9142 82.5544 80.3509 85.9839 77.9468 89.2896C76.9215 90.7038 75.8608 92.118 74.8001 93.5499C73.7218 94.9818 72.6965 96.3783 71.7242 97.7041C70.752 99.0476 69.815 100.285 68.9312 101.434C68.0473 102.583 67.3225 103.555 66.7391 104.369H85.6188V110.644H54.3294C57.0164 107.073 59.5797 103.644 62.0369 100.338C63.0622 98.9239 64.1229 97.5097 65.2189 96.0778C66.3149 94.6459 67.3579 93.2494 68.3301 91.9235C69.3024 90.58 70.2393 89.3426 71.1232 88.1936C72.0071 87.0445 72.7319 86.0722 73.3152 85.2591H54.3118V78.9835H85.6542Z" fill="#4B2613"/>
<path d="M37.359 78.9835C39.551 78.9835 41.5839 79.3901 43.4754 80.221C45.3669 81.0518 47.011 82.1655 48.4252 83.6151C49.8394 85.0469 50.9531 86.7263 51.7839 88.6178C52.5971 90.527 53.0037 92.5776 53.0037 94.7873V110.662H46.7988V104.386V101.682V94.7873C46.7988 93.4792 46.5513 92.2417 46.074 91.0927C45.5791 89.9436 44.9073 88.936 44.0588 88.0521C43.1926 87.1859 42.2026 86.4965 41.0536 86.0015C39.9222 85.5066 38.6848 85.2591 37.3943 85.2591C36.0862 85.2591 34.8664 85.5066 33.6997 86.0015C32.533 86.4965 31.5253 87.1859 30.6591 88.0521C29.7929 88.9183 29.1212 89.926 28.6439 91.0927C28.1489 92.2417 27.9191 93.4792 27.9191 94.7873C27.9191 96.0955 28.1666 97.3506 28.6439 98.535C29.1389 99.7017 29.8106 100.727 30.6591 101.611C31.5253 102.477 32.533 103.167 33.6997 103.661C34.8664 104.156 36.1039 104.404 37.3943 104.404H42.291V110.68H37.359C35.22 110.68 33.187 110.273 31.2779 109.442C29.3687 108.611 27.6893 107.48 26.2574 106.013C24.8078 104.563 23.6942 102.866 22.8633 100.939C22.0501 99.0123 21.6436 96.9617 21.6436 94.805C21.6436 92.5953 22.0501 90.5447 22.8633 88.6355C23.6765 86.7263 24.8078 85.0646 26.2574 83.6327C27.707 82.2008 29.3687 81.0695 31.2779 80.2386C33.2047 79.3901 35.22 78.9835 37.359 78.9835Z" fill="#4B2613"/>
<path d="M118.305 78.9835C115.565 82.5544 113.001 85.9839 110.597 89.2896C109.572 90.7038 108.511 92.118 107.451 93.5499C106.372 94.9818 105.347 96.3783 104.375 97.7041C103.402 99.0476 102.465 100.285 101.582 101.434C100.698 102.583 99.9729 103.555 99.3895 104.369H118.269V110.644H86.9798C89.6668 107.073 92.2301 103.644 94.6873 100.338C95.7126 98.9239 96.7732 97.5097 97.8693 96.0778C98.9653 94.6459 100.008 93.2494 100.981 91.9235C101.953 90.58 102.89 89.3426 103.774 88.1936C104.657 87.0445 105.382 86.0722 105.966 85.2591H86.9622V78.9835H118.305Z" fill="#4B2613"/>
<path d="M132.694 78.9835C134.886 78.9835 136.919 79.3901 138.811 80.221C140.702 81.0518 142.346 82.1655 143.76 83.6151C145.175 85.0469 146.288 86.7263 147.119 88.6178C147.932 90.527 148.339 92.5776 148.339 94.7873V110.662H142.134V104.386V101.682V94.7873C142.134 93.4792 141.887 92.2417 141.409 91.0927C140.914 89.9436 140.243 88.936 139.376 88.0521C138.51 87.1859 137.52 86.4965 136.371 86.0015C135.24 85.5066 134.002 85.2591 132.712 85.2591C131.404 85.2591 130.184 85.5066 129.017 86.0015C127.85 86.4965 126.843 87.1859 125.977 88.0521C125.11 88.9183 124.439 89.926 123.961 91.0927C123.466 92.2417 123.237 93.4792 123.237 94.7873C123.237 96.0955 123.484 97.3506 123.961 98.535C124.456 99.7017 125.128 100.727 125.977 101.611C126.843 102.477 127.85 103.167 129.017 103.661C130.184 104.156 131.421 104.404 132.712 104.404H137.591V110.68H132.694C130.555 110.68 128.522 110.273 126.613 109.442C124.704 108.611 123.025 107.48 121.593 106.013C120.143 104.563 119.029 102.866 118.199 100.939C117.385 99.0123 116.979 96.9617 116.979 94.805C116.979 92.5953 117.385 90.5447 118.199 88.6355C119.012 86.7263 120.143 85.0646 121.593 83.6327C123.042 82.2008 124.704 81.0695 126.613 80.2386C128.54 79.3901 130.555 78.9835 132.694 78.9835Z" fill="#4B2613"/>
</svg>
