<svg width="30" height="30" viewBox="0 0 30 30" fill="none" xmlns="http://www.w3.org/2000/svg">
<path fill-rule="evenodd" clip-rule="evenodd" d="M30 0H0V30H30V0ZM9.35308 15C9.35308 11.8766 11.8737 9.35594 14.997 9.35594C18.1203 9.35594 20.641 11.8766 20.641 15C20.641 18.1234 18.1203 20.6441 14.997 20.6441C11.8737 20.6441 9.35308 18.1234 9.35308 15ZM11.3289 15C11.3289 17.0199 12.9772 18.6682 14.997 18.6682C17.0169 18.6682 18.6652 17.0199 18.6652 15C18.6652 12.9801 17.0169 11.3318 14.997 11.3318C12.9772 11.3318 11.3289 12.9801 11.3289 15ZM19.554 9.12753C19.554 8.39829 20.1429 7.80939 20.8722 7.80939C21.0453 7.80917 21.2168 7.84312 21.3768 7.90929C21.5369 7.97545 21.6822 8.07254 21.8047 8.19498C21.9271 8.31743 22.0242 8.46282 22.0904 8.62284C22.1565 8.78287 22.1905 8.95437 22.1903 9.12753C22.1903 9.85953 21.6014 10.4457 20.8722 10.4457C20.1429 10.4457 19.554 9.85678 19.554 9.12753ZM25.9992 14.4443C25.999 14.6294 25.9988 14.8146 25.9988 15C25.9988 15.2073 25.9991 15.4144 25.9994 15.6213C26.0013 16.9302 26.0033 18.2313 25.9272 19.5406C25.8419 21.3018 25.4429 22.8621 24.1523 24.1527C22.8645 25.4406 21.3014 25.8423 19.5403 25.9276C18.2091 26.0025 16.8864 26.0011 15.5554 25.9996C15.3704 25.9994 15.1852 25.9992 14.9998 25.9992C14.8148 25.9992 14.6299 25.9994 14.4452 25.9996C13.116 26.0011 11.793 26.0025 10.4593 25.9276C8.69816 25.8423 7.13788 25.4433 5.84728 24.1527C4.55944 22.8648 4.15767 21.3018 4.07237 19.5406C3.99747 18.2093 3.99894 16.8844 4.00041 15.5547C4.00061 15.3699 4.00082 15.185 4.00082 15C4.00082 14.815 4.00061 14.6301 4.00041 14.4453C3.99894 13.1161 3.99747 11.7931 4.07237 10.4594C4.15767 8.69824 4.55668 7.13794 5.84728 5.84732C7.13513 4.55945 8.69816 4.15767 10.4593 4.07237C11.7905 3.99747 13.1132 3.99894 14.4441 4.00041C14.6292 4.00061 14.8144 4.00082 14.9998 4.00082C15.1848 4.00082 15.3697 4.00061 15.5544 4.00041C16.8836 3.99894 18.2066 3.99747 19.5403 4.07237C21.3014 4.15767 22.8617 4.55669 24.1523 5.84732C25.4402 7.13519 25.8419 8.69824 25.9272 10.4594C26.0021 11.7906 26.0007 13.1133 25.9992 14.4443ZM22.7461 22.7492C23.1341 22.364 23.3763 21.9897 23.5772 21.4889C24.0718 20.244 24.0454 17.5276 24.0283 15.7709C24.0255 15.485 24.023 15.2246 24.023 15C24.023 14.7748 24.0255 14.5133 24.0283 14.2263C24.0455 12.4691 24.0719 9.75262 23.5799 8.50836C23.3791 8.00753 23.1369 7.63602 22.7489 7.24801C22.3636 6.86 21.9894 6.61784 21.4886 6.41695C20.2443 5.92493 17.5279 5.95142 15.7707 5.96855C15.4837 5.97135 15.2223 5.9739 14.997 5.9739C14.7718 5.9739 14.5104 5.97135 14.2234 5.96855C12.4661 5.95142 9.74976 5.92493 8.50553 6.41695C8.0047 6.61784 7.63321 6.86275 7.2452 7.24801C6.8572 7.63327 6.61504 8.00753 6.41415 8.50836C5.92214 9.75262 5.94863 12.4691 5.96576 14.2263C5.96856 14.5133 5.97111 14.7748 5.97111 15C5.97111 15.2253 5.96856 15.4867 5.96576 15.7736C5.94863 17.5304 5.92215 20.245 6.41415 21.4916C6.61504 21.9925 6.8572 22.364 7.2452 22.752C7.63045 23.14 8.0047 23.3822 8.50553 23.583C9.74976 24.0751 12.4661 24.0486 14.2234 24.0314C14.5104 24.0286 14.7718 24.0261 14.997 24.0261C15.2216 24.0261 15.4821 24.0286 15.768 24.0314C17.5246 24.0485 20.241 24.0749 21.4858 23.5803C21.9866 23.3794 22.3581 23.1372 22.7461 22.7492Z" fill="white"/>
</svg>
