<svg width="100" height="100" viewBox="0 0 100 100" fill="none" xmlns="http://www.w3.org/2000/svg">
<path d="M100 0H0V100H100V0Z" fill="#F6D119"/>
<path fill-rule="evenodd" clip-rule="evenodd" d="M12.7158 68.772L49.9999 68.4911L87.284 68.772L49.9999 69.1675L12.7158 68.772Z" fill="#4B2613"/>
<path fill-rule="evenodd" clip-rule="evenodd" d="M40.6763 22.2269H59.3131V22.2271H45.2134H45.2133C44.5994 22.2271 44.0167 22.3416 43.4757 22.5497C42.9346 22.789 42.4455 23.1116 42.0293 23.5174C41.613 23.9337 41.2905 24.4123 41.0511 24.9535C40.8118 25.505 40.6973 26.0877 40.6973 26.7224C40.6973 27.3468 40.8118 27.9295 41.0511 28.481C41.2905 29.0325 41.613 29.5216 42.0293 29.9378C42.4455 30.3541 42.9242 30.6767 43.4757 30.916C44.0272 31.1553 44.6203 31.2698 45.2343 31.2698H46.6495V29.48H45.2343C44.8597 29.48 44.4954 29.4176 44.1625 29.2719C43.8295 29.1366 43.5381 28.9389 43.2884 28.6891C43.0386 28.4394 42.8513 28.148 42.7056 27.8151C42.5704 27.4717 42.4975 27.1179 42.4975 26.7433C42.4975 26.3686 42.56 26.0148 42.7056 25.6819C42.8409 25.3593 43.0386 25.0679 43.2884 24.8182C43.5381 24.5684 43.8295 24.3811 44.1625 24.2355C44.5059 24.1002 44.8597 24.0273 45.2343 24.0273C45.6089 24.0273 45.9627 24.0898 46.2957 24.2355C46.6182 24.3707 46.9096 24.5684 47.1593 24.8182C47.4091 25.0679 47.5964 25.3489 47.7421 25.6819C47.8773 26.0148 47.9502 26.3686 47.9502 26.7433V28.71V29.48V31.2906H49.74V26.7537C49.74 26.1189 49.6255 25.5258 49.3862 24.9847C49.2333 24.6324 49.0464 24.3098 48.8256 24.0169H55.7752C55.6858 24.1399 55.5814 24.2748 55.4652 24.4249C55.3651 24.5544 55.2561 24.6952 55.1405 24.8494C54.8803 25.1824 54.6098 25.5362 54.3288 25.9212C54.2039 26.0819 54.0789 26.2483 53.9515 26.418C53.7818 26.6439 53.6078 26.8757 53.4235 27.1075C53.1009 27.5133 52.7992 27.9191 52.4974 28.3249C51.7898 29.2719 51.051 30.25 50.2706 31.2698H59.3131V35.8782C59.2703 35.415 59.1608 34.9769 58.9801 34.5685C58.7408 34.017 58.4182 33.5384 58.0124 33.1325C57.5961 32.7267 57.1175 32.4041 56.5764 32.1648C56.0249 31.9254 55.4421 31.811 54.8074 31.811C54.183 31.811 53.6003 31.9359 53.0696 32.1648C52.5285 32.4041 52.0394 32.7267 51.6232 33.1325C51.207 33.5488 50.8844 34.0274 50.645 34.5685C50.4057 35.12 50.2912 35.7028 50.2912 36.3375C50.2912 36.9619 50.4057 37.5446 50.645 38.0961C50.7979 38.4417 50.9847 38.7661 51.2082 39.0638H44.2559C44.3453 38.9409 44.4497 38.806 44.5658 38.6559L44.5659 38.6559L44.5659 38.6558L44.566 38.6557L44.566 38.6556C44.6662 38.5262 44.7751 38.3855 44.8906 38.2314C44.9606 38.1381 45.0322 38.0432 45.1052 37.9464L45.1052 37.9464L45.1052 37.9463C45.2928 37.6977 45.4897 37.4367 45.6919 37.1596C45.8457 36.9619 45.9994 36.7555 46.1563 36.545C46.2966 36.3566 46.4394 36.165 46.5868 35.9733C46.899 35.5675 47.2007 35.1617 47.5025 34.7558C48.1997 33.8089 48.9385 32.8308 49.7293 31.811H40.6867V33.6008H46.181C46.0916 33.7237 45.9872 33.8586 45.871 34.0088L45.871 34.0088L45.871 34.0088L45.8708 34.009C45.7707 34.1384 45.6618 34.2791 45.5462 34.4333C45.4766 34.5261 45.4053 34.6205 45.3327 34.7169L45.3317 34.7181L45.3316 34.7183C45.1441 34.9669 44.9472 35.2279 44.745 35.5051C44.62 35.6657 44.495 35.8321 44.3676 36.0018L44.3676 36.0018C44.1979 36.2278 44.0239 36.4595 43.8397 36.6913C43.5171 37.0971 43.2154 37.5029 42.9136 37.9087L42.9135 37.9088C42.2059 38.8557 41.4671 39.8339 40.6867 40.8536H54.3805C54.5103 40.8659 54.6413 40.8727 54.7734 40.8742H40.6763V22.2269ZM56.2434 40.8742H57.5441V39.0847V38.3146V36.3479C57.5441 35.9733 57.4713 35.6195 57.336 35.2865C57.1903 34.9535 57.003 34.6726 56.7533 34.4228C56.5035 34.1731 56.2122 33.9754 55.8896 33.8401C55.5566 33.6944 55.2028 33.632 54.8282 33.632C54.4536 33.632 54.0998 33.7048 53.7564 33.8401C53.4234 33.9858 53.132 34.1731 52.8823 34.4228C52.6326 34.6726 52.4348 34.964 52.2996 35.2865C52.1539 35.6195 52.0915 35.9733 52.0915 36.3479C52.0915 36.7225 52.1643 37.0763 52.2996 37.4197C52.4452 37.7527 52.6326 38.0441 52.8823 38.2938C53.132 38.5436 53.4234 38.7413 53.7564 38.8765C53.9803 38.9745 54.2184 39.0348 54.4643 39.0638H56.2122V39.0847H56.2434V40.8742ZM59.3131 29.48V22.2273C58.5223 23.247 57.7835 24.2251 57.0864 25.172L57.0863 25.172C56.7846 25.5778 56.4828 25.9836 56.1707 26.3895C56.0232 26.5811 55.8805 26.7728 55.7401 26.9611L55.7401 26.9612C55.5833 27.1717 55.4295 27.378 55.2758 27.5757C55.0735 27.8529 54.8767 28.1138 54.6891 28.3625L54.6887 28.3631C54.6158 28.4597 54.5444 28.5544 54.4745 28.6475C54.3589 28.8017 54.2499 28.9425 54.1498 29.072C54.0336 29.2221 53.9292 29.3571 53.8398 29.48H59.3131Z" fill="#4B2613"/>
<path d="M31.5502 72.9553C31.623 72.9553 31.675 72.9345 31.6958 72.9033C31.7167 72.8721 31.7375 72.8304 31.7375 72.7992C31.7375 72.7368 31.7375 72.6535 31.7271 72.5391C31.7167 72.3726 31.7062 72.2581 31.7062 72.1957C31.7062 72.0812 31.6958 71.9876 31.675 71.9251C31.6542 71.8627 31.6022 71.8315 31.5189 71.8315C31.4669 71.8315 31.4253 71.8315 31.3941 71.8419C31.3629 71.8523 31.3524 71.8627 31.3524 71.8731C31.29 71.8731 31.1755 71.8523 31.0091 71.8107C30.9258 71.7899 30.8738 71.7795 30.8634 71.7795C30.6449 71.7378 30.4367 71.7066 30.2286 71.6754C30.0205 71.6442 29.8332 71.6338 29.6667 71.6338C29.2088 71.6338 28.7926 71.717 28.418 71.8835C28.033 72.05 27.7104 72.2789 27.4295 72.5703C27.1589 72.8617 26.9404 73.1946 26.7947 73.5693C26.649 73.9439 26.5762 74.3393 26.5762 74.7451C26.5762 75.1509 26.649 75.5255 26.8051 75.9002C26.9612 76.2644 27.1693 76.5973 27.4503 76.8783C27.7208 77.1593 28.0434 77.3778 28.4076 77.5339C28.7718 77.69 29.1568 77.7732 29.5626 77.7732C29.9268 77.7732 30.2598 77.742 30.5616 77.6796C30.8634 77.6171 31.1547 77.5131 31.4253 77.3778C31.5918 77.3049 31.6958 77.2009 31.7375 77.0864C31.7479 77.0552 31.7791 76.9928 31.8103 76.9199C31.8727 76.7951 31.9144 76.691 31.956 76.6078C31.9872 76.5245 32.008 76.4725 32.008 76.4517C32.008 76.4413 31.9872 76.4205 31.956 76.3996C31.9248 76.3788 31.8831 76.3684 31.8311 76.3684C31.7895 76.3684 31.7375 76.3892 31.6958 76.4309C31.6542 76.4725 31.6022 76.5245 31.5502 76.5973C31.5085 76.6494 31.4877 76.6806 31.4565 76.7014C31.2588 76.9095 30.9778 77.0656 30.6136 77.1697C30.4575 77.2217 30.3015 77.2529 30.1454 77.2737C29.9893 77.2945 29.8436 77.3049 29.6979 77.3049C29.417 77.3049 29.136 77.2321 28.8759 77.0864C28.6157 76.9407 28.3764 76.743 28.1787 76.4829C27.981 76.2227 27.8145 75.9314 27.7 75.5984C27.5855 75.2654 27.5231 74.922 27.5231 74.5578C27.5231 74.1936 27.5751 73.8606 27.6792 73.5588C27.7832 73.2571 27.9289 72.9865 28.1266 72.768C28.3244 72.5391 28.5637 72.3726 28.8446 72.2477C29.1256 72.1228 29.4378 72.0604 29.7812 72.0604C29.9789 72.0604 30.1662 72.0812 30.3327 72.1124C30.4992 72.1541 30.6657 72.2061 30.8322 72.2893C30.9154 72.331 30.9882 72.383 31.0507 72.4558C31.1131 72.5183 31.186 72.6015 31.2588 72.7056C31.3316 72.7888 31.3837 72.8513 31.4253 72.8929C31.4565 72.9345 31.4981 72.9553 31.5502 72.9553Z" fill="#4B2613"/>
<path d="M34.1 75.0053C33.9647 75.0053 33.7566 75.0053 33.486 74.9949V74.9741L34.1312 73.3091L34.7347 74.9741V74.9949C34.4537 75.0053 34.2456 75.0053 34.1 75.0053ZM34.8075 72.6119L34.4746 71.7587H34.1832C33.8918 71.7587 33.5693 71.7379 33.2259 71.7066L33.2571 71.7899C33.4132 71.9043 33.538 72.0292 33.6317 72.1749C33.7253 72.3206 33.7774 72.4559 33.7774 72.6015C33.7774 72.6536 33.7774 72.6848 33.767 72.7056L32.1332 76.8471C32.05 77.0552 31.9459 77.2113 31.8315 77.3362C31.7066 77.4507 31.5609 77.5443 31.3944 77.6067L31.3008 77.7212C31.4881 77.69 31.6338 77.6692 31.7482 77.6588C31.8627 77.6484 31.9772 77.6484 32.0812 77.6484C32.1749 77.6484 32.2685 77.6484 32.3726 77.6588C32.4766 77.6692 32.6119 77.69 32.768 77.7108V77.6276C32.6848 77.5443 32.6431 77.4507 32.6431 77.3362C32.6431 77.2842 32.6431 77.2321 32.6535 77.2009C32.6639 77.1593 32.6848 77.1073 32.716 77.024V77.0136L33.3195 75.3799C33.5484 75.3591 33.819 75.3487 34.1312 75.3487C34.3601 75.3487 34.6098 75.3591 34.9012 75.3799L35.4319 76.8783C35.4423 76.8991 35.4527 76.9304 35.4631 76.9928C35.4735 77.0448 35.4839 77.0969 35.4839 77.1489C35.4839 77.2217 35.4423 77.3154 35.3487 77.4402C35.2862 77.5235 35.255 77.5755 35.255 77.6171V77.7212C35.4527 77.69 35.6296 77.6692 35.7753 77.6484C35.921 77.638 36.0562 77.6276 36.2019 77.6276C36.3164 77.6276 36.4517 77.638 36.5869 77.6484C36.7222 77.6588 36.8887 77.69 37.076 77.7212V77.6067C36.9303 77.5443 36.8055 77.4507 36.7118 77.3362C36.6182 77.2217 36.5245 77.076 36.4621 76.8887L34.8075 72.6119Z" fill="#4B2613"/>
<path d="M37.7837 77.6379C37.9086 77.6379 38.0335 77.6379 38.1687 77.6483C38.304 77.6587 38.4705 77.6691 38.689 77.69V77.5859C38.4289 77.461 38.2936 77.2321 38.2728 76.9095C38.2416 76.2227 38.2208 75.6088 38.2208 75.0573C38.2312 75.0469 38.252 75.0261 38.2624 75.0053C38.304 74.9532 38.3456 74.9012 38.3873 74.8596C38.5121 75.0052 38.6474 75.1613 38.7827 75.3382C38.918 75.5151 39.0949 75.7441 39.303 76.025C39.3862 76.1395 39.4695 76.254 39.5319 76.3372C39.5735 76.3892 39.6464 76.4829 39.74 76.6182C39.8857 76.8055 40.0002 76.9616 40.1042 77.076C40.1979 77.1905 40.3123 77.3049 40.4476 77.409C40.5725 77.5131 40.7286 77.5963 40.8951 77.6483C41.0616 77.7108 41.2489 77.742 41.457 77.742C41.6755 77.742 41.8732 77.7108 42.0605 77.6379C42.2478 77.5651 42.3415 77.5131 42.3415 77.4818C42.3415 77.461 42.3311 77.4402 42.3103 77.4194C42.2894 77.3986 42.2374 77.3986 42.1542 77.3986C42.0917 77.3986 42.0397 77.3986 41.9981 77.409C41.9565 77.4194 41.9252 77.4298 41.9044 77.4298C41.8732 77.4402 41.8524 77.4402 41.842 77.4402C41.6443 77.4402 41.4362 77.3258 41.1968 77.0864C40.9679 76.8471 40.6661 76.4725 40.2915 75.973C40.1771 75.8377 40.0418 75.6608 39.8857 75.4527C39.4487 74.9012 39.1365 74.4954 38.9492 74.2248C38.9804 74.1936 39.022 74.1416 39.074 74.0791C39.3758 73.7461 39.6152 73.4652 39.8129 73.2571C40.0106 73.0386 40.1979 72.8304 40.3852 72.6327C40.5621 72.4454 40.7494 72.2789 40.9367 72.1228C41.124 71.9667 41.3217 71.8627 41.509 71.7898L41.5923 71.6858C41.4362 71.6962 41.2801 71.7066 41.1136 71.717C40.9055 71.7274 40.7494 71.7378 40.6661 71.7378C40.5101 71.7378 40.2499 71.717 39.8961 71.6858L39.8129 71.7898C39.8441 71.8419 39.8545 71.9043 39.8545 71.9876C39.8545 72.0916 39.8337 72.2061 39.7816 72.3206C39.7296 72.435 39.6776 72.5391 39.6047 72.6327C39.407 72.9033 39.1885 73.1842 38.9492 73.4652C38.7098 73.7461 38.4601 74.0167 38.2 74.2872C38.2 73.9126 38.2 73.6005 38.2 73.3507C38.2 73.101 38.2104 72.8617 38.2208 72.6327C38.2312 72.4454 38.2728 72.2789 38.3248 72.1332C38.3769 71.9876 38.4705 71.8731 38.5954 71.8107V71.7274C38.4913 71.7274 38.356 71.7378 38.1791 71.7586C37.971 71.769 37.8254 71.7794 37.7421 71.7794C37.6276 71.7794 37.5028 71.7794 37.3779 71.769C37.253 71.7586 37.0865 71.7482 36.8784 71.7274V71.8107C37.0345 71.9147 37.1282 72.0292 37.1802 72.1645C37.2322 72.2893 37.2634 72.4454 37.2738 72.6223C37.2947 72.9761 37.3051 73.3507 37.3155 73.7253C37.3259 74.0999 37.3259 74.4746 37.3259 74.8388C37.3259 75.7857 37.3259 76.5037 37.3155 76.9824C37.3155 77.1384 37.2738 77.2633 37.201 77.3674C37.1282 77.4714 37.0345 77.5547 36.92 77.6171V77.7212C37.1073 77.7004 37.2634 77.69 37.3883 77.6796C37.5444 77.6379 37.6693 77.6379 37.7837 77.6379Z" fill="#4B2613"/>
<path d="M43.2153 77.6273C43.3297 77.6273 43.5274 77.6273 43.8292 77.6273C44.0477 77.6273 44.2975 77.6377 44.5888 77.6377H45.6086C45.8063 77.6377 45.9416 77.6065 46.004 77.5544C46.0665 77.5024 46.1081 77.4296 46.1393 77.3359L46.1497 77.3255C46.1809 77.2111 46.2434 77.055 46.3578 76.8573C46.4515 76.6804 46.5035 76.5659 46.5035 76.5035C46.5035 76.4931 46.4827 76.4722 46.4515 76.441C46.4099 76.4098 46.3682 76.3994 46.3162 76.3994C46.2642 76.3994 46.2017 76.4306 46.1497 76.4826C46.0977 76.5347 46.0248 76.6179 45.9312 76.722C45.8063 76.8781 45.7127 76.9821 45.6398 77.0342C45.515 77.1382 45.3901 77.2111 45.2652 77.2319C45.1403 77.2631 44.9739 77.2735 44.7761 77.2735C44.6409 77.2735 44.516 77.2631 44.4015 77.2527C44.2871 77.2423 44.183 77.2111 44.079 77.1694C43.9749 77.1278 43.8916 77.0654 43.8292 76.9821C43.7668 76.8989 43.7252 76.8052 43.7252 76.6804C43.7043 76.2849 43.6939 75.952 43.6835 75.6814C43.6731 75.4108 43.6731 75.1091 43.6731 74.7761C44.1206 74.7761 44.4432 74.7865 44.6513 74.8073C44.8074 74.8177 44.953 74.8593 45.0675 74.9114C45.182 74.9634 45.2756 75.0571 45.3381 75.2027H45.6294C45.619 75.0466 45.619 74.953 45.619 74.901C45.619 74.8489 45.619 74.7657 45.619 74.6304C45.619 74.5159 45.6294 74.3703 45.6502 74.2142C45.6606 74.1309 45.671 74.0581 45.671 73.9957H45.3797C45.2756 74.1621 45.1716 74.2662 45.0779 74.3182C44.9843 74.3703 44.8594 74.3911 44.7137 74.4015C44.6409 74.4015 44.5368 74.4119 44.4015 74.4119C44.2454 74.4119 44.0061 74.4119 43.6835 74.4015V73.8916C43.6835 73.3089 43.6939 72.8822 43.7147 72.6117C43.7147 72.5597 43.7252 72.5076 43.7252 72.4452C43.7252 72.2891 43.7356 72.185 43.7564 72.133L43.9749 72.1122C44.2038 72.0914 44.3703 72.081 44.4744 72.081C44.797 72.081 45.0259 72.1122 45.182 72.1746C45.3381 72.2371 45.4421 72.3203 45.515 72.4348C45.515 72.4348 45.5254 72.4556 45.5462 72.4764C45.567 72.5284 45.5982 72.5701 45.6294 72.6013C45.6606 72.6325 45.7127 72.6429 45.7751 72.6429C45.8271 72.6429 45.8688 72.6325 45.9 72.6117C45.9312 72.5909 45.9416 72.5701 45.9416 72.5492C45.9416 72.4868 45.9312 72.4036 45.9208 72.2891C45.9 72.1434 45.8896 72.0081 45.8896 71.8833C45.8896 71.8416 45.8583 71.8104 45.8063 71.7792C45.7543 71.748 45.6814 71.7376 45.5982 71.7168C45.515 71.7064 45.4317 71.696 45.3589 71.696C45.286 71.696 45.1924 71.696 45.0883 71.696C44.9426 71.696 44.7033 71.7064 44.3703 71.7272C44.3287 71.7272 44.2558 71.7376 44.1726 71.7376C43.9957 71.748 43.8396 71.7584 43.7147 71.7584C43.5899 71.7584 43.4858 71.7688 43.413 71.7688C43.3193 71.7688 43.1841 71.7584 42.9967 71.748C42.8198 71.7376 42.5909 71.7168 42.3308 71.6856L42.2163 71.6752L42.2371 71.8C42.414 71.8937 42.5389 71.9977 42.6221 72.133C42.7054 72.2683 42.747 72.4036 42.7574 72.5701C42.7782 72.9239 42.7886 73.2881 42.799 73.6627C42.8094 74.0373 42.8094 74.4119 42.8094 74.7761C42.8094 75.2131 42.8094 75.5461 42.8094 75.7855C42.8094 76.0248 42.8094 76.3162 42.799 76.6804C42.799 76.826 42.7366 76.9925 42.6221 77.1694C42.5701 77.2527 42.5181 77.3255 42.4556 77.3775C42.4036 77.44 42.3412 77.4816 42.2891 77.5128V77.6689C42.3412 77.6689 42.3724 77.6585 42.4036 77.6585C42.6117 77.6377 42.7782 77.6169 42.9135 77.6065C43.0071 77.6377 43.1216 77.6273 43.2153 77.6273Z" fill="#4B2613"/>
<path d="M54.2145 77.6482C54.3289 77.6482 54.4642 77.6482 54.5995 77.6586C54.7348 77.6691 54.9117 77.6795 55.1198 77.7003V77.5962C54.8596 77.4713 54.7244 77.2424 54.714 76.9198C54.6723 76.1706 54.6619 75.463 54.6619 74.797V73.9438C54.6619 73.642 54.6619 73.3923 54.6619 73.1945C54.6619 72.9968 54.6723 72.8095 54.6827 72.6326C54.6931 72.4453 54.7348 72.2788 54.7868 72.1332C54.8388 71.9875 54.9325 71.873 55.0573 71.8106V71.7273C54.9637 71.7273 54.8284 71.7377 54.6411 71.7585C54.433 71.7689 54.2873 71.7794 54.2041 71.7794C54.0896 71.7794 53.9751 71.7794 53.8503 71.769C53.7254 71.7585 53.5589 71.7481 53.3404 71.7273V71.8106C53.4965 71.9146 53.6005 72.0291 53.6526 72.1644C53.7046 72.2892 53.7254 72.4453 53.7358 72.6326C53.767 73.257 53.7878 73.8397 53.7878 74.3912C53.2988 74.4016 52.8201 74.412 52.331 74.412C51.7587 74.412 51.2592 74.4016 50.8118 74.3808V73.8917C50.8118 73.3298 50.8222 72.924 50.843 72.6638C50.8534 72.4765 50.895 72.2996 50.9471 72.154C50.9991 72.0083 51.0927 71.8938 51.2176 71.8314V71.7273C51.0927 71.7273 50.9575 71.7377 50.8118 71.7585C50.5933 71.7689 50.4372 71.7794 50.3539 71.7794C50.2395 71.7794 50.1146 71.7794 49.9897 71.769C49.8648 71.7585 49.6984 71.7481 49.4902 71.7273V71.8106C49.6463 71.9146 49.74 72.0291 49.792 72.154C49.844 72.2788 49.8752 72.4349 49.8857 72.6222C49.9065 72.976 49.9169 73.3402 49.9273 73.7148C49.9377 74.0894 49.9377 74.4641 49.9377 74.8283C49.9377 75.7752 49.9377 76.4932 49.9273 76.9719C49.9273 77.128 49.8857 77.2528 49.8128 77.3569C49.74 77.4609 49.6463 77.5442 49.5319 77.6066V77.7107C49.7192 77.6899 49.8752 77.6795 50.0001 77.669C50.125 77.6586 50.2499 77.6586 50.3643 77.6586C50.4892 77.6586 50.6141 77.6586 50.7493 77.669C50.8846 77.6795 51.0615 77.6899 51.2696 77.7107V77.6066C51.0095 77.4817 50.8742 77.2528 50.8638 76.9302C50.8222 76.181 50.8118 75.4734 50.8118 74.8074V74.7866C51.3113 74.7762 51.8107 74.7658 52.331 74.7658C52.8097 74.7658 53.2884 74.7762 53.7878 74.7866V74.8179C53.7878 75.7648 53.7878 76.4828 53.7774 76.9615C53.7774 77.1175 53.7358 77.2424 53.6734 77.3465C53.6109 77.4505 53.5069 77.5338 53.3924 77.5962V77.7003C53.5797 77.6795 53.7358 77.6691 53.8711 77.6586C53.9856 77.6482 54.1 77.6482 54.2145 77.6482Z" fill="#4B2613"/>
<path d="M57.9396 72.1333C58.231 72.1333 58.5015 72.1957 58.7513 72.3206C59.001 72.4455 59.2195 72.6328 59.4068 72.8825C59.5941 73.1322 59.7398 73.434 59.8439 73.7878C59.9479 74.1416 60 74.5474 60 74.9949C60 75.3487 59.9479 75.6817 59.8439 75.973C59.7398 76.2644 59.5941 76.5141 59.4068 76.7222C59.2195 76.9304 59.001 77.0864 58.7513 77.1905C58.5015 77.2946 58.231 77.3466 57.9396 77.3466C57.6586 77.3466 57.3985 77.2738 57.1488 77.1281C56.899 76.9824 56.6909 76.7743 56.5036 76.5141C56.3163 76.254 56.181 75.9522 56.077 75.6192C55.9729 75.2862 55.9209 74.9324 55.9209 74.5682C55.9209 74.204 55.9729 73.871 56.0665 73.5797C56.1602 73.2779 56.3059 73.0282 56.4828 72.8097C56.6597 72.6015 56.8782 72.435 57.1175 72.3206C57.3881 72.1853 57.6586 72.1333 57.9396 72.1333ZM57.9396 71.7066C57.5338 71.7066 57.1488 71.7899 56.7846 71.946C56.4204 72.1021 56.0978 72.3206 55.8272 72.6119C55.5567 72.8929 55.3381 73.2259 55.1821 73.5901C55.026 73.9543 54.9531 74.3393 54.9531 74.7451C54.9531 75.151 55.026 75.5256 55.1821 75.9002C55.3381 76.2644 55.5463 76.5974 55.8272 76.8783C56.0978 77.1593 56.4204 77.3778 56.7846 77.5339C57.1488 77.69 57.5338 77.7732 57.9396 77.7732C58.3454 77.7732 58.7304 77.7004 59.0946 77.5443C59.4589 77.3986 59.7814 77.1801 60.052 76.9095C60.3225 76.639 60.5411 76.306 60.6971 75.9314C60.8532 75.5568 60.9261 75.1614 60.9261 74.7347C60.9261 74.3185 60.8636 73.9335 60.7284 73.5693C60.5931 73.2051 60.4058 72.8825 60.1456 72.6119C59.8855 72.331 59.5733 72.1229 59.1987 71.9564C58.8345 71.7899 58.4079 71.7066 57.9396 71.7066Z" fill="#4B2613"/>
<path d="M63.3509 77.7627C63.6943 77.7627 63.9857 77.7419 64.2354 77.6899C64.4747 77.6378 64.6933 77.5442 64.8806 77.3881C65.0679 77.232 65.224 77.0031 65.328 76.6805C65.4321 76.3683 65.4945 75.9417 65.4945 75.4214C65.4945 75.3798 65.4945 75.2757 65.5049 75.1092C65.5049 74.9427 65.5049 74.8387 65.5049 74.797C65.5049 74.3288 65.5049 73.923 65.5049 73.59C65.5049 73.257 65.5153 72.9344 65.5257 72.6326C65.5361 72.3829 65.5674 72.1956 65.6194 72.0811C65.6714 71.9667 65.7651 71.873 65.9108 71.8002V71.7273C65.8067 71.7273 65.6714 71.7377 65.4945 71.7585C65.2864 71.7689 65.1407 71.7794 65.0575 71.7794C65.0158 71.7794 64.9222 71.7794 64.8077 71.769C64.662 71.7585 64.5268 71.7481 64.4123 71.7377V71.821C64.5892 71.925 64.7037 72.0291 64.7557 72.1332C64.8077 72.2372 64.8389 72.4037 64.8494 72.6326C64.8598 72.8199 64.8598 73.1217 64.8598 73.5171C64.8598 73.7252 64.8598 73.9438 64.8598 74.1935C64.8598 74.5577 64.8494 74.7762 64.8494 74.8387V75.1821C64.8494 75.3694 64.8494 75.5359 64.8389 75.6711C64.8285 76.0353 64.7973 76.3371 64.7349 76.5556C64.6725 76.7846 64.5892 76.951 64.4747 77.0655C64.3603 77.18 64.225 77.2528 64.0585 77.2944C63.892 77.3361 63.6839 77.3569 63.4342 77.3569C63.2469 77.3569 63.0804 77.3361 62.9451 77.3048C62.8098 77.2736 62.6849 77.2008 62.5809 77.0967C62.4664 76.9927 62.3832 76.8366 62.3103 76.6389C62.2375 76.4308 62.2063 76.1706 62.1959 75.8376C62.1855 75.5879 62.1855 75.3902 62.1751 75.2445C62.1751 75.0988 62.1751 74.9531 62.1751 74.8074V73.9542C62.1751 73.6524 62.1751 73.4027 62.1751 73.205C62.1751 73.0072 62.1855 72.8199 62.1959 72.643C62.2063 72.4557 62.2479 72.2892 62.2999 72.1332C62.352 71.9875 62.4456 71.873 62.5705 71.8106V71.7273C62.4768 71.7273 62.3416 71.7377 62.1647 71.7585C61.9565 71.7689 61.8109 71.7794 61.7172 71.7794C61.6027 71.7794 61.4883 71.7794 61.3634 71.769C61.2385 71.7585 61.072 71.7481 60.8535 71.7273V71.8106C61.0096 71.9146 61.1033 72.0291 61.1553 72.1644C61.2073 72.2996 61.2385 72.4453 61.2489 72.6222C61.2593 72.9032 61.2593 73.1113 61.2593 73.2674C61.2593 73.4755 61.2593 73.7461 61.2489 74.079C61.2385 74.4536 61.2385 74.7034 61.2385 74.8491C61.2385 74.9531 61.2385 75.1508 61.2489 75.463L61.2593 75.9625C61.2593 76.3475 61.3322 76.6701 61.4675 76.9094C61.6027 77.1592 61.7692 77.3361 61.9773 77.4609C62.1855 77.5858 62.404 77.6586 62.6329 77.7003C62.8514 77.7419 63.0908 77.7627 63.3509 77.7627Z" fill="#4B2613"/>
<path d="M67.2005 77.742C67.5126 77.742 67.7832 77.69 68.0329 77.5963C68.2723 77.5027 68.47 77.3674 68.6261 77.2009C68.7822 77.0344 68.907 76.8575 68.9799 76.6494C69.0527 76.4517 69.0943 76.2332 69.0943 76.0251C69.0943 75.8273 69.0527 75.6504 68.9799 75.4735C68.907 75.3071 68.803 75.151 68.6885 75.0053C68.5636 74.8596 68.4388 74.7347 68.3035 74.6203C68.1682 74.5058 68.0017 74.3809 67.7936 74.2248C67.4294 73.9543 67.1588 73.715 66.9819 73.5277C66.805 73.3299 66.7218 73.1114 66.7218 72.8617C66.7218 72.6536 66.7946 72.4767 66.9507 72.3206C67.1068 72.1645 67.2629 72.0917 67.4398 72.0917C67.5855 72.0917 67.7312 72.1229 67.8768 72.1749C68.0225 72.2269 68.1682 72.3102 68.2931 72.4246C68.3243 72.4559 68.3659 72.5287 68.4284 72.6432C68.4908 72.7576 68.5532 72.8513 68.6053 72.9137C68.6573 72.9761 68.7197 73.0074 68.7822 73.0074C68.8446 73.0074 68.8966 72.9866 68.9174 72.9449C68.9486 72.9033 68.9591 72.8721 68.9591 72.8409C68.9591 72.7368 68.9487 72.5807 68.9278 72.3726C68.907 72.1437 68.8966 71.9668 68.8966 71.8523C68.8966 71.8315 68.8862 71.8107 68.855 71.7899C68.8342 71.7691 68.7822 71.7587 68.7197 71.7587C68.6469 71.7587 68.5844 71.7691 68.5428 71.7795C68.5012 71.7899 68.4596 71.8107 68.418 71.8211C68.4075 71.8315 68.3971 71.8315 68.3867 71.8315C68.3139 71.8315 68.189 71.8107 68.0121 71.7691C67.7936 71.7274 67.6271 71.7066 67.5126 71.7066C67.2421 71.7066 67.0132 71.7483 66.8155 71.8419C66.6177 71.9356 66.4512 72.05 66.316 72.1957C66.1807 72.3414 66.087 72.5079 66.0246 72.6848C65.9622 72.8617 65.931 73.0386 65.931 73.2259C65.931 73.4028 65.9622 73.5797 66.035 73.7358C66.0974 73.8919 66.1911 74.0375 66.3056 74.1624C66.42 74.2873 66.5345 74.4122 66.6698 74.5058C66.7946 74.6099 66.9611 74.7347 67.1693 74.87C67.3566 75.0053 67.5126 75.1197 67.6271 75.2134C67.7416 75.3071 67.856 75.4111 67.9601 75.5256C68.0642 75.64 68.1474 75.7649 68.1994 75.8898C68.2619 76.0251 68.2931 76.1707 68.2931 76.3268C68.2931 76.4933 68.2619 76.639 68.2098 76.7639C68.1474 76.8887 68.0746 77.0032 67.9809 77.0864C67.8873 77.1697 67.7832 77.2321 67.6791 77.2738C67.5751 77.3154 67.4606 77.3362 67.3566 77.3362C67.2213 77.3362 67.0548 77.2842 66.8675 77.1905C66.6802 77.0969 66.5241 76.972 66.3992 76.8367C66.3472 76.7743 66.2848 76.6598 66.2223 76.4933C66.1807 76.3893 66.1391 76.3164 66.1079 76.2644C66.0766 76.2228 66.0454 76.1915 66.0038 76.1915C65.9101 76.1915 65.8477 76.2228 65.8061 76.2852C65.7645 76.3476 65.7437 76.4101 65.7437 76.4725C65.7437 76.5453 65.7437 76.6286 65.7541 76.7222C65.7645 76.8055 65.7749 76.8887 65.7853 76.9512C65.7853 76.9928 65.7957 77.0136 65.7957 77.024C65.7957 77.1489 65.8165 77.2529 65.8581 77.3258C65.8997 77.3986 65.983 77.4611 66.0975 77.4923C66.1287 77.5027 66.1807 77.5131 66.2639 77.5443C66.4617 77.6067 66.6281 77.6484 66.7634 77.6796C66.8779 77.7212 67.0236 77.742 67.2005 77.742Z" fill="#4B2613"/>
<path d="M70.1664 77.6273C70.2809 77.6273 70.4786 77.6273 70.7804 77.6273C70.9989 77.6273 71.2486 77.6377 71.54 77.6377H72.5598C72.7575 77.6377 72.8928 77.6065 72.9552 77.5544C73.0176 77.5024 73.0593 77.4296 73.0905 77.3359L73.1009 77.3255C73.1321 77.2111 73.1945 77.055 73.309 76.8573C73.4027 76.6804 73.4547 76.5659 73.4547 76.5035C73.4547 76.4931 73.4339 76.4722 73.4027 76.441C73.361 76.4098 73.3194 76.3994 73.2674 76.3994C73.2153 76.3994 73.1529 76.4306 73.1009 76.4826C73.0489 76.5347 72.976 76.6179 72.8824 76.722C72.7575 76.8781 72.6638 76.9821 72.591 77.0342C72.4661 77.1382 72.3413 77.2111 72.2164 77.2319C72.0915 77.2631 71.925 77.2735 71.7273 77.2735C71.592 77.2735 71.4672 77.2631 71.3527 77.2527C71.2382 77.2423 71.1342 77.2111 71.0301 77.1694C70.9261 77.1278 70.8428 77.0654 70.7804 76.9821C70.7179 76.8989 70.6763 76.8052 70.6763 76.6804C70.6555 76.2849 70.6451 75.952 70.6347 75.6814C70.6243 75.4108 70.6243 75.1091 70.6243 74.7761C71.0717 74.7761 71.3943 74.7865 71.6024 74.8073C71.7585 74.8177 71.9042 74.8593 72.0187 74.9114C72.1331 74.9634 72.2268 75.0571 72.2892 75.2027H72.5806C72.5702 75.0466 72.5702 74.953 72.5702 74.901C72.5702 74.8489 72.5702 74.7657 72.5702 74.6304C72.5702 74.5159 72.5806 74.3703 72.6014 74.2142C72.6118 74.1309 72.6222 74.0581 72.6222 73.9957H72.3308C72.2268 74.1621 72.1227 74.2662 72.0291 74.3182C71.9354 74.3703 71.8106 74.3911 71.6649 74.4015C71.592 74.4015 71.488 74.4119 71.3527 74.4119C71.1966 74.4119 70.9573 74.4119 70.6347 74.4015V73.8916C70.6347 73.3089 70.6451 72.8822 70.6659 72.6117C70.6659 72.5597 70.6763 72.5076 70.6763 72.4452C70.6763 72.2891 70.6867 72.185 70.7075 72.133L70.9261 72.1122C71.155 72.0914 71.3215 72.081 71.4255 72.081C71.7481 72.081 71.9771 72.1122 72.1331 72.1746C72.2892 72.2371 72.3933 72.3203 72.4661 72.4348C72.4661 72.4348 72.4765 72.4556 72.4973 72.4764C72.5182 72.5284 72.5494 72.5701 72.5806 72.6013C72.6118 72.6325 72.6638 72.6429 72.7263 72.6429C72.7783 72.6429 72.8199 72.6325 72.8511 72.6117C72.8824 72.5909 72.8928 72.5701 72.8928 72.5492C72.8928 72.4868 72.8824 72.4036 72.872 72.2891C72.8511 72.1434 72.8407 72.0081 72.8407 71.8833C72.8407 71.8416 72.8095 71.8104 72.7575 71.7792C72.7055 71.748 72.6326 71.7376 72.5494 71.7168C72.4661 71.7064 72.3829 71.696 72.31 71.696C72.2372 71.696 72.1435 71.696 72.0395 71.696C71.8938 71.696 71.6545 71.7064 71.3215 71.7272C71.2799 71.7272 71.207 71.7376 71.1238 71.7376C70.9469 71.748 70.7908 71.7584 70.6659 71.7584C70.541 71.7584 70.437 71.7688 70.3642 71.7688C70.2705 71.7688 70.1352 71.7584 69.9479 71.748C69.771 71.7376 69.5421 71.7168 69.2819 71.6856L69.1675 71.6752L69.1883 71.8C69.3652 71.8937 69.4901 71.9977 69.5733 72.133C69.6566 72.2683 69.6982 72.4036 69.7086 72.5701C69.7294 72.9239 69.7398 73.2881 69.7502 73.6627C69.7606 74.0373 69.7606 74.4119 69.7606 74.7761C69.7606 75.2131 69.7606 75.5461 69.7606 75.7855C69.7606 76.0248 69.7606 76.3162 69.7502 76.6804C69.7502 76.826 69.6878 76.9925 69.5733 77.1694C69.5213 77.2527 69.4692 77.3255 69.4068 77.3775C69.3444 77.44 69.2924 77.4816 69.2403 77.5128V77.6689C69.2924 77.6689 69.3236 77.6585 69.3548 77.6585C69.5629 77.6377 69.7294 77.6169 69.8647 77.6065C69.9583 77.6377 70.0728 77.6273 70.1664 77.6273Z" fill="#4B2613"/>
<path d="M50.3851 46.4931C48.7722 48.5951 47.2633 50.6138 45.8481 52.5597C45.2446 53.3922 44.6202 54.2246 43.9959 55.0675C43.3611 55.9104 42.7576 56.7324 42.1853 57.5129C41.613 58.3037 41.0615 59.0321 40.5412 59.7085C40.0209 60.3849 39.5942 60.9572 39.2508 61.4359H50.3643V65.1299H31.946C33.5276 63.028 35.0365 61.0092 36.4829 59.0633C37.0864 58.2309 37.7108 57.3984 38.3559 56.5555C39.0011 55.7127 39.615 54.8906 40.1874 54.1102C40.7597 53.3193 41.3112 52.5909 41.8315 51.9145C42.3518 51.2382 42.7784 50.6658 43.1218 50.1872H31.9355V46.4931H50.3851Z" fill="#4B2613"/>
<path d="M21.9563 46.4931C23.2467 46.4931 24.4433 46.7324 25.5568 47.2215C26.6702 47.7106 27.6379 48.3662 28.4704 49.2194C29.3029 50.0623 29.9584 51.0509 30.4475 52.1643C30.9262 53.2881 31.1655 54.4952 31.1655 55.7959V65.1403H27.5131V61.4463V59.8542V55.7959C27.5131 55.0259 27.3674 54.2975 27.0864 53.6211C26.7951 52.9447 26.3996 52.3516 25.9002 51.8313C25.3903 51.3214 24.8075 50.9156 24.1312 50.6242C23.4652 50.3329 22.7368 50.1872 21.9772 50.1872C21.2071 50.1872 20.4891 50.3329 19.8023 50.6242C19.1156 50.9156 18.5224 51.3214 18.0125 51.8313C17.5027 52.3412 17.1072 52.9343 16.8263 53.6211C16.5349 54.2975 16.3996 55.0259 16.3996 55.7959C16.3996 56.5659 16.5453 57.3048 16.8263 58.0019C17.1176 58.6887 17.5131 59.2923 18.0125 59.8126C18.5224 60.3224 19.1156 60.7283 19.8023 61.0196C20.4891 61.311 21.2175 61.4567 21.9772 61.4567H24.8596V65.1507H21.9563C20.6972 65.1507 19.5006 64.9114 18.3767 64.4223C17.2529 63.9333 16.2644 63.2673 15.4215 62.4036C14.5682 61.5503 13.9126 60.5514 13.4236 59.4171C12.9449 58.2829 12.7056 57.0758 12.7056 55.8063C12.7056 54.5056 12.9449 53.2985 13.4236 52.1747C13.9022 51.0509 14.5682 50.0727 15.4215 49.2298C16.2748 48.387 17.2529 47.721 18.3767 47.2319C19.511 46.7324 20.6972 46.4931 21.9563 46.4931Z" fill="#4B2613"/>
<path d="M69.6048 46.4931C67.9919 48.5951 66.4831 50.6138 65.0679 52.5597C64.4643 53.3922 63.84 54.2246 63.2156 55.0675C62.5809 55.9104 61.9773 56.7324 61.405 57.5129C60.8327 58.3037 60.2812 59.0321 59.7609 59.7085C59.2406 60.3849 58.814 60.9572 58.4706 61.4359H69.584V65.1299H51.1657C52.7474 63.028 54.2562 61.0092 55.7026 59.0633C56.3062 58.2309 56.9305 57.3984 57.5757 56.5555C58.2208 55.7127 58.8348 54.8906 59.4071 54.1102C59.9794 53.3193 60.5309 52.5909 61.0512 51.9145C61.5715 51.2382 61.9981 50.6658 62.3415 50.1872H51.1553V46.4931H69.6048Z" fill="#4B2613"/>
<path d="M78.075 46.4931C79.3653 46.4931 80.562 46.7324 81.6754 47.2215C82.7888 47.7106 83.7566 48.3662 84.589 49.2194C85.4215 50.0623 86.0771 51.0509 86.5662 52.1643C87.0448 53.2881 87.2842 54.4952 87.2842 55.7959V65.1403H83.6317V61.4463V59.8542V55.7959C83.6317 55.0259 83.486 54.2975 83.2051 53.6211C82.9137 52.9447 82.5183 52.3516 82.0084 51.8313C81.4985 51.3214 80.9158 50.9156 80.2394 50.6242C79.5734 50.3329 78.845 50.1872 78.0854 50.1872C77.3154 50.1872 76.5974 50.3329 75.9106 50.6242C75.2238 50.9156 74.6307 51.3214 74.1208 51.8313C73.6109 52.3412 73.2155 52.9343 72.9345 53.6211C72.6432 54.2975 72.5079 55.0259 72.5079 55.7959C72.5079 56.5659 72.6536 57.3048 72.9345 58.0019C73.2259 58.6887 73.6213 59.2923 74.1208 59.8126C74.6307 60.3224 75.2238 60.7283 75.9106 61.0196C76.5974 61.311 77.3258 61.4567 78.0854 61.4567H80.9574V65.1507H78.075C76.8159 65.1507 75.6192 64.9114 74.4954 64.4223C73.3716 63.9333 72.383 63.2673 71.5401 62.4036C70.6869 61.5503 70.0313 60.5514 69.5422 59.4171C69.0635 58.2829 68.8242 57.0758 68.8242 55.8063C68.8242 54.5056 69.0635 53.2985 69.5422 52.1747C70.0209 51.0509 70.6869 50.0727 71.5401 49.2298C72.3934 48.387 73.3716 47.721 74.4954 47.2319C75.6296 46.7324 76.8159 46.4931 78.075 46.4931Z" fill="#4B2613"/>
</svg>
