<svg width="170" height="50" viewBox="0 0 170 50" fill="none" xmlns="http://www.w3.org/2000/svg">
<path d="M163.731 49.4989V49.4987H163.717L6.28262 49.4987L6.27766 49.4987C5.51722 49.5063 4.76286 49.3613 4.05871 49.0723C3.35456 48.7833 2.71468 48.356 2.17658 47.8153C1.63848 47.2746 1.21298 46.6313 0.925099 45.9231C0.637216 45.2149 0.492772 44.456 0.500278 43.6908H0.500302V43.6859V6.3181C0.525409 4.78254 1.14364 3.31734 2.2237 2.23204C3.30367 1.14682 4.76068 0.52649 6.28666 0.50128L163.717 0.501305L163.722 0.501256C164.483 0.493723 165.237 0.63867 165.941 0.927676C166.645 1.21669 167.285 1.64399 167.823 2.18469L168.178 1.83199L167.823 2.18469C168.362 2.7254 168.787 3.36866 169.075 4.0769C169.363 4.78514 169.507 5.54405 169.5 6.30918V6.31409L169.5 43.8122L169.5 43.8156C169.505 44.5736 169.358 45.3248 169.068 46.0244C168.779 46.7241 168.352 47.3579 167.813 47.8881C167.275 48.4183 166.636 48.834 165.935 49.1107C165.234 49.3874 164.484 49.5194 163.731 49.4989Z" stroke="white"/>
<path d="M59.9477 14.8476C59.9463 15.7626 59.6356 16.6502 59.0661 17.3664C58.52 17.9164 57.8226 18.2915 57.0626 18.4439C56.3026 18.5962 55.5145 18.5188 54.7986 18.2217C54.0827 17.9245 53.4715 17.421 53.0428 16.7753C52.6141 16.1295 52.3873 15.3708 52.3913 14.5957C52.3868 14.0817 52.4847 13.572 52.6793 13.0963C52.8739 12.6206 53.1613 12.1884 53.5247 11.825C53.8882 11.4616 54.3203 11.1742 54.796 10.9796C55.2717 10.785 55.7814 10.6871 56.2954 10.6916C56.8218 10.6971 57.3396 10.8265 57.8067 11.0694C58.1845 11.0694 58.5623 11.4472 58.9401 11.6991L58.3104 12.3288C58.0543 12.0162 57.7247 11.7721 57.351 11.6182C56.9774 11.4644 56.5714 11.4056 56.1695 11.4472C55.7887 11.4312 55.4092 11.5023 55.06 11.6551C54.7109 11.8079 54.4011 12.0383 54.1544 12.3288C53.8517 12.593 53.6145 12.9239 53.4615 13.2955C53.3086 13.667 53.244 14.069 53.2728 14.4697C53.244 14.8705 53.3086 15.2725 53.4615 15.644C53.6145 16.0156 53.8517 16.3465 54.1544 16.6107C54.7029 17.1304 55.4156 17.4422 56.1695 17.4923C56.5689 17.509 56.9671 17.4389 57.3368 17.2867C57.7064 17.1345 58.0386 16.9038 58.3104 16.6107C58.5119 16.4143 58.6716 16.1792 58.7798 15.9195C58.888 15.6597 58.9425 15.3808 58.9401 15.0994H56.1695V14.2179H59.8217C59.8217 14.4698 59.9477 14.5957 59.9477 14.8476Z" fill="white" stroke="white" stroke-width="0.16" stroke-miterlimit="10"/>
<path d="M65.7409 11.6985H62.3405V14.0913H65.489V14.9729H62.3405V17.3658H65.7409V18.2473H61.333V10.8169H65.7409V11.6985Z" fill="white" stroke="white" stroke-width="0.16" stroke-miterlimit="10"/>
<path d="M69.7711 18.2473H68.7635V11.6985H66.6226V10.8169H71.7861V11.6985H69.6451V18.2473H69.7711Z" fill="white" stroke="white" stroke-width="0.16" stroke-miterlimit="10"/>
<path d="M75.6902 18.2473V10.8169H76.6977V18.2473H75.6902Z" fill="white" stroke="white" stroke-width="0.16" stroke-miterlimit="10"/>
<path d="M80.9798 18.2473H79.9723V11.6985H77.8313V10.8169H82.9948V11.6985H80.8539C80.9798 11.6985 80.9798 18.2473 80.9798 18.2473Z" fill="white" stroke="white" stroke-width="0.16" stroke-miterlimit="10"/>
<path d="M92.9442 17.2398C92.3981 17.7898 91.7006 18.1649 90.9407 18.3172C90.1807 18.4696 89.3925 18.3922 88.6767 18.0951C87.9608 17.7979 87.3496 17.2944 86.9208 16.6486C86.4921 16.0029 86.2653 15.2442 86.2693 14.4691C86.2693 13.4336 86.6807 12.4406 87.4128 11.7084C88.145 10.9763 89.138 10.5649 90.1735 10.5649C91.2089 10.5649 92.2019 10.9763 92.9341 11.7084C93.6663 12.4406 94.0776 13.4336 94.0776 14.4691C94.0919 14.9844 93.9985 15.497 93.8033 15.9741C93.6082 16.4512 93.3155 16.8823 92.9442 17.2398ZM88.1584 16.6101C88.6927 17.1508 89.4138 17.4663 90.1735 17.4916C90.5543 17.5076 90.9337 17.4365 91.2829 17.2837C91.6321 17.131 91.9418 16.9006 92.1885 16.6101C92.7534 16.0407 93.0703 15.2711 93.0701 14.4691C93.099 14.0683 93.0344 13.6663 92.8814 13.2948C92.7284 12.9233 92.4912 12.5923 92.1885 12.3281C91.6543 11.7874 90.9332 11.4719 90.1735 11.4465C89.7927 11.4305 89.4132 11.5016 89.0641 11.6544C88.7149 11.8072 88.4052 12.0376 88.1584 12.3281C87.5935 12.8974 87.2766 13.667 87.2769 14.4691C87.248 14.8698 87.3126 15.2718 87.4656 15.6434C87.6185 16.0149 87.8557 16.3458 88.1584 16.6101Z" fill="white" stroke="white" stroke-width="0.16" stroke-miterlimit="10"/>
<path d="M95.4629 18.2473V10.8169H96.5963L100.249 16.6101V10.8169H101.256V18.2473H100.249L96.3445 12.2022V18.2473H95.4629Z" fill="white" stroke="white" stroke-width="0.16" stroke-miterlimit="10"/>
<path d="M86.0174 29.2049C84.9766 29.2293 83.9661 29.5604 83.1125 30.1565C82.2589 30.7526 81.6002 31.5874 81.2188 32.5561C80.8374 33.5249 80.7503 34.5847 80.9684 35.6027C81.1865 36.6208 81.7001 37.5518 82.4449 38.2793C83.1897 39.0068 84.1326 39.4984 85.1555 39.6925C86.1784 39.8866 87.2359 39.7746 88.1954 39.3705C89.1549 38.9664 89.9739 38.2882 90.5498 37.4209C91.1257 36.5535 91.4328 35.5355 91.4328 34.4943C91.4464 33.7852 91.3146 33.0809 91.0456 32.4247C90.7766 31.7685 90.3761 31.1743 89.8687 30.6788C89.3614 30.1832 88.7579 29.7968 88.0956 29.5433C87.4332 29.2898 86.726 29.1746 86.0174 29.2049ZM86.0174 37.6428C85.1943 37.5769 84.4261 37.2033 83.866 36.5965C83.3059 35.9897 82.9948 35.1942 82.9948 34.3684C82.9948 33.5426 83.3059 32.7471 83.866 32.1403C84.4261 31.5335 85.1943 31.1599 86.0174 31.094C86.4352 31.0967 86.848 31.1852 87.2302 31.354C87.6123 31.5229 87.9558 31.7684 88.2391 32.0754C88.5225 32.3824 88.7398 32.7443 88.8776 33.1388C89.0154 33.5332 89.0706 33.9517 89.04 34.3684C89.0706 34.7851 89.0154 35.2036 88.8776 35.598C88.7398 35.9925 88.5225 36.3544 88.2391 36.6614C87.9558 36.9684 87.6123 37.2139 87.2302 37.3827C86.848 37.5516 86.4352 37.6401 86.0174 37.6428ZM74.305 29.2049C73.2642 29.2293 72.2537 29.5604 71.4001 30.1565C70.5465 30.7526 69.8877 31.5874 69.5064 32.5561C69.125 33.5249 69.0379 34.5847 69.256 35.6027C69.4741 36.6208 69.9877 37.5518 70.7325 38.2793C71.4773 39.0068 72.4202 39.4984 73.4431 39.6925C74.466 39.8866 75.5234 39.7746 76.483 39.3705C77.4425 38.9664 78.2615 38.2882 78.8374 37.4209C79.4133 36.5535 79.7204 35.5355 79.7204 34.4943C79.734 33.7852 79.6022 33.0809 79.3332 32.4247C79.0642 31.7685 78.6637 31.1743 78.1563 30.6788C77.649 30.1832 77.0455 29.7968 76.3832 29.5433C75.7208 29.2898 75.0136 29.1746 74.305 29.2049ZM74.305 37.6428C73.4819 37.5769 72.7137 37.2033 72.1536 36.5965C71.5935 35.9897 71.2824 35.1942 71.2824 34.3684C71.2824 33.5426 71.5935 32.7471 72.1536 32.1403C72.7137 31.5335 73.4819 31.1599 74.305 31.094C74.7228 31.0967 75.1356 31.1852 75.5178 31.354C75.8999 31.5229 76.2434 31.7684 76.5267 32.0754C76.8101 32.3824 77.0274 32.7443 77.1652 33.1388C77.3029 33.5332 77.3582 33.9517 77.3276 34.3684C77.3582 34.7851 77.3029 35.2036 77.1652 35.598C77.0274 35.9925 76.8101 36.3544 76.5267 36.6614C76.2434 36.9684 75.8999 37.2139 75.5178 37.3827C75.1356 37.5516 74.7228 37.6401 74.305 37.6428ZM60.3257 30.8421V33.109H65.7411C65.6647 34.1531 65.2181 35.1355 64.4817 35.8797C63.9393 36.4244 63.2901 36.851 62.5749 37.1328C61.8597 37.4145 61.0939 37.5453 60.3257 37.5169C59.5355 37.5248 58.7519 37.3728 58.0219 37.0702C57.2918 36.7676 56.6305 36.3206 56.0777 35.7559C55.5248 35.1913 55.0918 34.5207 54.8046 33.7845C54.5174 33.0483 54.382 32.2616 54.4065 31.4718C54.3927 30.6847 54.5354 29.9027 54.8264 29.1713C55.1174 28.4399 55.5509 27.7735 56.1016 27.2111C56.6524 26.6486 57.3094 26.2012 58.0346 25.8949C58.7597 25.5886 59.5385 25.4294 60.3257 25.4267C61.8655 25.4413 63.3456 26.0244 64.4817 27.0639L66.1189 25.4267C64.5995 23.9582 62.5647 23.1443 60.4516 23.1597C59.3599 23.1424 58.2754 23.3405 57.2603 23.7426C56.2451 24.1448 55.3192 24.7431 54.5355 25.5034C53.7518 26.2637 53.1257 27.1711 52.693 28.1736C52.2602 29.1761 52.0294 30.254 52.0137 31.3458C52.0665 33.544 52.9804 35.6335 54.5586 37.1645C56.1367 38.6955 58.2529 39.5457 60.4516 39.5319C61.4728 39.5982 62.4965 39.4501 63.4571 39.0972C64.4176 38.7443 65.2937 38.1944 66.0291 37.4828C66.7644 36.7711 67.3428 35.9136 67.727 34.9651C68.1112 34.0167 68.2927 32.9983 68.2599 31.9755C68.2866 31.5101 68.2441 31.0432 68.134 30.5902C68.008 30.8421 60.3257 30.8421 60.3257 30.8421ZM117.502 32.4793C117.16 31.5082 116.532 30.6636 115.7 30.0566C114.868 29.4496 113.872 29.1088 112.843 29.0789C112.159 29.0779 111.483 29.2159 110.855 29.4846C110.226 29.7533 109.659 30.1471 109.188 30.6419C108.717 31.1367 108.351 31.7223 108.113 32.3629C107.876 33.0036 107.771 33.6859 107.805 34.3684C107.788 35.0677 107.913 35.7631 108.173 36.4126C108.433 37.062 108.822 37.652 109.316 38.1466C109.811 38.6412 110.401 39.0302 111.05 39.29C111.7 39.5498 112.395 39.6749 113.095 39.6579C113.989 39.6636 114.871 39.4481 115.662 39.0306C116.453 38.6132 117.128 38.0066 117.628 37.265L115.739 36.0056C115.468 36.4659 115.081 36.8474 114.618 37.1124C114.154 37.3775 113.629 37.5169 113.095 37.5169C112.542 37.5294 111.999 37.3813 111.529 37.0907C111.06 36.8001 110.685 36.3794 110.45 35.8797L117.628 32.983C117.754 33.109 117.502 32.4793 117.502 32.4793ZM110.198 34.2424C110.172 33.4635 110.444 32.7039 110.959 32.1187C111.474 31.5336 112.193 31.1671 112.969 31.094C113.376 31.0804 113.779 31.179 114.135 31.3788C114.49 31.5787 114.784 31.8722 114.984 32.2274C114.984 32.3533 110.198 34.2424 110.198 34.2424ZM104.405 39.406H106.798V23.9154H104.405V39.406ZM100.501 30.3383C99.7226 29.5927 98.6813 29.1852 97.6039 29.2049C96.2307 29.2609 94.9309 29.8399 93.9709 30.8234C93.0108 31.8068 92.4633 33.1202 92.4404 34.4943C92.4417 35.8751 92.9823 37.2008 93.9468 38.1888C94.9113 39.1768 96.2236 39.7492 97.6039 39.7838C98.1334 39.816 98.6628 39.718 99.1458 39.4985C99.6287 39.2789 100.051 38.9445 100.375 38.5244H100.501V39.28C100.57 39.9748 100.384 40.6711 99.9758 41.2379C99.568 41.8047 98.9671 42.203 98.2862 42.3577C97.6053 42.5125 96.8913 42.4131 96.2786 42.0782C95.6659 41.7433 95.1966 41.1961 94.9592 40.5394L92.9441 41.421C93.3454 42.3571 94.013 43.1546 94.8639 43.7144C95.7147 44.2742 96.7113 44.5716 97.7298 44.5695C100.501 44.5695 102.893 42.9323 102.893 39.0282V29.4567H100.501V30.3383ZM97.7298 37.6428C96.9121 37.6244 96.1349 37.2828 95.5684 36.6927C95.002 36.1026 94.6923 35.3122 94.7073 34.4943C94.6874 34.0801 94.7501 33.666 94.8918 33.2762C95.0336 32.8864 95.2514 32.5288 95.5327 32.224C95.814 31.9193 96.1532 31.6735 96.5304 31.5012C96.9076 31.3288 97.3153 31.2331 97.7298 31.2199C98.1378 31.2365 98.5383 31.3354 98.9071 31.5107C99.2759 31.6859 99.6055 31.9339 99.876 32.2398C100.147 32.5456 100.353 32.903 100.481 33.2904C100.61 33.6778 100.66 34.0873 100.626 34.4943C100.658 34.8947 100.607 35.2972 100.476 35.6769C100.345 36.0565 100.137 36.405 99.865 36.7005C99.5931 36.9961 99.2632 37.2323 98.8958 37.3944C98.5284 37.5566 98.1314 37.6411 97.7298 37.6428ZM128.585 23.9154H122.918V39.406H125.311V33.4868H128.585C129.239 33.5157 129.893 33.4144 130.508 33.1889C131.122 32.9633 131.686 32.6179 132.167 32.1727C132.647 31.7276 133.034 31.1915 133.306 30.5955C133.577 29.9996 133.728 29.3557 133.749 28.7011C133.729 28.0462 133.579 27.4018 133.308 26.8054C133.036 26.209 132.649 25.6725 132.169 25.2272C131.688 24.7818 131.124 24.4365 130.509 24.2113C129.894 23.9861 129.24 23.8855 128.585 23.9154ZM128.585 31.3458H125.185V26.0564H128.585C128.943 26.0397 129.3 26.0958 129.635 26.2212C129.971 26.3466 130.277 26.5387 130.536 26.786C130.795 27.0332 131.001 27.3304 131.142 27.6596C131.283 27.9887 131.356 28.3431 131.356 28.7011C131.356 29.0591 131.283 29.4135 131.142 29.7426C131.001 30.0718 130.795 30.369 130.536 30.6162C130.277 30.8634 129.971 31.0556 129.635 31.181C129.3 31.3064 128.943 31.3625 128.585 31.3458ZM143.194 29.0789C142.341 29.0107 141.487 29.2028 140.745 29.6301C140.003 30.0573 139.408 30.6994 139.038 31.4718L141.179 32.3533C141.388 31.9777 141.702 31.6708 142.082 31.4696C142.462 31.2685 142.892 31.1817 143.32 31.2199C143.921 31.1551 144.523 31.3306 144.995 31.7081C145.467 32.0857 145.77 32.6345 145.839 33.2349V33.3609C145.067 32.939 144.2 32.7222 143.32 32.7312C141.053 32.7312 138.786 33.9906 138.786 36.2575C138.81 36.7403 138.931 37.2134 139.142 37.6483C139.353 38.0833 139.65 38.4711 140.015 38.7886C140.379 39.1062 140.804 39.3468 141.264 39.4962C141.724 39.6455 142.209 39.7005 142.69 39.6579C143.283 39.6936 143.874 39.5728 144.404 39.3074C144.935 39.0421 145.386 38.6418 145.713 38.1466H145.839V39.406H148.106V33.3609C148.07 32.7551 147.914 32.1625 147.647 31.6177C147.38 31.073 147.007 30.587 146.549 30.1882C146.092 29.7895 145.56 29.486 144.984 29.2955C144.407 29.105 143.799 29.0314 143.194 29.0789ZM142.942 37.6428C142.187 37.6428 141.053 37.265 141.053 36.3834C141.053 35.124 142.438 34.7462 143.572 34.7462C144.315 34.7487 145.047 34.921 145.713 35.25C145.59 35.9037 145.25 36.4965 144.746 36.9312C144.243 37.366 143.607 37.6169 142.942 37.6428ZM156.292 29.4567L153.647 36.2575H153.521L150.751 29.4567H148.232L152.388 38.9022L149.995 44.1917H152.514L158.937 29.4567H156.292ZM135.008 39.406H137.401V23.9154H135.008V39.406Z" fill="white"/>
<path d="M13.2242 9.44678C12.7931 9.93028 12.5672 10.5627 12.5945 11.2099V38.7908C12.5672 39.438 12.7931 40.0704 13.2242 40.5539L13.3501 40.6799L28.9667 25.1893V24.8114L13.2242 9.44678Z" fill="url(#paint0_linear)"/>
<path d="M34.1301 30.3533L28.9666 25.1898V24.812L34.1301 19.6484L34.256 19.7744L40.4271 23.3007C42.1902 24.3082 42.1902 25.9454 40.4271 26.9529L34.1301 30.3533Z" fill="url(#paint1_linear)"/>
<path d="M34.2561 30.2265L28.9666 24.937L13.2241 40.5536C13.8538 41.1833 14.7354 41.1833 15.8689 40.6795L34.2561 30.2265Z" fill="url(#paint2_linear)"/>
<path d="M34.2561 19.6479L15.8689 9.32083C15.485 9.02408 15.008 8.87376 14.5233 8.89684C14.0386 8.91992 13.5781 9.11488 13.2241 9.44677L28.9666 24.9374L34.2561 19.6479Z" fill="url(#paint3_linear)"/>
<defs>
<linearGradient id="paint0_linear" x1="27.5494" y1="39.062" x2="6.61165" y2="17.877" gradientUnits="userSpaceOnUse">
<stop stop-color="#00A0FF"/>
<stop offset="0.0066" stop-color="#00A1FF"/>
<stop offset="0.2601" stop-color="#00BEFF"/>
<stop offset="0.5122" stop-color="#00D2FF"/>
<stop offset="0.7604" stop-color="#00DFFF"/>
<stop offset="1" stop-color="#00E3FF"/>
</linearGradient>
<linearGradient id="paint1_linear" x1="42.7494" y1="25.0009" x2="12.2027" y2="25.0009" gradientUnits="userSpaceOnUse">
<stop stop-color="#FFE000"/>
<stop offset="0.4087" stop-color="#FFBD00"/>
<stop offset="0.7754" stop-color="#FFA500"/>
<stop offset="1" stop-color="#FF9C00"/>
</linearGradient>
<linearGradient id="paint2_linear" x1="20.8528" y1="32.5055" x2="-7.54048" y2="3.77697" gradientUnits="userSpaceOnUse">
<stop stop-color="#FF3A44"/>
<stop offset="1" stop-color="#C31162"/>
</linearGradient>
<linearGradient id="paint3_linear" x1="-1.27503" y1="39.3011" x2="11.4038" y2="26.4726" gradientUnits="userSpaceOnUse">
<stop stop-color="#32A071"/>
<stop offset="0.0685" stop-color="#2DA771"/>
<stop offset="0.4762" stop-color="#15CF74"/>
<stop offset="0.8009" stop-color="#06E775"/>
<stop offset="1" stop-color="#00F076"/>
</linearGradient>
</defs>
</svg>
