<svg width="179" height="134" viewBox="0 0 179 134" fill="none" xmlns="http://www.w3.org/2000/svg">
<path fill-rule="evenodd" clip-rule="evenodd" d="M0.958069 111.707L89.9172 111.037L178.876 111.707L89.9172 112.651L0.958069 111.707Z" fill="#4B2613"/>
<path fill-rule="evenodd" clip-rule="evenodd" d="M67.6711 0.651367H112.138V0.651471H78.4964V0.651482C77.0319 0.651635 75.642 0.924728 74.3513 1.42115C73.0602 1.9922 71.8933 2.76187 70.9002 3.73017C69.907 4.72329 69.1374 5.86539 68.5663 7.15645C67.9953 8.47234 67.7222 9.86272 67.7222 11.3772C67.7222 12.8669 67.9953 14.2573 68.5663 15.5732C69.1374 16.8891 69.907 18.056 70.9002 19.0491C71.8933 20.0422 73.0354 20.8119 74.3513 21.383C75.6672 21.954 77.0824 22.2271 78.5472 22.2271H81.9239V17.9567H78.5472C77.6534 17.9567 76.7844 17.8077 75.9899 17.4601C75.1954 17.1374 74.5003 16.6656 73.9044 16.0697C73.3085 15.4739 72.8616 14.7787 72.514 13.9842C72.1912 13.1649 72.0174 12.3207 72.0174 11.4269C72.0174 10.5331 72.1664 9.68892 72.514 8.89442C72.8368 8.12475 73.3085 7.42956 73.9044 6.83368C74.5003 6.23781 75.1954 5.79091 75.9899 5.44331C76.8093 5.12055 77.6534 4.94675 78.5472 4.94675C79.4411 4.94675 80.2852 5.09572 81.0797 5.44331C81.8494 5.76608 82.5446 6.23781 83.1404 6.83368C83.7363 7.42956 84.1832 8.09992 84.5308 8.89442C84.8536 9.68892 85.0274 10.5331 85.0274 11.4269V16.1194V17.9567V22.2768H89.2978V11.4517C89.2978 9.9372 89.0247 8.522 88.4537 7.23094C88.0889 6.39034 87.643 5.62066 87.1161 4.92191H103.697C103.484 5.21521 103.234 5.53716 102.957 5.89542C102.718 6.20435 102.458 6.54029 102.182 6.90816C101.562 7.70266 100.916 8.54682 100.246 9.46546C99.9477 9.84871 99.6496 10.2457 99.3457 10.6504L99.3454 10.6507C98.9406 11.1898 98.5253 11.7429 98.0858 12.2959C97.3161 13.2642 96.5961 14.2325 95.876 15.2008C94.1877 17.4601 92.4249 19.794 90.5628 22.2271H112.138V33.2207C112.036 32.1162 111.775 31.0717 111.344 30.0979C110.773 28.782 110.003 27.6399 109.035 26.6716C108.042 25.7033 106.9 24.9336 105.609 24.3626C104.293 23.7915 102.902 23.5184 101.388 23.5184C99.8982 23.5184 98.5078 23.8163 97.2415 24.3626C95.9505 24.9336 94.7836 25.7033 93.7904 26.6716C92.7973 27.6647 92.0276 28.8068 91.4566 30.0979C90.8855 31.4137 90.6124 32.8041 90.6124 34.3186C90.6124 35.8083 90.8855 37.1987 91.4566 38.5146C91.8213 39.3392 92.2671 40.1132 92.8004 40.8236H76.2121C76.4254 40.5303 76.6745 40.2084 76.9517 39.8501L76.952 39.8498L76.9525 39.849C77.1913 39.5404 77.451 39.2048 77.7266 38.8374C77.8935 38.6148 78.0644 38.3883 78.2385 38.1574L78.2388 38.1571C78.6863 37.5638 79.1559 36.9412 79.6384 36.28C80.0052 35.8084 80.3721 35.3159 80.7463 34.8137L80.7463 34.8136L80.7465 34.8134C81.0813 34.364 81.4219 33.9068 81.7736 33.4496C82.5184 32.4813 83.2385 31.5131 83.9585 30.5448C85.622 28.2854 87.3847 25.9516 89.2717 23.5184H67.696V27.7888H80.8053C80.592 28.0821 80.3429 28.4041 80.0656 28.7624L80.0655 28.7625L80.0653 28.7628C79.8264 29.0716 79.5666 29.4074 79.2908 29.7751C79.1238 29.9977 78.953 30.2242 78.7788 30.4551C78.3312 31.0485 77.8616 31.6711 77.379 32.3324C77.0809 32.7157 76.7827 33.1127 76.4787 33.5176L76.4786 33.5177L76.4785 33.5179C76.0737 34.057 75.6585 34.6099 75.219 35.1628C74.4494 36.131 73.7294 37.0992 73.0094 38.0674L73.0093 38.0677C71.321 40.327 69.5582 42.6609 67.696 45.094H100.369C100.693 45.1246 101.02 45.1409 101.35 45.1434H67.6711V0.651367ZM104.814 45.1434H107.918V40.8733V39.036V34.3435C107.918 33.4496 107.744 32.6055 107.421 31.811C107.073 31.0165 106.627 30.3461 106.031 29.7503C105.435 29.1544 104.74 28.6826 103.97 28.3599C103.175 28.0123 102.331 27.8633 101.438 27.8633C100.544 27.8633 99.6995 28.0371 98.8802 28.3599C98.0857 28.7075 97.3905 29.1544 96.7946 29.7503C96.1988 30.3461 95.727 31.0413 95.4043 31.811C95.0567 32.6055 94.9077 33.4496 94.9077 34.3435C94.9077 35.2373 95.0815 36.0814 95.4043 36.9008C95.7519 37.6953 96.1988 38.3904 96.7946 38.9863C97.3905 39.5822 98.0857 40.0539 98.8802 40.3767C99.4146 40.6105 99.9826 40.7544 100.569 40.8236H104.74V40.8733H104.814V45.1434ZM112.138 17.9567V0.651742C110.251 3.0848 108.489 5.41856 106.825 7.67783L106.825 7.67795C106.105 8.6462 105.385 9.61446 104.64 10.5827C104.289 11.04 103.948 11.4973 103.613 11.9467C103.239 12.449 102.872 12.9414 102.505 13.4131C102.023 14.0744 101.553 14.6971 101.105 15.2904L101.104 15.292L101.104 15.2921C100.93 15.5225 100.76 15.7484 100.593 15.9704C100.318 16.3377 100.058 16.6732 99.8197 16.9817L99.8191 16.9823L99.819 16.9826L99.8185 16.9832L99.8185 16.9832C99.5413 17.3414 99.2922 17.6634 99.0789 17.9567H112.138Z" fill="#4B2613"/>
<path d="M45.8968 121.689C46.0706 121.689 46.1948 121.639 46.2444 121.565C46.2941 121.49 46.3437 121.391 46.3437 121.316C46.3437 121.167 46.3437 120.969 46.3189 120.696C46.2941 120.298 46.2693 120.025 46.2693 119.876C46.2693 119.603 46.2444 119.38 46.1948 119.231C46.1451 119.082 46.021 119.007 45.8224 119.007C45.6982 119.007 45.5989 119.007 45.5244 119.032C45.4499 119.057 45.4251 119.082 45.4251 119.107C45.2761 119.107 45.003 119.057 44.6058 118.958C44.4072 118.908 44.283 118.883 44.2582 118.883C43.7368 118.784 43.2402 118.709 42.7437 118.635C42.2471 118.56 41.8002 118.536 41.4029 118.536C40.3105 118.536 39.3174 118.734 38.4236 119.132C37.5049 119.529 36.7353 120.075 36.0649 120.77C35.4194 121.465 34.898 122.26 34.5504 123.154C34.2028 124.047 34.029 124.991 34.029 125.959C34.029 126.928 34.2028 127.821 34.5752 128.715C34.9476 129.584 35.4442 130.379 36.1146 131.049C36.7601 131.719 37.5298 132.241 38.3987 132.613C39.2677 132.986 40.1864 133.184 41.1547 133.184C42.0237 133.184 42.8182 133.11 43.5382 132.961C44.2582 132.812 44.9534 132.564 45.5989 132.241C45.9962 132.067 46.2444 131.819 46.3437 131.546C46.3686 131.471 46.4431 131.322 46.5175 131.148C46.6665 130.85 46.7658 130.602 46.8651 130.403C46.9396 130.205 46.9893 130.081 46.9893 130.031C46.9893 130.006 46.9396 129.957 46.8651 129.907C46.7907 129.857 46.6913 129.832 46.5672 129.832C46.4679 129.832 46.3437 129.882 46.2444 129.981C46.1451 130.081 46.021 130.205 45.8968 130.379C45.7975 130.503 45.7479 130.577 45.6734 130.627C45.2016 131.124 44.5313 131.496 43.6623 131.744C43.2899 131.868 42.9175 131.943 42.545 131.992C42.1726 132.042 41.825 132.067 41.4774 132.067C40.8071 132.067 40.1367 131.893 39.516 131.546C38.8953 131.198 38.3243 130.726 37.8525 130.106C37.3808 129.485 36.9835 128.79 36.7104 127.995C36.4373 127.201 36.2884 126.381 36.2884 125.512C36.2884 124.643 36.4125 123.849 36.6608 123.129C36.9091 122.409 37.2566 121.763 37.7284 121.242C38.2001 120.696 38.7712 120.298 39.4415 120.001C40.1119 119.703 40.8567 119.554 41.6761 119.554C42.1478 119.554 42.5947 119.603 42.9919 119.678C43.3892 119.777 43.7864 119.901 44.1837 120.1C44.3823 120.199 44.5561 120.323 44.7051 120.497C44.8541 120.646 45.0279 120.845 45.2016 121.093C45.3754 121.292 45.4996 121.441 45.5989 121.54C45.6734 121.639 45.7727 121.689 45.8968 121.689Z" fill="#4B2613"/>
<path d="M51.9797 126.58C51.657 126.58 51.1604 126.58 50.5149 126.555V126.505L52.0542 122.533L53.4942 126.505V126.555C52.8239 126.58 52.3273 126.58 51.9797 126.58ZM53.668 120.869L52.8735 118.833H52.1784C51.4832 118.833 50.7135 118.783 49.8942 118.709L49.9687 118.908C50.3411 119.181 50.639 119.479 50.8625 119.826C51.0859 120.174 51.2101 120.497 51.2101 120.844C51.2101 120.968 51.2101 121.043 51.1852 121.092L47.2872 130.974C47.0886 131.471 46.8403 131.843 46.5672 132.141C46.2693 132.414 45.9217 132.638 45.5244 132.787L45.301 133.06C45.7479 132.985 46.0955 132.936 46.3686 132.911C46.6417 132.886 46.9148 132.886 47.1631 132.886C47.3865 132.886 47.61 132.886 47.8583 132.911C48.1065 132.936 48.4293 132.985 48.8017 133.035V132.836C48.6031 132.638 48.5038 132.414 48.5038 132.141C48.5038 132.017 48.5038 131.893 48.5286 131.818C48.5534 131.719 48.6031 131.595 48.6776 131.396V131.371L50.1176 127.473C50.6638 127.424 51.3094 127.399 52.0542 127.399C52.6004 127.399 53.1963 127.424 53.8915 127.473L55.1577 131.049C55.1826 131.098 55.2074 131.173 55.2322 131.322C55.257 131.446 55.2819 131.57 55.2819 131.694C55.2819 131.868 55.1826 132.091 54.9591 132.389C54.8101 132.588 54.7357 132.712 54.7357 132.811V133.06C55.2074 132.985 55.6295 132.936 55.9771 132.886C56.3247 132.861 56.6474 132.836 56.995 132.836C57.2681 132.836 57.5909 132.861 57.9137 132.886C58.2364 132.911 58.6337 132.985 59.0806 133.06V132.787C58.733 132.638 58.435 132.414 58.2116 132.141C57.9881 131.868 57.7647 131.52 57.6157 131.073L53.668 120.869Z" fill="#4B2613"/>
<path d="M60.7689 132.861C61.0668 132.861 61.3647 132.861 61.6875 132.886C62.0103 132.911 62.4075 132.935 62.9289 132.985V132.737C62.3082 132.439 61.9854 131.893 61.9358 131.123C61.8613 129.484 61.8117 128.019 61.8117 126.703C61.8365 126.679 61.8861 126.629 61.911 126.579C62.0103 126.455 62.1096 126.331 62.2089 126.232C62.5068 126.579 62.8296 126.952 63.1524 127.374C63.4751 127.796 63.8972 128.342 64.3938 129.013C64.5924 129.286 64.791 129.559 64.94 129.757C65.0393 129.881 65.2131 130.105 65.4366 130.428C65.7842 130.875 66.0573 131.247 66.3055 131.52C66.529 131.793 66.8021 132.066 67.1249 132.315C67.4228 132.563 67.7952 132.762 68.1925 132.886C68.5897 133.035 69.0366 133.109 69.5332 133.109C70.0546 133.109 70.5263 133.035 70.9732 132.861C71.4201 132.687 71.6436 132.563 71.6436 132.488C71.6436 132.439 71.6188 132.389 71.5691 132.339C71.5195 132.29 71.3953 132.29 71.1967 132.29C71.0477 132.29 70.9236 132.29 70.8243 132.315C70.725 132.339 70.6505 132.364 70.6008 132.364C70.5263 132.389 70.4767 132.389 70.4518 132.389C69.9801 132.389 69.4835 132.116 68.9125 131.545C68.3663 130.974 67.6463 130.08 66.7525 128.888C66.4793 128.566 66.1566 128.144 65.7842 127.647C64.7414 126.331 63.9965 125.363 63.5496 124.717C63.6241 124.643 63.7234 124.519 63.8476 124.37C64.5676 123.575 65.1386 122.905 65.6104 122.408C66.0821 121.887 66.529 121.39 66.9759 120.919C67.398 120.472 67.8449 120.074 68.2918 119.702C68.7387 119.33 69.2104 119.081 69.6573 118.907L69.856 118.659C69.4836 118.684 69.1111 118.709 68.7139 118.734C68.2173 118.759 67.8449 118.783 67.6463 118.783C67.2738 118.783 66.6531 118.734 65.809 118.659L65.6104 118.907C65.6848 119.032 65.7097 119.181 65.7097 119.379C65.7097 119.627 65.66 119.901 65.5359 120.174C65.4117 120.447 65.2876 120.695 65.1138 120.919C64.6421 121.564 64.1207 122.234 63.5496 122.905C62.9786 123.575 62.3827 124.221 61.762 124.866C61.762 123.972 61.762 123.228 61.762 122.632C61.762 122.036 61.7868 121.465 61.8117 120.919C61.8365 120.472 61.9358 120.074 62.0599 119.727C62.1841 119.379 62.4075 119.106 62.7055 118.957V118.758C62.4572 118.758 62.1344 118.783 61.7123 118.833C61.2158 118.858 60.8682 118.883 60.6696 118.883C60.3965 118.883 60.0985 118.883 59.8006 118.858C59.5026 118.833 59.1054 118.808 58.6088 118.758V118.957C58.9812 119.205 59.2047 119.479 59.3288 119.801C59.453 120.099 59.5275 120.472 59.5523 120.894C59.602 121.738 59.6268 122.632 59.6516 123.526C59.6764 124.419 59.6764 125.313 59.6764 126.182C59.6764 128.441 59.6764 130.155 59.6516 131.297C59.6516 131.669 59.5523 131.967 59.3785 132.215C59.2047 132.464 58.9812 132.662 58.7081 132.811V133.059C59.155 133.01 59.5275 132.985 59.8254 132.96C60.1978 132.861 60.4958 132.861 60.7689 132.861Z" fill="#4B2613"/>
<path d="M73.7291 132.836C74.0022 132.836 74.474 132.836 75.194 132.836C75.7154 132.836 76.3113 132.861 77.0065 132.861H79.4396C79.9113 132.861 80.2341 132.786 80.3831 132.662C80.532 132.538 80.6314 132.364 80.7058 132.141L80.7307 132.116C80.8052 131.843 80.9541 131.47 81.2272 130.999C81.4507 130.577 81.5748 130.304 81.5748 130.155C81.5748 130.13 81.5252 130.08 81.4507 130.006C81.3514 129.931 81.2521 129.906 81.1279 129.906C81.0038 129.906 80.8548 129.981 80.7307 130.105C80.6065 130.229 80.4327 130.428 80.2093 130.676C79.9113 131.048 79.6879 131.297 79.5141 131.421C79.2162 131.669 78.9182 131.843 78.6203 131.893C78.3223 131.967 77.9251 131.992 77.4534 131.992C77.1306 131.992 76.8327 131.967 76.5595 131.942C76.2864 131.917 76.0382 131.843 75.7899 131.744C75.5416 131.644 75.343 131.495 75.194 131.297C75.045 131.098 74.9457 130.875 74.9457 130.577C74.8961 129.633 74.8712 128.839 74.8464 128.193C74.8216 127.548 74.8216 126.828 74.8216 126.033C75.8892 126.033 76.6589 126.058 77.1554 126.108C77.5278 126.132 77.8754 126.232 78.1485 126.356C78.4217 126.48 78.6451 126.703 78.7941 127.051H79.4893C79.4644 126.679 79.4644 126.455 79.4644 126.331C79.4644 126.207 79.4644 126.008 79.4644 125.685C79.4644 125.412 79.4893 125.065 79.5389 124.692C79.5638 124.494 79.5886 124.32 79.5886 124.171H78.8934C78.6451 124.568 78.3968 124.816 78.1734 124.941C77.9499 125.065 77.652 125.114 77.3044 125.139C77.1306 125.139 76.8823 125.164 76.5595 125.164C76.1871 125.164 75.6161 125.164 74.8464 125.139V123.923C74.8464 122.532 74.8712 121.514 74.9209 120.869C74.9209 120.745 74.9457 120.621 74.9457 120.472C74.9457 120.099 74.9705 119.851 75.0202 119.727L75.5416 119.677C76.0878 119.627 76.4851 119.603 76.7333 119.603C77.503 119.603 78.0492 119.677 78.4217 119.826C78.7941 119.975 79.0424 120.174 79.2162 120.447C79.2162 120.447 79.241 120.496 79.2906 120.546C79.3403 120.67 79.4148 120.77 79.4893 120.844C79.5637 120.918 79.6879 120.943 79.8369 120.943C79.961 120.943 80.0603 120.918 80.1348 120.869C80.2093 120.819 80.2341 120.77 80.2341 120.72C80.2341 120.571 80.2093 120.372 80.1844 120.099C80.1348 119.752 80.11 119.429 80.11 119.131C80.11 119.032 80.0355 118.957 79.9113 118.883C79.7872 118.808 79.6134 118.783 79.4148 118.734C79.2162 118.709 79.0175 118.684 78.8437 118.684C78.6699 118.684 78.4465 118.684 78.1982 118.684C77.8506 118.684 77.2796 118.709 76.4851 118.758C76.3857 118.758 76.212 118.783 76.0133 118.783C75.5912 118.808 75.2188 118.833 74.9209 118.833C74.623 118.833 74.3747 118.858 74.2009 118.858C73.9774 118.858 73.6547 118.833 73.2078 118.808C72.7857 118.783 72.2394 118.734 71.6187 118.659L71.3456 118.634L71.3953 118.932C71.8174 119.156 72.1153 119.404 72.3139 119.727C72.5126 120.049 72.6119 120.372 72.6367 120.769C72.6864 121.614 72.7112 122.483 72.736 123.376C72.7608 124.27 72.7608 125.164 72.7608 126.033C72.7608 127.076 72.7608 127.87 72.7608 128.441C72.7608 129.012 72.7608 129.708 72.736 130.577C72.736 130.924 72.587 131.321 72.3139 131.744C72.1898 131.942 72.0657 132.116 71.9167 132.24C71.7925 132.389 71.6436 132.488 71.5194 132.563V132.935C71.6436 132.935 71.7181 132.91 71.7925 132.91C72.2891 132.861 72.6864 132.811 73.0091 132.786C73.2326 132.861 73.5057 132.836 73.7291 132.836Z" fill="#4B2613"/>
<path d="M99.9724 132.886C100.246 132.886 100.568 132.886 100.891 132.91C101.214 132.935 101.636 132.96 102.132 133.01V132.761C101.512 132.463 101.189 131.917 101.164 131.148C101.065 129.36 101.04 127.672 101.04 126.083V124.047C101.04 123.327 101.04 122.731 101.04 122.259C101.04 121.787 101.065 121.34 101.09 120.918C101.115 120.471 101.214 120.074 101.338 119.727C101.462 119.379 101.686 119.106 101.983 118.957V118.758C101.76 118.758 101.437 118.783 100.99 118.833C100.494 118.858 100.146 118.882 99.9476 118.882C99.6745 118.882 99.4014 118.882 99.1034 118.858C98.8055 118.833 98.4082 118.808 97.8868 118.758V118.957C98.2593 119.205 98.5075 119.478 98.6317 119.801C98.7558 120.099 98.8055 120.471 98.8303 120.918C98.9048 122.408 98.9545 123.798 98.9545 125.114C97.7875 125.139 96.6454 125.164 95.4785 125.164C94.113 125.164 92.9212 125.139 91.8536 125.089V123.923C91.8536 122.582 91.8784 121.614 91.9281 120.993C91.9529 120.546 92.0522 120.124 92.1764 119.776C92.3005 119.429 92.524 119.156 92.8219 119.007V118.758C92.524 118.758 92.2012 118.783 91.8536 118.833C91.3322 118.858 90.9598 118.882 90.7612 118.882C90.4881 118.882 90.1901 118.882 89.8922 118.858C89.5942 118.833 89.197 118.808 88.7004 118.758V118.957C89.0729 119.205 89.2963 119.478 89.4205 119.776C89.5446 120.074 89.6191 120.447 89.6439 120.894C89.6936 121.738 89.7184 122.607 89.7432 123.5C89.768 124.394 89.768 125.288 89.768 126.157C89.768 128.416 89.768 130.13 89.7432 131.272C89.7432 131.644 89.6439 131.942 89.4701 132.19C89.2963 132.439 89.0729 132.637 88.7998 132.786V133.034C89.2467 132.985 89.6191 132.96 89.917 132.935C90.215 132.91 90.5129 132.91 90.786 132.91C91.0839 132.91 91.3819 132.91 91.7046 132.935C92.0274 132.96 92.4495 132.985 92.9461 133.034V132.786C92.3253 132.488 92.0026 131.942 91.9777 131.172C91.8784 129.385 91.8536 127.696 91.8536 126.107V126.058C93.0454 126.033 94.2371 126.008 95.4785 126.008C96.6206 126.008 97.7627 126.033 98.9545 126.058V126.132C98.9545 128.392 98.9545 130.105 98.9296 131.247C98.9296 131.619 98.8303 131.917 98.6813 132.165C98.5324 132.414 98.2841 132.612 98.011 132.761V133.01C98.4579 132.96 98.8303 132.935 99.1531 132.91C99.4262 132.886 99.6993 132.886 99.9724 132.886Z" fill="#4B2613"/>
<path d="M108.861 119.727C109.556 119.727 110.202 119.876 110.798 120.174C111.393 120.472 111.915 120.919 112.362 121.515C112.809 122.11 113.156 122.83 113.405 123.675C113.653 124.519 113.777 125.487 113.777 126.555C113.777 127.399 113.653 128.193 113.405 128.889C113.156 129.584 112.809 130.18 112.362 130.676C111.915 131.173 111.393 131.545 110.798 131.793C110.202 132.042 109.556 132.166 108.861 132.166C108.191 132.166 107.57 131.992 106.974 131.644C106.378 131.297 105.882 130.8 105.435 130.18C104.988 129.559 104.665 128.839 104.417 128.044C104.169 127.25 104.044 126.406 104.044 125.537C104.044 124.668 104.169 123.873 104.392 123.178C104.615 122.458 104.963 121.862 105.385 121.341C105.807 120.844 106.329 120.447 106.9 120.174C107.545 119.851 108.191 119.727 108.861 119.727ZM108.861 118.709C107.893 118.709 106.974 118.908 106.105 119.28C105.236 119.652 104.466 120.174 103.821 120.869C103.175 121.539 102.654 122.334 102.282 123.203C101.909 124.072 101.735 124.991 101.735 125.959C101.735 126.927 101.909 127.821 102.282 128.715C102.654 129.584 103.151 130.378 103.821 131.049C104.466 131.719 105.236 132.24 106.105 132.613C106.974 132.985 107.893 133.184 108.861 133.184C109.829 133.184 110.748 133.01 111.617 132.638C112.486 132.29 113.256 131.769 113.901 131.123C114.547 130.478 115.068 129.683 115.44 128.789C115.813 127.895 115.987 126.952 115.987 125.934C115.987 124.941 115.838 124.022 115.515 123.153C115.192 122.284 114.745 121.515 114.125 120.869C113.504 120.199 112.759 119.702 111.865 119.305C110.996 118.908 109.978 118.709 108.861 118.709Z" fill="#4B2613"/>
<path d="M121.771 133.159C122.591 133.159 123.286 133.109 123.882 132.985C124.453 132.861 124.974 132.637 125.421 132.265C125.868 131.892 126.241 131.346 126.489 130.576C126.737 129.832 126.886 128.814 126.886 127.572C126.886 127.473 126.886 127.225 126.911 126.827C126.911 126.43 126.911 126.182 126.911 126.083C126.911 124.965 126.911 123.997 126.911 123.203C126.911 122.408 126.936 121.638 126.961 120.918C126.985 120.322 127.06 119.876 127.184 119.602C127.308 119.329 127.532 119.106 127.879 118.932V118.758C127.631 118.758 127.308 118.783 126.886 118.833C126.39 118.858 126.042 118.882 125.843 118.882C125.744 118.882 125.521 118.882 125.247 118.858C124.9 118.833 124.577 118.808 124.304 118.783V118.982C124.726 119.23 124.999 119.478 125.123 119.727C125.247 119.975 125.322 120.372 125.347 120.918C125.372 121.365 125.372 122.085 125.372 123.029C125.372 123.525 125.372 124.047 125.372 124.643C125.372 125.512 125.347 126.033 125.347 126.182V127.001C125.347 127.448 125.347 127.845 125.322 128.168C125.297 129.037 125.223 129.757 125.074 130.279C124.925 130.825 124.726 131.222 124.453 131.495C124.18 131.768 123.857 131.942 123.46 132.041C123.063 132.141 122.566 132.19 121.97 132.19C121.523 132.19 121.126 132.141 120.803 132.066C120.48 131.992 120.183 131.818 119.934 131.57C119.661 131.321 119.462 130.949 119.289 130.477C119.115 129.981 119.04 129.36 119.016 128.565C118.991 127.97 118.991 127.498 118.966 127.15C118.966 126.803 118.966 126.455 118.966 126.107V124.072C118.966 123.352 118.966 122.756 118.966 122.284C118.966 121.812 118.991 121.365 119.016 120.943C119.04 120.496 119.14 120.099 119.264 119.727C119.388 119.379 119.611 119.106 119.909 118.957V118.758C119.686 118.758 119.363 118.783 118.941 118.833C118.445 118.858 118.097 118.882 117.873 118.882C117.6 118.882 117.327 118.882 117.029 118.858C116.731 118.833 116.334 118.808 115.813 118.758V118.957C116.185 119.205 116.409 119.478 116.533 119.801C116.657 120.124 116.731 120.471 116.756 120.894C116.781 121.564 116.781 122.06 116.781 122.433C116.781 122.929 116.781 123.575 116.756 124.369C116.731 125.263 116.731 125.859 116.731 126.207C116.731 126.455 116.731 126.927 116.756 127.672L116.781 128.863C116.781 129.782 116.955 130.552 117.278 131.123C117.6 131.719 117.998 132.141 118.494 132.439C118.991 132.737 119.512 132.91 120.058 133.01C120.58 133.109 121.151 133.159 121.771 133.159Z" fill="#4B2613"/>
<path d="M130.958 133.109C131.703 133.109 132.348 132.985 132.944 132.762C133.515 132.538 133.987 132.215 134.359 131.818C134.732 131.421 135.03 130.999 135.203 130.502C135.377 130.031 135.477 129.509 135.477 129.013C135.477 128.541 135.377 128.119 135.203 127.697C135.03 127.3 134.781 126.927 134.508 126.58C134.21 126.232 133.912 125.934 133.59 125.661C133.267 125.388 132.87 125.09 132.373 124.717C131.504 124.072 130.859 123.501 130.436 123.054C130.014 122.582 129.816 122.061 129.816 121.465C129.816 120.968 129.99 120.546 130.362 120.174C130.734 119.801 131.107 119.628 131.529 119.628C131.877 119.628 132.224 119.702 132.572 119.826C132.919 119.95 133.267 120.149 133.565 120.422C133.639 120.497 133.739 120.67 133.888 120.944C134.037 121.217 134.186 121.44 134.31 121.589C134.434 121.738 134.583 121.813 134.732 121.813C134.881 121.813 135.005 121.763 135.055 121.664C135.129 121.564 135.154 121.49 135.154 121.415C135.154 121.167 135.129 120.795 135.079 120.298C135.03 119.752 135.005 119.33 135.005 119.057C135.005 119.007 134.98 118.957 134.906 118.908C134.856 118.858 134.732 118.833 134.583 118.833C134.409 118.833 134.26 118.858 134.161 118.883C134.061 118.908 133.962 118.957 133.863 118.982C133.838 119.007 133.813 119.007 133.788 119.007C133.614 119.007 133.317 118.957 132.894 118.858C132.373 118.759 131.976 118.709 131.703 118.709C131.057 118.709 130.511 118.808 130.039 119.032C129.567 119.255 129.17 119.528 128.847 119.876C128.525 120.224 128.301 120.621 128.152 121.043C128.003 121.465 127.929 121.887 127.929 122.334C127.929 122.756 128.003 123.178 128.177 123.55C128.326 123.923 128.55 124.27 128.823 124.568C129.096 124.866 129.369 125.164 129.692 125.388C129.99 125.636 130.387 125.934 130.883 126.257C131.33 126.58 131.703 126.853 131.976 127.076C132.249 127.3 132.522 127.548 132.77 127.821C133.019 128.094 133.217 128.392 133.341 128.69C133.49 129.013 133.565 129.36 133.565 129.733C133.565 130.13 133.49 130.478 133.366 130.775C133.217 131.073 133.043 131.347 132.82 131.545C132.597 131.744 132.348 131.893 132.1 131.992C131.852 132.091 131.579 132.141 131.33 132.141C131.008 132.141 130.61 132.017 130.163 131.793C129.716 131.57 129.344 131.272 129.046 130.949C128.922 130.8 128.773 130.527 128.624 130.13C128.525 129.882 128.425 129.708 128.351 129.584C128.276 129.484 128.202 129.41 128.103 129.41C127.879 129.41 127.73 129.484 127.631 129.633C127.532 129.782 127.482 129.931 127.482 130.08C127.482 130.254 127.482 130.453 127.507 130.676C127.532 130.875 127.556 131.073 127.581 131.222C127.581 131.322 127.606 131.371 127.606 131.396C127.606 131.694 127.656 131.942 127.755 132.116C127.854 132.29 128.053 132.439 128.326 132.513C128.401 132.538 128.525 132.563 128.723 132.638C129.195 132.787 129.592 132.886 129.915 132.96C130.188 133.06 130.536 133.109 130.958 133.109Z" fill="#4B2613"/>
<path d="M138.034 132.836C138.307 132.836 138.779 132.836 139.499 132.836C140.02 132.836 140.616 132.861 141.311 132.861H143.745C144.216 132.861 144.539 132.786 144.688 132.662C144.837 132.538 144.936 132.364 145.011 132.141L145.036 132.116C145.11 131.843 145.259 131.47 145.532 130.999C145.756 130.577 145.88 130.304 145.88 130.155C145.88 130.13 145.83 130.08 145.756 130.006C145.656 129.931 145.557 129.906 145.433 129.906C145.309 129.906 145.16 129.981 145.036 130.105C144.912 130.229 144.738 130.428 144.514 130.676C144.216 131.048 143.993 131.297 143.819 131.421C143.521 131.669 143.223 131.843 142.925 131.893C142.627 131.967 142.23 131.992 141.758 131.992C141.436 131.992 141.138 131.967 140.865 131.942C140.591 131.917 140.343 131.843 140.095 131.744C139.847 131.644 139.648 131.495 139.499 131.297C139.35 131.098 139.251 130.875 139.251 130.577C139.201 129.633 139.176 128.839 139.151 128.193C139.127 127.548 139.127 126.828 139.127 126.033C140.194 126.033 140.964 126.058 141.46 126.108C141.833 126.132 142.18 126.232 142.454 126.356C142.727 126.48 142.95 126.703 143.099 127.051H143.794C143.769 126.679 143.769 126.455 143.769 126.331C143.769 126.207 143.769 126.008 143.769 125.685C143.769 125.412 143.794 125.065 143.844 124.692C143.869 124.494 143.894 124.32 143.894 124.171H143.198C142.95 124.568 142.702 124.816 142.478 124.941C142.255 125.065 141.957 125.114 141.609 125.139C141.436 125.139 141.187 125.164 140.865 125.164C140.492 125.164 139.921 125.164 139.151 125.139V123.923C139.151 122.532 139.176 121.514 139.226 120.869C139.226 120.745 139.251 120.621 139.251 120.472C139.251 120.099 139.276 119.851 139.325 119.727L139.847 119.677C140.393 119.627 140.79 119.603 141.038 119.603C141.808 119.603 142.354 119.677 142.727 119.826C143.099 119.975 143.347 120.174 143.521 120.447C143.521 120.447 143.546 120.496 143.596 120.546C143.645 120.67 143.72 120.77 143.794 120.844C143.869 120.918 143.993 120.943 144.142 120.943C144.266 120.943 144.365 120.918 144.44 120.869C144.514 120.819 144.539 120.77 144.539 120.72C144.539 120.571 144.514 120.372 144.489 120.099C144.44 119.752 144.415 119.429 144.415 119.131C144.415 119.032 144.34 118.957 144.216 118.883C144.092 118.808 143.918 118.783 143.72 118.734C143.521 118.709 143.323 118.684 143.149 118.684C142.975 118.684 142.751 118.684 142.503 118.684C142.156 118.684 141.585 118.709 140.79 118.758C140.691 118.758 140.517 118.783 140.318 118.783C139.896 118.808 139.524 118.833 139.226 118.833C138.928 118.833 138.68 118.858 138.506 118.858C138.282 118.858 137.96 118.833 137.513 118.808C137.091 118.783 136.544 118.734 135.924 118.659L135.651 118.634L135.7 118.932C136.122 119.156 136.42 119.404 136.619 119.727C136.818 120.049 136.917 120.372 136.942 120.769C136.991 121.614 137.016 122.483 137.041 123.376C137.066 124.27 137.066 125.164 137.066 126.033C137.066 127.076 137.066 127.87 137.066 128.441C137.066 129.012 137.066 129.708 137.041 130.577C137.041 130.924 136.892 131.321 136.619 131.744C136.495 131.942 136.371 132.116 136.222 132.24C136.073 132.389 135.949 132.488 135.824 132.563V132.935C135.949 132.935 136.023 132.91 136.098 132.91C136.594 132.861 136.991 132.811 137.314 132.786C137.538 132.861 137.811 132.836 138.034 132.836Z" fill="#4B2613"/>
<path d="M90.8359 58.5498C86.9875 63.5651 83.3874 68.3817 80.0108 73.0246C78.5708 75.0108 77.0811 76.9971 75.5914 79.0082C74.0769 81.0193 72.6369 82.9807 71.2713 84.8428C69.9058 86.7297 68.5899 88.4677 67.3485 90.0815C66.1071 91.6954 65.0891 93.0609 64.2698 94.203H90.7862V103.017H46.8404C50.6143 98.0017 54.2144 93.185 57.6655 88.5422C59.1055 86.5559 60.5952 84.5697 62.1346 82.5586C63.6739 80.5475 65.1388 78.5861 66.5043 76.724C67.8699 74.8371 69.1858 73.0991 70.4272 71.4853C71.6686 69.8714 72.6865 68.5059 73.5059 67.3638H46.8156V58.5498H90.8359Z" fill="#4B2613"/>
<path d="M23.0053 58.5498C26.084 58.5498 28.9392 59.1209 31.5958 60.2878C34.2525 61.4547 36.5615 63.0189 38.5477 65.0548C40.534 67.0659 42.0981 69.4245 43.2651 72.0811C44.4072 74.7626 44.9782 77.6426 44.9782 80.7462V103.042H36.2635V94.2278V90.4291V80.7462C36.2635 78.9089 35.9159 77.1709 35.2456 75.5571C34.5504 73.9432 33.6069 72.528 32.4152 71.2866C31.1986 70.0701 29.8082 69.1018 28.1944 68.4066C26.6054 67.7114 24.8674 67.3638 23.055 67.3638C21.2177 67.3638 19.5045 67.7114 17.8659 68.4066C16.2272 69.1018 14.812 70.0701 13.5955 71.2866C12.3789 72.5032 11.4354 73.9184 10.765 75.5571C10.0699 77.1709 9.74709 78.9089 9.74709 80.7462C9.74709 82.5834 10.0947 84.3462 10.765 86.0097C11.4602 87.6484 12.4037 89.0884 13.5955 90.3298C14.812 91.5464 16.2272 92.5147 17.8659 93.2099C19.5045 93.905 21.2425 94.2526 23.055 94.2526H29.9324V103.067H23.0053C20.0011 103.067 17.1459 102.496 14.4644 101.329C11.783 100.162 9.42432 98.5728 7.41325 96.512C5.37734 94.4761 3.81317 92.0926 2.64625 89.3863C1.50415 86.6801 0.933105 83.8 0.933105 80.771C0.933105 77.6675 1.50415 74.7874 2.64625 72.106C3.78834 69.4245 5.37734 67.0907 7.41325 65.0796C9.44915 63.0685 11.783 61.4795 14.4644 60.3126C17.1707 59.1209 20.0011 58.5498 23.0053 58.5498Z" fill="#4B2613"/>
<path d="M136.693 58.5498C132.845 63.5651 129.245 68.3817 125.868 73.0246C124.428 75.0108 122.939 76.9971 121.449 79.0082C119.934 81.0193 118.494 82.9807 117.129 84.8428C115.763 86.7297 114.447 88.4677 113.206 90.0815C111.965 91.6954 110.947 93.0609 110.127 94.203H136.644V103.017H92.6979C96.4718 98.0017 100.072 93.185 103.523 88.5422C104.963 86.5559 106.453 84.5697 107.992 82.5586C109.531 80.5475 110.996 78.5861 112.362 76.724C113.727 74.8371 115.043 73.0991 116.285 71.4853C117.526 69.8714 118.544 68.5059 119.363 67.3638H92.6731V58.5498H136.693Z" fill="#4B2613"/>
<path d="M156.903 58.5498C159.982 58.5498 162.837 59.1209 165.494 60.2878C168.151 61.4547 170.46 63.0189 172.446 65.0548C174.432 67.0659 175.996 69.4245 177.163 72.0811C178.305 74.7626 178.876 77.6426 178.876 80.7462V103.042H170.162V94.2278V90.4291V80.7462C170.162 78.9089 169.814 77.1709 169.144 75.5571C168.448 73.9432 167.505 72.528 166.288 71.2866C165.072 70.0701 163.681 69.1018 162.068 68.4066C160.479 67.7114 158.741 67.3638 156.928 67.3638C155.091 67.3638 153.378 67.7114 151.739 68.4066C150.1 69.1018 148.685 70.0701 147.469 71.2866C146.252 72.5032 145.309 73.9184 144.638 75.5571C143.943 77.1709 143.62 78.9089 143.62 80.7462C143.62 82.5834 143.968 84.3462 144.638 86.0097C145.333 87.6484 146.277 89.0884 147.469 90.3298C148.685 91.5464 150.1 92.5147 151.739 93.2099C153.378 93.905 155.116 94.2526 156.928 94.2526H163.781V103.067H156.903C153.899 103.067 151.044 102.496 148.363 101.329C145.681 100.162 143.322 98.5728 141.311 96.512C139.275 94.4761 137.711 92.0926 136.544 89.3863C135.402 86.6801 134.831 83.8 134.831 80.771C134.831 77.6675 135.402 74.7874 136.544 72.106C137.686 69.4245 139.275 67.0907 141.311 65.0796C143.347 63.0685 145.681 61.4795 148.363 60.3126C151.069 59.1209 153.899 58.5498 156.903 58.5498Z" fill="#4B2613"/>
</svg>
