<svg width="170" height="50" viewBox="0 0 170 50" fill="none" xmlns="http://www.w3.org/2000/svg">
<path d="M5.91852 49.5H5.91795C5.20571 49.5008 4.50039 49.3622 3.84241 49.0921C3.18443 48.822 2.58683 48.4258 2.08373 47.9264C1.58064 47.427 1.18192 46.8342 0.910235 46.182C0.638551 45.5299 0.499178 44.8311 0.500004 44.1256V44.125L0.500004 5.87504L0.500004 5.87446C0.499178 5.16897 0.638551 4.47015 0.910235 3.818C1.18192 3.16584 1.58064 2.57305 2.08373 2.07365C2.58683 1.57425 3.18443 1.17807 3.84241 0.907979C4.50039 0.637883 5.20571 0.49923 5.91795 0.500052H5.91852L163.956 0.500056L163.958 0.500047C165.411 0.494052 166.807 1.05657 167.844 2.06463C168.88 3.07155 169.474 4.44191 169.5 5.87918V44C169.5 45.4573 168.916 46.8557 167.877 47.8874C166.838 48.9192 165.427 49.4997 163.956 49.5H5.91852Z" stroke="white"/>
<path d="M38.0233 24.7505C38.045 23.5177 38.377 22.3102 38.9887 21.2397C39.6005 20.1691 40.4722 19.27 41.5233 18.6255C40.8594 17.6787 39.9812 16.9022 38.9603 16.3591C37.9393 15.8161 36.8045 15.5219 35.6483 15.5005C33.1483 15.2505 30.7733 17.0005 29.5234 17.0005C28.2734 17.0005 26.2734 15.5005 24.2734 15.6255C22.9369 15.6748 21.6359 16.0691 20.4969 16.77C19.3579 17.471 18.4197 18.4547 17.7734 19.6255C14.8984 24.5005 17.0234 31.7505 19.7734 35.7505C21.1484 37.7505 22.7734 39.8755 24.7734 39.7505C26.7734 39.6255 27.5234 38.5005 30.0234 38.5005C32.3984 38.5005 33.1483 39.7505 35.2733 39.7505C37.3983 39.7505 38.7733 37.7505 40.1483 35.8755C41.1579 34.52 41.9197 32.9965 42.3983 31.3755C42.2733 31.1255 38.1483 29.5005 38.0233 24.7505Z" fill="white"/>
<path d="M34.0235 12.875C34.6253 12.174 35.0794 11.3588 35.3586 10.4782C35.6378 9.59757 35.7364 8.66964 35.6485 7.75C33.8461 7.9946 32.1757 8.82983 30.8985 10.125C30.3163 10.7882 29.8725 11.5611 29.5935 12.3983C29.3144 13.2355 29.2056 14.1201 29.2735 15C30.1804 15.0765 31.0918 14.9217 31.9226 14.5501C32.7533 14.1784 33.4762 13.6021 34.0235 12.875Z" fill="white"/>
<path d="M67.3984 39.375H64.5234L63.0234 34.5H57.6484L56.1484 39.375H53.3984L58.7734 22.75H62.0234L67.3984 39.375ZM62.6484 32.5L61.2734 28.125C61.1484 27.625 60.8984 26.625 60.3984 25C60.2734 25.75 60.0234 26.75 59.6484 28.125L58.1484 32.5H62.6484Z" fill="white"/>
<path d="M81.2734 33.2497C81.3719 35.0223 80.7907 36.7657 79.6484 38.1247C79.1824 38.6228 78.6219 39.023 77.9995 39.302C77.3771 39.581 76.7053 39.7332 76.0234 39.7497C75.353 39.8067 74.6802 39.6726 74.0828 39.3629C73.4855 39.0531 72.9882 38.5805 72.6484 37.9997V44.3747H70.0234V31.3748C70.0234 30.1248 70.0234 28.7498 69.8984 27.3748H72.2734L72.3984 29.2498C72.8187 28.5744 73.41 28.0221 74.1125 27.6489C74.8149 27.2758 75.6036 27.0949 76.3984 27.1248C77.0685 27.1013 77.7347 27.2362 78.3428 27.5186C78.951 27.8009 79.4839 28.2227 79.8984 28.7498C80.8513 30.0517 81.3358 31.6376 81.2734 33.2497ZM78.5234 33.3748C78.5596 32.3637 78.2989 31.3642 77.7734 30.4998C77.4939 30.1387 77.1332 29.8486 76.7205 29.6531C76.3078 29.4577 75.8549 29.3623 75.3984 29.3748C74.7635 29.3917 74.1505 29.6106 73.6484 29.9998C73.1292 30.4552 72.7772 31.0712 72.6484 31.7498C72.5635 31.9906 72.5212 32.2444 72.5234 32.4998V34.4997C72.5031 35.3143 72.7684 36.1103 73.2734 36.7497C73.5357 37.0502 73.8641 37.2856 74.2329 37.4375C74.6017 37.5893 75.0007 37.6534 75.3984 37.6247C75.8549 37.6372 76.3078 37.5418 76.7205 37.3464C77.1332 37.1509 77.4939 36.8608 77.7734 36.4997C78.2988 35.544 78.5578 34.4648 78.5234 33.3748Z" fill="white"/>
<path d="M95.0234 33.2497C95.1219 35.0223 94.5407 36.7657 93.3984 38.1247C92.9324 38.6228 92.3719 39.023 91.7495 39.302C91.1271 39.581 90.4553 39.7332 89.7734 39.7497C89.103 39.8067 88.4302 39.6726 87.8328 39.3629C87.2355 39.0531 86.7382 38.5805 86.3984 37.9997V44.3747H83.7734V31.3748C83.7734 30.1248 83.7734 28.7498 83.6484 27.3748H86.0234L86.1484 29.2498C86.5687 28.5744 87.16 28.0221 87.8625 27.6489C88.5649 27.2758 89.3536 27.0949 90.1484 27.1248C90.8185 27.1013 91.4847 27.2362 92.0928 27.5186C92.701 27.8009 93.2339 28.2227 93.6484 28.7498C94.6013 30.0517 95.0858 31.6376 95.0234 33.2497ZM92.2734 33.3748C92.3096 32.3637 92.0489 31.3642 91.5234 30.4998C91.2439 30.1387 90.8832 29.8486 90.4705 29.6531C90.0579 29.4577 89.6049 29.3623 89.1484 29.3748C88.5135 29.3917 87.9005 29.6106 87.3984 29.9998C86.8792 30.4552 86.5272 31.0712 86.3984 31.7498C86.3135 31.9906 86.2712 32.2444 86.2734 32.4998V34.4997C86.2531 35.3143 86.5184 36.1103 87.0234 36.7497C87.2857 37.0502 87.6141 37.2856 87.9829 37.4375C88.3517 37.5893 88.7507 37.6534 89.1484 37.6247C89.6049 37.6372 90.0579 37.5418 90.4705 37.3464C90.8832 37.1509 91.2439 36.8608 91.5234 36.4997C92.0488 35.544 92.3078 34.4648 92.2734 33.3748Z" fill="white"/>
<path d="M110.398 34.7496C110.417 35.4068 110.292 36.0602 110.033 36.6645C109.774 37.2688 109.387 37.8097 108.898 38.2496C107.64 39.2965 106.034 39.8319 104.398 39.7496C102.917 39.8059 101.449 39.4604 100.148 38.7496L100.773 36.4996C101.927 37.2458 103.274 37.637 104.648 37.6246C105.483 37.6434 106.306 37.4268 107.023 36.9996C107.298 36.7701 107.518 36.4833 107.669 36.1593C107.82 35.8353 107.899 35.4821 107.898 35.1246C107.896 34.7978 107.828 34.4748 107.699 34.1744C107.57 33.874 107.383 33.6021 107.148 33.3746C106.493 32.8067 105.727 32.381 104.898 32.1246C102.023 30.9996 100.523 29.4996 100.523 27.3746C100.506 26.7358 100.631 26.101 100.891 25.517C101.15 24.933 101.537 24.4145 102.023 23.9996C103.198 23.0892 104.666 22.6441 106.148 22.7496C107.44 22.7061 108.723 22.9628 109.898 23.4996L109.148 25.4996C108.182 25.0027 107.11 24.7454 106.023 24.7496C105.206 24.7084 104.403 24.9762 103.773 25.4996C103.551 25.6765 103.377 25.9069 103.268 26.1692C103.159 26.4315 103.117 26.7172 103.148 26.9996C103.14 27.3099 103.203 27.6181 103.333 27.8999C103.463 28.1818 103.657 28.4298 103.898 28.6246C104.615 29.1703 105.418 29.5928 106.273 29.8746C107.443 30.3166 108.507 30.9978 109.398 31.8746C109.751 32.2613 110.021 32.7154 110.193 33.2096C110.365 33.7038 110.435 34.2277 110.398 34.7496Z" fill="white"/>
<path d="M119.273 29.375H116.398V35.25C116.398 36.75 116.898 37.5 117.898 37.5C118.278 37.5361 118.661 37.4935 119.023 37.375L119.148 39.375C118.465 39.6046 117.741 39.6897 117.023 39.625C116.561 39.6321 116.102 39.5474 115.673 39.3758C115.244 39.2041 114.853 38.9489 114.523 38.625C113.832 37.691 113.519 36.5299 113.648 35.375V29.375H111.898V27.375H113.648V25.125L116.273 24.375V27.375H119.148C119.252 28.0363 119.294 28.7059 119.273 29.375Z" fill="white"/>
<path d="M132.523 33.2502C132.573 34.0714 132.454 34.8941 132.175 35.6678C131.896 36.4416 131.461 37.1502 130.898 37.7502C130.348 38.3609 129.672 38.8449 128.917 39.1687C128.161 39.4924 127.345 39.6482 126.523 39.6252C125.733 39.6417 124.947 39.4948 124.216 39.1937C123.484 38.8926 122.823 38.4437 122.273 37.8752C121.721 37.2935 121.292 36.6059 121.013 35.854C120.734 35.1021 120.61 34.3014 120.648 33.5002C120.57 31.8063 121.153 30.1482 122.273 28.8752C122.841 28.2952 123.523 27.84 124.276 27.5387C125.029 27.2374 125.837 27.0965 126.648 27.1252C127.439 27.1087 128.225 27.2556 128.956 27.5567C129.687 27.8579 130.348 28.3067 130.898 28.8752C131.45 29.457 131.879 30.1445 132.158 30.8965C132.438 31.6484 132.562 32.449 132.523 33.2502ZM129.773 33.3752C129.793 32.3661 129.533 31.3712 129.023 30.5002C128.809 30.0609 128.469 29.6954 128.046 29.4504C127.622 29.2055 127.136 29.0923 126.648 29.1252C126.148 29.1177 125.655 29.2405 125.216 29.4816C124.778 29.7227 124.41 30.0738 124.148 30.5002C123.623 31.3647 123.362 32.3642 123.398 33.3752C123.379 34.3843 123.638 35.3793 124.148 36.2502C124.387 36.6776 124.738 37.0316 125.163 37.2739C125.588 37.5161 126.072 37.6374 126.561 37.6245C127.05 37.6116 127.527 37.4651 127.939 37.2008C128.351 36.9365 128.683 36.5646 128.898 36.1252C129.519 35.3475 129.83 34.3684 129.773 33.3752Z" fill="white"/>
<path d="M141.148 29.75C140.898 29.75 140.648 29.625 140.273 29.625C139.85 29.6 139.428 29.6917 139.053 29.8901C138.679 30.0884 138.366 30.3859 138.148 30.75C137.665 31.4426 137.444 32.2843 137.523 33.125V39.375H134.898V31.125C134.924 29.8737 134.882 28.6219 134.773 27.375H137.148L137.273 29.625H137.398C137.666 28.88 138.143 28.2287 138.773 27.75C139.331 27.3764 139.979 27.1604 140.648 27.125H141.273C141.172 27.9962 141.131 28.8732 141.148 29.75Z" fill="white"/>
<path d="M153.148 32.8748C153.175 33.2955 153.133 33.7177 153.023 34.1248H145.023C144.997 34.6377 145.084 35.1501 145.279 35.6255C145.473 36.1008 145.77 36.5274 146.148 36.8748C146.896 37.4599 147.824 37.769 148.773 37.7498C149.885 37.7355 150.986 37.5239 152.023 37.1248L152.398 38.9998C151.131 39.5233 149.769 39.7786 148.398 39.7498C147.595 39.8112 146.788 39.6978 146.033 39.4173C145.277 39.1367 144.592 38.6958 144.023 38.1248C142.938 36.9302 142.356 35.363 142.398 33.7498C142.337 32.1176 142.87 30.5187 143.898 29.2498C144.406 28.6216 145.057 28.1237 145.796 27.7976C146.535 27.4715 147.342 27.3265 148.148 27.3748C148.901 27.3269 149.653 27.4744 150.332 27.8029C151.011 28.1315 151.594 28.6299 152.023 29.2498C152.838 30.2754 153.239 31.5684 153.148 32.8748ZM150.523 32.1248C150.567 31.4225 150.392 30.7238 150.023 30.1248C149.806 29.7607 149.493 29.4632 149.118 29.2648C148.744 29.0665 148.322 28.9748 147.898 28.9998C147.477 28.9894 147.061 29.0874 146.689 29.2844C146.317 29.4814 146.001 29.7708 145.773 30.1248C145.27 30.7166 145.003 31.4733 145.023 32.2498L150.523 32.1248Z" fill="white"/>
<path d="M61.6484 12.4998C61.685 13.1292 61.5805 13.7589 61.3427 14.3428C61.1048 14.9267 60.7395 15.4501 60.2734 15.8748C59.2437 16.5738 58.017 16.9243 56.7734 16.8748C56.1457 16.9044 55.5167 16.8625 54.8984 16.7498V8.74977C55.6437 8.64587 56.3963 8.60406 57.1484 8.62477C58.3001 8.53445 59.4478 8.84344 60.3984 9.49977C60.821 9.87197 61.1533 10.3356 61.3699 10.8554C61.5865 11.3753 61.6817 11.9376 61.6484 12.4998ZM60.2734 12.4998C60.3146 11.6822 60.0469 10.8791 59.5234 10.2498C59.2173 9.98113 58.8606 9.77639 58.4742 9.64759C58.0878 9.51879 57.6795 9.46854 57.2734 9.49977C56.935 9.4713 56.5944 9.51388 56.2734 9.62477V15.7498H57.1484C57.5835 15.7784 58.0198 15.7154 58.4289 15.5646C58.8381 15.4139 59.211 15.1789 59.5234 14.8748C59.8176 14.5598 60.0376 14.1831 60.1673 13.7722C60.2971 13.3613 60.3333 12.9265 60.2734 12.4998Z" fill="white"/>
<path d="M69.0233 13.7498C69.0436 14.5644 68.7783 15.3604 68.2733 15.9998C68.011 16.3003 67.6826 16.5357 67.3138 16.6875C66.9451 16.8394 66.5461 16.9035 66.1483 16.8748C65.7519 16.8914 65.3566 16.8218 64.9897 16.6707C64.6228 16.5197 64.2931 16.2908 64.0233 15.9998C63.5202 15.408 63.2531 14.6513 63.2733 13.8748C63.253 13.0603 63.5183 12.2643 64.0233 11.6248C64.2856 11.3244 64.614 11.089 64.9828 10.9371C65.3515 10.7853 65.7505 10.7212 66.1483 10.7498C66.5447 10.7332 66.94 10.8028 67.3069 10.9539C67.6738 11.105 68.0035 11.3339 68.2733 11.6248C68.7764 12.2166 69.0435 12.9733 69.0233 13.7498ZM67.6483 13.8748C67.6582 13.39 67.528 12.9125 67.2733 12.4998C67.1827 12.2763 67.027 12.0853 66.8263 11.9515C66.6257 11.8178 66.3894 11.7475 66.1483 11.7498C65.8938 11.7602 65.646 11.8343 65.4276 11.9654C65.2092 12.0964 65.0272 12.2802 64.8983 12.4998C64.6528 12.9165 64.5233 13.3912 64.5233 13.8748C64.5233 14.3584 64.6528 14.8332 64.8983 15.2498C65.0026 15.4894 65.1792 15.6905 65.4032 15.8249C65.6273 15.9594 65.8878 16.0205 66.1483 15.9998C66.3894 16.0022 66.6257 15.9319 66.8263 15.7981C67.027 15.6644 67.1827 15.4733 67.2733 15.2498C67.528 14.8371 67.6582 14.3597 67.6483 13.8748Z" fill="white"/>
<path d="M78.8984 10.8745L77.0234 16.7495H75.7734L75.0234 14.2495C74.7988 13.6414 74.6314 13.0137 74.5234 12.3745C74.4155 13.0137 74.2481 13.6414 74.0234 14.2495L73.2734 16.7495H72.0234L70.2734 10.8745H71.6484L72.2734 13.6245L72.6484 15.4995C72.7734 14.9995 72.8984 14.3745 73.1484 13.6245L74.0234 10.7495H75.1484L75.8984 13.4995C76.1236 14.1502 76.2909 14.8194 76.3984 15.4995C76.5234 14.8745 76.6484 14.2495 76.7734 13.4995L77.5234 10.7495L78.8984 10.8745Z" fill="white"/>
<path d="M85.6484 16.75H84.3984V13.375C84.3984 12.375 84.0234 11.875 83.2734 11.875C83.0897 11.8625 82.9053 11.8895 82.7328 11.9542C82.5603 12.0189 82.4037 12.1197 82.2734 12.25C82.1432 12.3803 82.0423 12.5369 81.9776 12.7094C81.913 12.8819 81.8859 13.0662 81.8984 13.25V16.75H80.6484V10.875H81.6484V11.75C81.8186 11.4705 82.0292 11.2178 82.2734 11C82.6024 10.765 82.9943 10.6344 83.3984 10.625C83.6494 10.6122 83.9004 10.6499 84.1366 10.7357C84.3727 10.8216 84.5893 10.954 84.7734 11.125C85.0205 11.3904 85.205 11.7079 85.3131 12.054C85.4213 12.4001 85.4504 12.7661 85.3984 13.125V16.75H85.6484Z" fill="white"/>
<path d="M89.2734 16.7495H88.0234V8.24951H89.2734V16.7495Z" fill="white"/>
<path d="M97.0233 13.7498C97.0436 14.5644 96.7783 15.3604 96.2733 15.9998C96.011 16.3003 95.6826 16.5357 95.3138 16.6875C94.9451 16.8394 94.5461 16.9035 94.1483 16.8748C93.7519 16.8914 93.3566 16.8218 92.9897 16.6707C92.6228 16.5197 92.2931 16.2908 92.0233 15.9998C91.5202 15.408 91.2531 14.6513 91.2733 13.8748C91.253 13.0603 91.5183 12.2643 92.0233 11.6248C92.2856 11.3244 92.614 11.089 92.9828 10.9371C93.3515 10.7853 93.7505 10.7212 94.1483 10.7498C94.5447 10.7332 94.94 10.8028 95.3069 10.9539C95.6738 11.105 96.0035 11.3339 96.2733 11.6248C96.7764 12.2166 97.0435 12.9733 97.0233 13.7498ZM95.6483 13.8748C95.6582 13.39 95.528 12.9125 95.2733 12.4998C95.1827 12.2763 95.027 12.0853 94.8263 11.9515C94.6257 11.8178 94.3894 11.7475 94.1483 11.7498C93.8938 11.7602 93.646 11.8343 93.4276 11.9654C93.2092 12.0964 93.0272 12.2802 92.8983 12.4998C92.6528 12.9165 92.5233 13.3912 92.5233 13.8748C92.5233 14.3584 92.6528 14.8332 92.8983 15.2498C93.0026 15.4894 93.1792 15.6905 93.4032 15.8249C93.6273 15.9594 93.8878 16.0205 94.1483 15.9998C94.3894 16.0022 94.6257 15.9319 94.8263 15.7981C95.027 15.6644 95.1827 15.4733 95.2733 15.2498C95.528 14.8371 95.6582 14.3597 95.6483 13.8748Z" fill="white"/>
<path d="M103.273 16.7498H102.148L102.023 16.1248C101.812 16.379 101.543 16.5794 101.238 16.7098C100.934 16.8401 100.604 16.8967 100.273 16.8748C100.022 16.8876 99.7715 16.8499 99.5353 16.764C99.2991 16.6782 99.0826 16.5458 98.8985 16.3748C98.6065 16.0199 98.4318 15.5831 98.3984 15.1248C98.3718 14.7983 98.4402 14.4712 98.5955 14.1828C98.7508 13.8944 98.9862 13.6572 99.2734 13.4998C100.028 13.0596 100.908 12.8837 101.773 12.9998V12.8748C101.773 12.1248 101.398 11.7498 100.523 11.7498C99.9974 11.7238 99.4754 11.8543 99.0234 12.1248L98.8985 11.2498C99.4975 10.8806 100.196 10.706 100.898 10.7498C102.398 10.7498 103.148 11.4998 103.148 13.1248V15.2498C103.234 15.7451 103.276 16.2471 103.273 16.7498ZM101.898 14.7498V13.8748C100.398 13.8748 99.7734 14.2498 99.7734 14.9998C99.7994 15.2654 99.8848 15.5217 100.023 15.7498C100.195 15.9062 100.417 15.9951 100.648 15.9998C100.914 15.9738 101.17 15.8884 101.398 15.7498C101.528 15.665 101.639 15.5548 101.725 15.4259C101.811 15.297 101.87 15.1521 101.898 14.9998V14.7498Z" fill="white"/>
<path d="M110.773 16.7495H109.648V15.7495C109.485 16.1039 109.219 16.4009 108.885 16.6016C108.55 16.8023 108.163 16.8974 107.773 16.8745C107.432 16.8882 107.092 16.8151 106.786 16.6621C106.48 16.5091 106.218 16.2812 106.023 15.9995C105.52 15.4077 105.253 14.651 105.274 13.8745C105.233 13.0189 105.499 12.1769 106.023 11.4995C106.262 11.2357 106.55 11.0224 106.872 10.8721C107.194 10.7218 107.543 10.6376 107.898 10.6245C108.212 10.5883 108.53 10.6391 108.816 10.7714C109.103 10.9037 109.348 11.1123 109.523 11.3745V8.24951H110.773V15.2495C110.711 15.7475 110.711 16.2515 110.773 16.7495ZM109.398 14.2495V12.8745C109.37 12.7222 109.311 12.5773 109.225 12.4484C109.139 12.3195 109.028 12.2093 108.898 12.1245C108.789 12.0024 108.653 11.9056 108.502 11.8408C108.351 11.7761 108.188 11.7449 108.023 11.7495C107.798 11.7483 107.576 11.8052 107.379 11.9147C107.182 12.0242 107.017 12.1825 106.898 12.3745C106.628 12.8265 106.498 13.3484 106.523 13.8745C106.496 14.3614 106.627 14.8441 106.898 15.2495C107.017 15.4415 107.182 15.5999 107.379 15.7093C107.576 15.8188 107.798 15.8757 108.023 15.8745C108.219 15.8844 108.414 15.8435 108.589 15.7559C108.764 15.6683 108.914 15.5369 109.023 15.3745C109.158 15.2214 109.26 15.0431 109.325 14.8499C109.389 14.6567 109.414 14.4525 109.398 14.2495Z" fill="white"/>
<path d="M121.898 13.7498C121.919 14.5644 121.653 15.3604 121.148 15.9998C120.886 16.3003 120.558 16.5357 120.189 16.6875C119.82 16.8394 119.421 16.9035 119.023 16.8748C118.627 16.8914 118.232 16.8218 117.865 16.6707C117.498 16.5197 117.168 16.2908 116.898 15.9998C116.395 15.408 116.128 14.6513 116.148 13.8748C116.128 13.0603 116.393 12.2643 116.898 11.6248C117.161 11.3244 117.489 11.089 117.858 10.9371C118.227 10.7853 118.626 10.7212 119.023 10.7498C119.42 10.7332 119.815 10.8028 120.182 10.9539C120.549 11.105 120.878 11.3339 121.148 11.6248C121.651 12.2166 121.918 12.9733 121.898 13.7498ZM120.648 13.8748C120.658 13.39 120.528 12.9125 120.273 12.4998C120.183 12.2763 120.027 12.0853 119.826 11.9515C119.626 11.8178 119.389 11.7475 119.148 11.7498C118.894 11.7602 118.646 11.8343 118.428 11.9654C118.209 12.0964 118.027 12.2802 117.898 12.4998C117.653 12.9165 117.523 13.3912 117.523 13.8748C117.523 14.3584 117.653 14.8332 117.898 15.2498C118.003 15.4894 118.179 15.6905 118.403 15.8249C118.627 15.9594 118.888 16.0205 119.148 15.9998C119.389 16.0022 119.626 15.9319 119.826 15.7981C120.027 15.6644 120.183 15.4733 120.273 15.2498C120.528 14.8371 120.658 14.3597 120.648 13.8748Z" fill="white"/>
<path d="M129.023 16.75H127.773V13.375C127.773 12.375 127.398 11.875 126.523 11.875C126.34 11.8625 126.155 11.8895 125.983 11.9542C125.81 12.0189 125.654 12.1197 125.523 12.25C125.393 12.3803 125.292 12.5369 125.228 12.7094C125.163 12.8819 125.136 13.0662 125.148 13.25V16.75H123.898V10.875H125.023V11.75C125.194 11.4705 125.404 11.2178 125.648 11C126.015 10.7462 126.453 10.6149 126.898 10.625C127.149 10.6122 127.4 10.6499 127.637 10.7357C127.873 10.8216 128.089 10.954 128.273 11.125C128.521 11.3904 128.705 11.7079 128.813 12.054C128.921 12.4001 128.95 12.7661 128.898 13.125V16.75H129.023Z" fill="white"/>
<path d="M137.773 11.8745H136.273V14.7495C136.273 15.4995 136.523 15.8745 137.023 15.8745H137.648V16.8745C137.327 16.9854 136.987 17.028 136.648 16.9995C136.416 17.0117 136.184 16.9732 135.968 16.8869C135.753 16.8006 135.558 16.6684 135.398 16.4995C135.113 16.0077 134.983 15.4415 135.023 14.8745V11.8745H134.148V10.8745H135.023V9.87451L136.273 9.49951V10.9995H137.773V11.8745Z" fill="white"/>
<path d="M144.773 16.7495H143.523V13.3745C143.523 12.3745 143.148 11.7495 142.398 11.7495C142.121 11.7284 141.845 11.804 141.617 11.9635C141.389 12.1231 141.224 12.3566 141.148 12.6245V16.6245H139.898V8.24951H141.148V11.7495C141.325 11.4425 141.58 11.188 141.888 11.0122C142.195 10.8365 142.544 10.7458 142.898 10.7495C143.149 10.7367 143.4 10.7744 143.637 10.8602C143.873 10.9461 144.089 11.0785 144.273 11.2495C144.512 11.5207 144.69 11.8388 144.798 12.1833C144.906 12.5277 144.94 12.891 144.898 13.2495C144.794 14.4131 144.753 15.5814 144.773 16.7495Z" fill="white"/>
<path d="M151.898 13.6245V14.2495H147.898C147.896 14.5104 147.951 14.7686 148.059 15.0061C148.167 15.2436 148.325 15.4546 148.523 15.6245C148.89 15.8783 149.328 16.0096 149.773 15.9995C150.324 15.9871 150.87 15.9031 151.398 15.7495L151.648 16.6245C151.016 16.8922 150.334 17.0201 149.648 16.9995C149.262 17.0203 148.876 16.9648 148.511 16.8361C148.146 16.7074 147.811 16.5081 147.523 16.2495C147.265 15.962 147.065 15.6263 146.937 15.2617C146.808 14.897 146.752 14.5106 146.773 14.1245C146.753 13.3099 147.018 12.5139 147.523 11.8745C147.762 11.57 148.065 11.3223 148.411 11.1494C148.757 10.9765 149.137 10.8825 149.523 10.8745C149.897 10.8546 150.27 10.9373 150.6 11.1135C150.93 11.2897 151.206 11.5529 151.398 11.8745C151.784 12.3717 151.963 12.9985 151.898 13.6245ZM150.648 13.2495C150.64 12.9018 150.554 12.5603 150.398 12.2495C150.282 12.0942 150.131 11.9682 149.957 11.8814C149.784 11.7947 149.592 11.7495 149.398 11.7495C149.204 11.7495 149.013 11.7947 148.839 11.8814C148.666 11.9682 148.515 12.0942 148.398 12.2495C148.148 12.5213 148.013 12.88 148.023 13.2495H150.648Z" fill="white"/>
</svg>
