<svg width="30" height="30" viewBox="0 0 30 30" fill="none" xmlns="http://www.w3.org/2000/svg">
<path fill-rule="evenodd" clip-rule="evenodd" d="M0 0H30V30H0V0ZM10.8591 11.5301V23H7.215V11.5301H10.8591ZM11.0993 7.98177C11.0993 9.08242 10.3083 9.96317 9.03754 9.96317H9.01375C7.7908 9.96317 7 9.08247 7 7.98177C7 6.85632 7.81514 6 9.06165 6C10.3084 6 11.0756 6.85631 11.0993 7.98177ZM16.5203 23H12.8761C12.8761 23 12.9241 12.6062 12.8762 11.5299H16.5204V13.1539C17.0047 12.3724 17.8715 11.2608 19.8046 11.2608C22.2022 11.2608 24 12.9001 24 16.4232V22.9999H20.3561V16.8638C20.3561 15.3219 19.8286 14.2701 18.5099 14.2701C17.5032 14.2701 16.9036 14.9794 16.6402 15.6644C16.544 15.9094 16.5203 16.2519 16.5203 16.5947V23Z" fill="white"/>
</svg>
