<svg width="300" height="37" viewBox="0 0 300 37" fill="none" xmlns="http://www.w3.org/2000/svg">
<path d="M15.2336 1.47768C15.2015 2.12016 14.8481 2.63413 14.1735 3.05173C13.5953 3.40509 12.9528 3.56572 12.2461 3.56572C11.7321 3.56572 11.3145 3.43721 10.9612 3.21235C10.5436 2.92324 10.3508 2.56989 10.3508 2.08803C10.383 1.44556 10.7363 0.931583 11.4109 0.513977C12.0213 0.160618 12.6637 0 13.3383 0C13.8202 0 14.2378 0.128494 14.6233 0.353359C15.0409 0.642471 15.2657 0.995831 15.2336 1.47768Z" fill="white"/>
<path d="M21.9796 20.3984C23.3288 17.8286 24.0355 15.2908 24.0997 12.8173C24.2282 8.0309 22.2366 5.65376 18.1569 5.71801C16.3258 5.71801 14.7197 6.45685 13.3062 7.93452C11.8928 9.41221 11.1539 11.0184 11.0897 12.6888C11.0255 13.8452 11.2824 14.809 11.8285 15.5478C12.3746 16.3509 13.1777 16.7364 14.2057 16.7364C14.6875 16.7364 15.2336 16.64 15.8119 16.4473C16.1973 16.3188 16.2616 16.0939 16.0046 15.7405C15.1373 14.4235 14.7197 12.9458 14.7518 11.3075C14.7518 10.3759 14.9445 9.60495 15.2658 8.96248C15.587 8.32002 15.9725 7.96664 16.4222 7.93452C16.9362 7.9024 17.3217 8.35213 17.6429 9.34796C17.9641 10.3759 18.1247 11.8215 18.0605 13.6525C17.9641 16.8649 17.0968 19.8524 15.4906 22.5828C13.8202 25.4097 11.9892 26.8553 9.93325 26.9516C8.61619 27.0159 7.68461 26.4698 7.17063 25.3133C6.75302 24.3818 6.59241 23.0326 6.65665 21.1694C6.75302 19.1135 7.267 16.8327 8.26283 14.3271C9.25866 11.8536 10.3509 10.0226 11.5716 8.86611C11.8285 8.60912 11.957 8.4485 11.957 8.38425C11.957 8.28788 11.8607 8.15939 11.6679 8.03089C11.2824 7.74178 10.897 7.64541 10.5436 7.74178C7.55611 8.64124 5.05048 10.4723 3.0267 13.2992C1.09928 15.9975 0.103456 18.8565 0.00708525 21.8119C-0.153532 27.1123 2.41635 29.7785 7.74885 29.7785C10.897 29.7785 13.7881 28.8469 16.3901 26.9838C18.703 25.3133 20.5661 23.1289 21.9796 20.3984Z" fill="white"/>
<path d="M31.2632 21.2015C33.287 19.5954 34.7647 18.214 35.7284 17.0576C35.7986 16.9171 35.8348 16.6912 35.8865 16.3676C35.9057 16.2473 35.9272 16.1132 35.9533 15.9654C35.9211 15.4193 35.7926 15.1623 35.5678 15.2266C34.9574 15.3551 34.2186 15.4514 33.3191 15.4835C32.6124 15.5157 31.6166 15.5157 30.2674 15.4835C30.0345 15.478 29.815 15.4724 29.6086 15.4672H29.6054C28.6181 15.4422 27.9295 15.4248 27.5048 15.4514C26.7659 15.4835 26.1235 15.7727 25.6095 16.3509C25.0313 16.9612 24.453 18.0855 23.8106 19.6596C23.7875 19.7172 23.7603 19.779 23.732 19.8435C23.6813 19.9586 23.6269 20.0821 23.5857 20.2057C23.5215 20.2699 23.5536 20.3984 23.65 20.5269C23.7463 20.6554 23.9069 20.6875 24.1639 20.559C24.6458 20.3342 25.1919 20.1736 25.8344 20.0772C26.3804 20.0129 27.569 19.9487 29.4001 19.8845C29.2394 20.013 27.9224 21.1373 25.481 23.2253C23.8748 24.5745 22.6541 25.6988 21.7547 26.6304C21.6262 26.7589 21.5619 26.9838 21.5619 27.3371C21.5298 28.333 21.6583 28.8148 21.9795 28.8148C22.7826 28.7827 24.2282 28.7827 26.3483 28.8469C28.4685 28.9112 29.8819 28.9112 30.6529 28.8791C31.5202 28.8469 32.1948 28.5257 32.773 27.9475C33.4155 27.305 34.058 26.1486 34.6362 24.4781C34.7004 24.2854 34.6362 24.1569 34.4756 24.0926C34.315 24.0605 34.1543 24.0605 33.9295 24.1569C33.1585 24.5102 31.0062 24.6066 27.4727 24.5102C27.9866 23.8999 29.2394 22.8077 31.2632 21.2015Z" fill="white"/>
<path fill-rule="evenodd" clip-rule="evenodd" d="M35.5679 21.5228C35.6321 20.6233 35.6963 20.0451 35.7606 19.756C35.8248 19.499 36.0176 19.1778 36.3709 18.8244C37.174 17.8928 38.2984 17.154 39.776 16.5758C41.2216 15.9975 42.6993 15.7084 44.177 15.7084C46.1365 15.7084 47.6142 16.1582 48.6421 17.0255C49.5416 17.8607 49.9592 18.9208 49.9271 20.2378C49.8628 22.2937 48.9634 24.2212 47.1644 26.0201C45.237 27.9796 42.9884 28.9433 40.4506 28.9433C37.3346 28.9433 35.8248 28.1081 35.857 26.4056C35.8891 24.7994 36.8528 23.4502 38.6838 22.358C40.3864 21.3943 42.2495 20.9767 44.2091 21.0731C44.3054 20.7518 44.3697 20.3985 44.3697 20.1094C44.4018 18.8565 43.8878 18.1819 42.8599 18.0856C41.8319 17.9892 40.6755 18.2783 39.4227 18.985C38.1377 19.6917 37.0455 20.6555 36.0818 21.8119C35.9533 21.9725 35.857 22.0368 35.7606 22.0368C35.6 22.0368 35.5357 21.8761 35.5679 21.5228ZM40.9004 25.3776C40.7763 25.6568 40.7421 25.9659 40.7109 26.2472L40.7076 26.2771C40.6755 26.8874 40.8682 27.1765 41.2216 27.1765C42.1532 27.1765 43.0205 25.6346 43.8236 22.5829C43.2454 22.7114 42.6993 23.0005 42.1853 23.4181C41.575 23.9963 41.1573 24.6066 40.9004 25.3776Z" fill="white"/>
<path d="M57.99 16.2866C59.3071 12.4639 60.4314 10.0868 61.3309 9.15519C61.5236 8.96245 61.62 8.83397 61.5557 8.7376C61.5557 8.54486 60.8811 8.44849 59.4998 8.44849C57.99 8.44849 56.8336 8.67335 55.9984 9.09096C55.1632 9.50856 54.5207 10.2474 54.071 11.2432C52.5612 14.5198 51.2762 18.5031 50.2161 23.2253C49.9913 24.2854 49.8628 25.1848 49.8307 25.8916C49.7985 26.9516 50.0234 27.7226 50.5053 28.2044C50.9871 28.6863 51.7581 28.9112 52.8824 28.9112C53.8782 28.9112 55.0347 28.4935 56.3517 27.6262C57.5724 26.8231 58.6646 25.7952 59.6605 24.5745C59.9496 24.2211 60.1423 23.8999 60.2066 23.5465C60.3029 23.2253 60.3351 22.5507 60.3351 21.587C60.3672 21.2979 60.3029 21.1373 60.1423 21.1373C60.0459 21.1373 59.9496 21.2336 59.8211 21.4264C58.8252 22.9362 57.8294 24.0926 56.8336 24.9279C56.416 25.2812 56.0947 25.4739 55.8699 25.4739C55.6129 25.4739 55.5165 25.2491 55.5165 24.8315C55.5165 24.6066 55.5808 24.3175 55.6771 23.9641C56.2232 21.6834 56.9942 19.1135 57.99 16.2866Z" fill="white"/>
<path d="M155.131 22.0689C155.228 23.0326 155.067 23.8035 154.617 24.4139C153.686 25.6988 152.497 26.7589 151.116 27.6584C149.735 28.5257 148.418 28.9754 147.229 28.9754C145.334 28.9754 144.402 28.1081 144.466 26.3413C144.466 26.0522 144.499 25.7952 144.563 25.5061C144.691 24.8315 144.884 24.1248 145.141 23.3538C145.293 22.8989 145.419 22.5135 145.523 22.1978C145.684 21.711 145.789 21.3895 145.848 21.2337C145.976 20.7197 146.073 20.3342 146.073 20.013C146.073 19.5311 145.944 19.2741 145.623 19.2741C145.077 19.2741 144.402 20.2057 143.599 22.101C143.246 23.0003 142.901 23.8996 142.555 24.7989L142.554 24.8027C142.209 25.7011 141.864 26.5994 141.511 27.4978C141.126 28.4615 140.355 28.9433 139.166 28.9433C138.556 28.9433 137.239 28.8148 135.215 28.5257C135.557 27.6993 135.891 26.8165 136.218 25.8756C135.613 26.4708 134.948 27.0115 134.219 27.4978C132.773 28.4615 131.489 28.9433 130.332 28.9433C129.465 28.9433 128.822 28.7184 128.373 28.3008C127.923 27.8832 127.698 27.1444 127.634 26.1164C125.417 27.9796 123.458 28.9112 121.787 28.9112C119.951 28.9112 119.02 28.0671 119.022 26.3497C118.487 26.8219 117.908 27.2562 117.29 27.6584C115.909 28.5257 114.592 28.9754 113.403 28.9754C111.508 28.9754 110.576 28.1081 110.64 26.3413C110.64 26.0522 110.673 25.7952 110.737 25.5061C110.865 24.8315 111.058 24.1248 111.315 23.3538C111.466 22.9001 111.593 22.5156 111.696 22.2003L111.697 22.1987C111.857 21.712 111.963 21.3895 112.022 21.2337C112.15 20.7197 112.247 20.3342 112.247 20.013C112.247 19.5311 112.118 19.2741 111.797 19.2741C111.251 19.2741 110.576 20.2057 109.773 22.101C109.42 22.9992 109.075 23.8973 108.731 24.7955L108.729 24.7994C108.384 25.6988 108.038 26.5983 107.685 27.4978C107.3 28.4615 106.529 28.9433 105.34 28.9433C104.73 28.9433 103.413 28.8148 101.389 28.5257C101.737 27.6851 102.076 26.7862 102.408 25.8273C101.79 26.4416 101.11 26.9984 100.361 27.4978C98.9153 28.4615 97.6304 28.9433 96.4739 28.9433C95.6066 28.9433 94.9641 28.7184 94.5144 28.3008C94.0647 27.8832 93.8398 27.1444 93.7756 26.1164C91.559 27.9796 89.5995 28.9112 87.9291 28.9112C86.0338 28.9112 85.1022 28.0117 85.1665 26.1807C85.1665 25.6346 85.295 24.9921 85.4877 24.2854C85.9053 23.1611 86.4835 21.5228 87.1581 19.4347C87.2866 18.9208 87.383 18.5032 87.383 18.1177C87.383 17.6037 87.2866 17.1219 87.0617 16.7364C88.6037 16.0296 89.985 15.7084 91.2057 15.7084C92.587 15.7084 93.2616 16.3509 93.2295 17.6358C93.2295 17.9249 93.1973 18.2141 93.101 18.5353C93.0046 19.0171 92.7155 19.9487 92.2015 21.33C91.5269 23.1289 91.1414 24.3175 90.9808 24.8315C90.6917 25.6667 90.8202 26.0843 91.3342 26.0843C91.6554 26.0843 92.1051 25.6988 92.6834 24.9279C93.2616 24.1569 93.8398 23.1611 94.418 21.9725C94.8035 21.1694 95.2211 20.0772 95.6387 18.728C95.8636 17.9892 95.8957 17.2825 95.7672 16.5436C97.0522 15.9654 98.305 15.7084 99.4936 15.7084C100.971 15.7084 101.71 16.2224 101.678 17.2825C101.678 17.7001 101.549 18.214 101.357 18.8244C100.778 20.3984 100.072 22.3901 99.2687 24.7672C99.1402 25.217 99.2687 25.474 99.5899 25.474C99.8148 25.474 100.104 25.3133 100.457 25.0242C101.357 24.2854 102.353 23.2253 103.445 21.844C103.559 21.7131 103.657 21.6073 103.738 21.5349C103.834 21.1939 103.928 20.8472 104.023 20.4948C104.184 19.8524 104.28 19.2741 104.28 18.8244C104.312 18.1498 104.184 17.6037 103.894 17.154C105.79 16.1903 107.428 15.7084 108.745 15.7084C109.837 15.7084 110.319 16.3188 110.191 17.5395C110.159 17.9249 110.03 18.4389 109.837 19.0814C112.375 16.8327 114.495 15.7084 116.198 15.7084C117.772 15.7084 118.446 16.6079 118.222 18.4389C118.125 19.1456 117.9 20.1736 117.483 21.4906C116.969 23.0968 116.68 24.1248 116.583 24.5745L116.567 24.671C116.541 24.8213 116.519 24.95 116.519 25.0563C116.519 25.3776 116.615 25.5382 116.776 25.5382C117.001 25.5382 117.29 25.3776 117.675 25.0242C118.438 24.381 119.182 23.6141 119.909 22.7236C120.233 21.8023 120.607 20.7012 121.016 19.4347C121.145 18.9208 121.241 18.5032 121.241 18.1177C121.241 17.6037 121.145 17.1219 120.92 16.7364C122.462 16.0296 123.843 15.7084 125.064 15.7084C126.445 15.7084 127.12 16.3509 127.088 17.6358C127.088 17.9249 127.056 18.2141 126.959 18.5353C126.863 19.0171 126.574 19.9487 126.06 21.33C125.385 23.1289 125 24.3175 124.839 24.8315C124.55 25.6667 124.678 26.0843 125.192 26.0843C125.514 26.0843 125.963 25.6988 126.542 24.9279C127.12 24.1569 127.698 23.1611 128.276 21.9725C128.662 21.1694 129.079 20.0772 129.497 18.728C129.722 17.9892 129.754 17.2825 129.625 16.5436C130.91 15.9654 132.163 15.7084 133.352 15.7084C134.829 15.7084 135.568 16.2224 135.536 17.2825C135.536 17.7001 135.408 18.214 135.215 18.8244C134.637 20.3984 133.93 22.3901 133.127 24.7672C132.998 25.217 133.127 25.474 133.448 25.474C133.673 25.474 133.962 25.3133 134.315 25.0242C135.215 24.2854 136.211 23.2253 137.303 21.844C137.398 21.7357 137.481 21.6444 137.553 21.5752C137.652 21.2212 137.751 20.8611 137.849 20.4948C138.01 19.8524 138.106 19.2741 138.106 18.8244C138.138 18.1498 138.01 17.6037 137.721 17.154C139.616 16.1903 141.254 15.7084 142.571 15.7084C143.663 15.7084 144.145 16.3188 144.017 17.5395C143.985 17.9249 143.856 18.4389 143.663 19.0814C146.201 16.8327 148.321 15.7084 150.024 15.7084C151.598 15.7084 152.272 16.6079 152.048 18.4389C151.951 19.1456 151.726 20.1736 151.309 21.4906C150.795 23.0968 150.506 24.1248 150.409 24.5745L150.393 24.671C150.367 24.8215 150.345 24.9499 150.345 25.0563C150.345 25.3776 150.441 25.5382 150.602 25.5382C150.827 25.5382 151.116 25.3776 151.502 25.0242C152.529 24.1569 153.525 23.0647 154.489 21.7476C154.65 21.5228 154.778 21.4264 154.874 21.4264C155.003 21.4264 155.099 21.6513 155.131 22.0689Z" fill="white"/>
<path fill-rule="evenodd" clip-rule="evenodd" d="M85.9053 16.5436C85.4877 16.9612 84.8773 18.2783 84.1385 20.4948C83.5282 22.2616 82.7572 24.9279 81.8256 28.5257C80.4443 33.7297 76.9428 36.3317 71.3212 36.3317C69.4259 36.3317 67.9804 36.0426 66.9846 35.4322C65.9887 34.8219 65.5069 33.9867 65.539 32.9266C65.5711 32.0272 65.9566 31.2883 66.6954 30.678C67.37 30.1319 68.2052 29.8428 69.1047 29.8428C69.3296 29.8428 69.4259 29.8749 69.4902 29.907C69.5223 29.9391 69.5223 30.0676 69.4902 30.2604C69.3938 30.6458 69.3296 30.9992 69.3296 31.3204C69.2974 32.1878 69.5223 32.9266 70.0363 33.4406C70.5181 33.9867 71.1606 34.2116 71.8994 34.1794C72.9595 34.1152 73.8269 33.5691 74.5336 32.509C75.2403 31.4811 76.0434 29.5858 76.9428 26.8231C76.0755 27.562 75.0797 28.1081 73.9554 28.4615C73.0559 28.7506 72.2207 28.879 71.514 28.8469C69.4259 28.6863 68.4301 27.4335 68.4944 25.0563C68.5586 22.9362 69.5223 20.8482 71.3533 18.8565C73.345 16.7042 75.6258 15.6442 78.1635 15.6442C79.0951 15.6442 79.9303 15.9333 80.6692 16.4794C81.2474 15.9012 82.0184 15.6442 83.0463 15.6442C84.1385 15.6763 85.1022 15.9654 85.9053 16.5436ZM79.32 18.2783C79.3842 18.0856 79.32 17.9249 79.1594 17.7964C78.9987 17.668 78.806 17.6037 78.5811 17.6037C78.0029 17.6037 77.2641 18.3747 76.3646 19.8845C75.433 21.3943 74.7906 22.9683 74.3408 24.5424C74.2123 25.0564 74.116 25.4418 74.116 25.6988C74.116 26.0843 74.2123 26.277 74.4693 26.3413C75.1118 26.4698 75.8828 25.6988 76.8465 24.0605C77.7459 22.5186 78.549 20.5912 79.32 18.2783Z" fill="white"/>
<path fill-rule="evenodd" clip-rule="evenodd" d="M178.068 20.4948C178.807 18.2783 179.417 16.9612 179.835 16.5436C179.031 15.9654 178.1 15.6763 176.976 15.6442C175.948 15.6442 175.177 15.9012 174.598 16.4794C173.86 15.9333 173.024 15.6442 172.093 15.6442C169.555 15.6442 167.274 16.7042 165.283 18.8565C163.452 20.8482 162.488 22.9362 162.424 25.0563C162.359 27.4335 163.355 28.6863 165.443 28.8469C166.15 28.879 166.985 28.7506 167.885 28.4615C169.009 28.1081 170.005 27.562 170.872 26.8231C169.973 29.5858 169.17 31.4811 168.463 32.509C167.756 33.5691 166.889 34.1152 165.829 34.1794C165.09 34.2116 164.447 33.9867 163.966 33.4406C163.452 32.9266 163.227 32.1878 163.259 31.3204C163.259 30.9992 163.323 30.6458 163.419 30.2604C163.452 30.0676 163.452 29.9391 163.419 29.907C163.355 29.8749 163.259 29.8428 163.034 29.8428C162.134 29.8428 161.299 30.1319 160.625 30.678C159.886 31.2883 159.5 32.0272 159.468 32.9266C159.436 33.9867 159.918 34.8219 160.914 35.4322C161.91 36.0426 163.355 36.3317 165.25 36.3317C170.872 36.3317 174.374 33.7297 175.755 28.5257C176.686 24.9279 177.457 22.2616 178.068 20.4948ZM173.121 17.7964C173.281 17.9249 173.346 18.0856 173.281 18.2783C172.51 20.5912 171.675 22.5186 170.808 24.0605C169.844 25.6988 169.073 26.4698 168.431 26.3413C168.174 26.277 168.077 26.0843 168.077 25.6988C168.077 25.4418 168.174 25.0564 168.302 24.5424C168.752 22.9683 169.394 21.3943 170.326 19.8845C171.225 18.3747 171.964 17.6037 172.542 17.6037C172.767 17.6037 172.96 17.668 173.121 17.7964Z" fill="white"/>
<path fill-rule="evenodd" clip-rule="evenodd" d="M193.744 20.27C193.68 22.8077 192.587 24.9279 190.467 26.5662C188.476 28.1402 186.163 28.9433 183.529 28.9433C180.027 28.9433 178.325 27.4014 178.421 24.2854C178.485 21.7798 179.61 19.6917 181.826 18.0534C183.85 16.5115 186.163 15.7084 188.797 15.7084C192.202 15.7084 193.84 17.2182 193.744 20.27ZM188.283 18.6317C188.315 17.9892 188.122 17.7001 187.705 17.7001C187.126 17.7001 186.355 18.8565 185.36 21.1373C184.364 23.4502 183.85 25.0564 183.882 26.0522C183.882 26.6626 184.075 26.9517 184.46 26.9517C185.103 26.9517 185.906 25.7952 186.869 23.5144C187.769 21.3622 188.219 19.7239 188.283 18.6317Z" fill="white"/>
<path d="M202.353 21.6513C204.377 20.1094 205.854 18.7923 206.818 17.668C206.902 17.4996 206.937 17.2333 206.988 16.8477L206.988 16.8458L206.988 16.8443L206.989 16.8425L206.989 16.841L207.011 16.6721C206.979 16.126 206.85 15.869 206.625 15.9012C206.015 15.9975 205.276 16.0618 204.377 16.0618C203.67 16.0618 202.642 16.0297 201.325 15.9333C199.976 15.8369 199.076 15.8048 198.562 15.8048C197.824 15.8048 197.181 16.0939 196.667 16.64C196.089 17.2504 195.511 18.3426 194.868 19.8845C194.836 19.9809 194.796 20.0692 194.756 20.1575C194.716 20.2459 194.675 20.3342 194.643 20.4306C194.579 20.4948 194.611 20.6233 194.708 20.7518C194.804 20.8803 194.965 20.8803 195.222 20.7839C195.703 20.5591 196.25 20.4306 196.892 20.3663C197.438 20.3342 198.627 20.3021 200.458 20.3021C200.297 20.4306 198.98 21.4907 196.539 23.4823C194.932 24.7673 193.712 25.8594 192.812 26.7268C192.684 26.8553 192.62 27.0802 192.62 27.4335C192.587 28.4293 192.716 28.9112 193.037 28.9112C193.84 28.9112 195.286 28.9754 197.406 29.1039C199.526 29.2324 200.94 29.2967 201.711 29.2967C202.578 29.2967 203.252 29.0397 203.831 28.4615C204.473 27.819 205.116 26.6947 205.694 25.0564C205.758 24.8636 205.694 24.7351 205.533 24.6709C205.373 24.6066 205.212 24.6066 204.987 24.703C204.216 25.0242 202.096 25.0564 198.562 24.7994C199.076 24.2212 200.329 23.1932 202.353 21.6513Z" fill="white"/>
<path fill-rule="evenodd" clip-rule="evenodd" d="M206.658 21.5228C206.722 20.6233 206.786 20.0451 206.85 19.756C206.915 19.499 207.107 19.1778 207.461 18.8244C208.264 17.8928 209.388 17.154 210.866 16.5758C212.311 15.9975 213.789 15.7084 215.267 15.7084C217.226 15.7084 218.704 16.1582 219.732 17.0255C220.631 17.8607 221.049 18.9208 221.017 20.2378C220.953 22.2937 220.053 24.2212 218.254 26.0201C216.327 27.9796 214.078 28.9433 211.54 28.9433C208.424 28.9433 206.915 28.1081 206.947 26.4056C206.979 24.7994 207.943 23.4502 209.774 22.358C211.476 21.3943 213.339 20.9767 215.299 21.0731C215.395 20.7518 215.459 20.3985 215.459 20.1094C215.492 18.8565 214.978 18.1819 213.95 18.0856C212.922 17.9892 211.765 18.2783 210.512 18.985C209.227 19.6917 208.135 20.6555 207.172 21.8119C207.043 21.9725 206.947 22.0368 206.85 22.0368C206.69 22.0368 206.625 21.8761 206.658 21.5228ZM211.99 25.3776C211.866 25.6568 211.832 25.9659 211.801 26.2471L211.797 26.2771C211.765 26.8874 211.958 27.1765 212.311 27.1765C213.243 27.1765 214.11 25.6346 214.913 22.5829C214.335 22.7114 213.789 23.0005 213.275 23.4181C212.665 23.9963 212.247 24.6066 211.99 25.3776Z" fill="white"/>
<path d="M228.759 16.2866C230.076 12.4639 231.2 10.0868 232.099 9.15519C232.26 8.96245 232.356 8.83397 232.324 8.7376C232.324 8.54486 231.65 8.44849 230.268 8.44849C228.759 8.44849 227.602 8.67335 226.767 9.09096C225.932 9.50856 225.289 10.2474 224.84 11.2432C223.33 14.5198 222.045 18.5031 220.985 23.2253C220.76 24.2854 220.631 25.1848 220.599 25.8916C220.567 26.9516 220.792 27.7226 221.274 28.2044C221.756 28.6863 222.527 28.9112 223.651 28.9112C224.647 28.9112 225.803 28.4935 227.12 27.6262C228.341 26.8231 229.433 25.7952 230.429 24.5745C230.718 24.2211 230.911 23.8999 230.975 23.5465C231.072 23.2253 231.104 22.5507 231.104 21.587C231.136 21.2979 231.071 21.1373 230.911 21.1373C230.814 21.1373 230.718 21.2336 230.59 21.4264C229.594 22.9362 228.598 24.0926 227.602 24.9279C227.185 25.2812 226.863 25.4739 226.638 25.4739C226.381 25.4739 226.285 25.2491 226.285 24.8315C226.285 24.6066 226.349 24.3175 226.446 23.9641C226.992 21.6834 227.763 19.1135 228.759 16.2866Z" fill="white"/>
<path fill-rule="evenodd" clip-rule="evenodd" d="M254.701 23.3555C254.403 23.692 254.086 24.0346 253.751 24.3817C252.691 25.4739 251.952 26.02 251.598 26.02C251.084 26.02 250.956 25.5703 251.181 24.6708C251.406 23.7714 252.016 21.7797 253.044 18.6959C253.911 16.0617 254.554 13.9095 254.907 12.1748C255.004 11.7251 255.068 11.3075 255.068 10.922C255.1 9.41216 254.457 8.64121 253.108 8.64121C251.502 8.64121 249.896 8.96243 248.29 9.66915C248.964 10.3437 249.157 11.3717 248.932 12.753C248.804 13.6846 248.579 14.7125 248.258 15.869C247.712 15.7726 247.133 15.7405 246.555 15.7405C244.371 15.7405 242.315 16.6721 240.355 18.5352C238.331 20.4305 237.271 22.6149 237.143 25.0242C236.982 27.6583 238.042 28.9754 240.259 28.9754C242.09 28.9754 243.921 28.1723 245.784 26.5661C246.298 28.1723 247.39 28.9754 249.061 28.9754C250.217 28.9754 251.406 28.5899 252.691 27.7868C253.361 27.3569 253.986 26.8718 254.56 26.3265C254.846 28.0652 255.942 28.9433 257.83 28.9433C259.629 28.9433 261.332 28.1402 263.002 26.5982C263.484 28.1723 264.544 28.9433 266.215 28.9433C268.087 28.9433 269.86 28.086 271.549 26.3401C271.782 28.097 272.821 28.9754 274.631 28.9754C276.462 28.9754 278.293 28.1723 280.156 26.5661C280.67 28.1723 281.762 28.9754 283.433 28.9754C284.589 28.9754 285.778 28.5899 287.063 27.7868C287.695 27.3813 288.287 26.9266 288.834 26.4187C288.924 27.0732 289.176 27.6192 289.6 28.0439C290.211 28.6863 291.11 29.0076 292.363 28.9754C294.612 28.9433 296.86 27.562 299.141 24.7994C299.462 24.4139 299.655 24.0927 299.751 23.8357C299.848 23.5466 299.912 23.0968 299.976 22.3901C300.041 21.6192 299.976 21.2337 299.751 21.2337C299.655 21.2337 299.559 21.33 299.43 21.4907C298.563 22.6792 297.342 23.9642 295.8 25.3455C295.383 25.731 295.061 25.9237 294.837 25.9237C294.676 25.9237 294.58 25.7631 294.58 25.4419C294.58 25.217 294.676 24.8636 294.805 24.4139C295.704 21.8761 296.379 20.013 296.828 18.8244C296.989 18.3426 297.085 17.925 297.085 17.5395C297.117 16.3188 296.443 15.7084 295.061 15.7084C293.68 15.7084 292.299 15.9654 290.95 16.4794C291.303 17.154 291.303 17.9892 290.982 18.9529L290.615 19.9476C290.222 21.0123 289.874 21.956 289.561 22.7891C289.129 23.3047 288.648 23.8378 288.123 24.3817C287.063 25.4739 286.324 26.02 285.97 26.02C285.457 26.02 285.328 25.5703 285.553 24.6708C285.778 23.7714 286.388 21.7797 287.416 18.6959C288.283 16.0617 288.926 13.9095 289.279 12.1748C289.376 11.7251 289.44 11.3075 289.44 10.922C289.472 9.41216 288.83 8.64121 287.48 8.64121C285.874 8.64121 284.268 8.96243 282.662 9.66915C283.336 10.3437 283.529 11.3717 283.304 12.753C283.176 13.6846 282.951 14.7125 282.63 15.869C282.084 15.7726 281.505 15.7405 280.927 15.7405C278.743 15.7405 276.687 16.6721 274.727 18.5352C273.258 19.9117 272.296 21.4406 271.831 23.0973C271.033 24.0568 270.221 24.8638 269.395 25.5382C269.106 25.7952 268.849 25.9237 268.656 25.9237C268.399 25.9237 268.303 25.6988 268.303 25.2491C268.303 24.96 268.367 24.6387 268.463 24.2854C268.881 22.7756 269.363 21.2657 269.941 19.8202C270.68 17.957 271.258 16.8648 271.708 16.5115C270.969 15.9654 269.941 15.6763 268.688 15.6763C267.789 15.6763 267.114 15.9332 266.664 16.383C266.182 15.9011 265.315 15.6763 263.998 15.6763C261.653 15.6763 259.501 16.64 257.541 18.5674C256.051 20.0333 255.099 21.6294 254.701 23.3555ZM247.744 18.0855C247.872 17.6679 247.647 17.443 247.101 17.443C246.651 17.443 246.105 17.9249 245.463 18.9207C244.724 20.045 244.049 21.4585 243.439 23.2253C243.118 24.1569 242.957 24.8957 242.925 25.4418C242.893 26.02 243.086 26.3091 243.439 26.3091C243.953 26.3091 244.66 25.4739 245.527 23.8035C246.394 22.1652 247.133 20.2699 247.744 18.0855ZM264.576 17.6037C264.898 17.6037 265.058 17.7322 265.058 17.9891C265.026 18.7601 264.448 20.302 263.356 22.5828C262.135 25.0563 261.235 26.3091 260.593 26.3091C260.336 26.3091 260.24 26.0843 260.24 25.6667C260.272 24.6387 260.754 23.0647 261.717 21.0088C262.777 18.728 263.741 17.6037 264.576 17.6037ZM282.116 18.0855C282.244 17.6679 282.019 17.443 281.473 17.443C281.023 17.443 280.477 17.9249 279.835 18.9207C279.096 20.045 278.421 21.4585 277.811 23.2253C277.49 24.1569 277.329 24.8957 277.297 25.4418C277.265 26.02 277.458 26.3091 277.811 26.3091C278.325 26.3091 279.032 25.4739 279.899 23.8035C280.766 22.1652 281.505 20.2699 282.116 18.0855Z" fill="white"/>
<path d="M93.1973 12.6245C93.8719 12.2069 94.2253 11.693 94.2574 11.0505C94.2574 10.5686 94.0647 10.2153 93.6471 9.92616C93.2616 9.70129 92.844 9.5728 92.3621 9.5728C91.6875 9.5728 91.0451 9.73342 90.4347 10.0868C89.7601 10.5044 89.4068 11.0184 89.3746 11.6608C89.3746 12.1427 89.5674 12.496 89.985 12.7851C90.3383 13.01 90.756 13.1385 91.2699 13.1385C91.9766 13.1385 92.6191 12.9779 93.1973 12.6245Z" fill="white"/>
<path d="M99.333 12.6245C100.008 12.2069 100.361 11.693 100.393 11.0505C100.425 10.5686 100.2 10.2153 99.7827 9.92616C99.3972 9.70129 98.9796 9.5728 98.4978 9.5728C97.8232 9.5728 97.1807 9.73342 96.5704 10.0868C95.8958 10.5044 95.5424 11.0184 95.5103 11.6608C95.5103 12.1427 95.703 12.496 96.1206 12.7851C96.474 13.01 96.8916 13.1385 97.4056 13.1385C98.1123 13.1385 98.7548 12.9779 99.333 12.6245Z" fill="white"/>
<path d="M127.57 11.0505C127.537 11.693 127.184 12.2069 126.509 12.6245C125.931 12.9779 125.289 13.1385 124.582 13.1385C124.068 13.1385 123.65 13.01 123.297 12.7851C122.88 12.496 122.687 12.1427 122.687 11.6608C122.719 11.0184 123.072 10.5044 123.747 10.0868C124.357 9.73342 125 9.5728 125.674 9.5728C126.156 9.5728 126.574 9.70129 126.959 9.92616C127.409 10.2153 127.602 10.5686 127.57 11.0505Z" fill="white"/>
<path d="M132.677 12.6245C133.352 12.2069 133.705 11.693 133.737 11.0505C133.737 10.5686 133.545 10.2153 133.127 9.92616C132.741 9.70129 132.324 9.5728 131.842 9.5728C131.167 9.5728 130.525 9.73342 129.915 10.0868C129.24 10.5044 128.887 11.0184 128.854 11.6608C128.854 12.1427 129.047 12.496 129.465 12.7851C129.818 13.01 130.236 13.1385 130.75 13.1385C131.456 13.1385 132.099 12.9779 132.677 12.6245Z" fill="white"/>
<path d="M188.187 11.0505C188.155 11.693 187.801 12.2069 187.127 12.6245C186.548 12.9779 185.906 13.1385 185.199 13.1385C184.685 13.1385 184.268 13.01 183.914 12.7851C183.497 12.496 183.304 12.1427 183.304 11.6608C183.336 11.0184 183.689 10.5044 184.364 10.0868C184.974 9.73342 185.617 9.5728 186.291 9.5728C186.773 9.5728 187.191 9.70129 187.576 9.92616C187.994 10.2153 188.219 10.5686 188.187 11.0505Z" fill="white"/>
<path d="M193.294 12.6245C193.969 12.2069 194.322 11.693 194.354 11.0505C194.354 10.5686 194.162 10.2153 193.744 9.92616C193.359 9.70129 192.941 9.5728 192.459 9.5728C191.784 9.5728 191.142 9.73342 190.532 10.0868C189.857 10.5044 189.504 11.0184 189.472 11.6608C189.472 12.1427 189.664 12.496 190.082 12.7851C190.435 13.01 190.853 13.1385 191.367 13.1385C192.074 13.1385 192.716 12.9779 193.294 12.6245Z" fill="white"/>
<path d="M20.3413 3.05173C21.0158 2.63413 21.3692 2.12016 21.4013 1.47768C21.4013 0.995831 21.2086 0.642471 20.791 0.353359C20.4055 0.128494 19.9879 0 19.506 0C18.8314 0 18.189 0.160618 17.5786 0.513977C16.904 0.931583 16.5507 1.44556 16.5186 2.08803C16.5186 2.56989 16.7113 2.92324 17.1289 3.21235C17.4823 3.43721 17.8999 3.56572 18.4138 3.56572C19.1206 3.56572 19.763 3.40509 20.3413 3.05173Z" fill="white"/>
</svg>
